<?xml version="1.0" encoding="UTF-8"?>
<!DOCTYPE svg PUBLIC "-//W3C//DTD SVG 1.1//EN" "http://www.w3.org/Graphics/SVG/1.1/DTD/svg11.dtd">
<svg version="1.1" xmlns="http://www.w3.org/2000/svg" xmlns:xlink="http://www.w3.org/1999/xlink" x="0" y="0" width="638.941" height="763.21" viewBox="0, 0, 638.941, 763.21">
  <g id="Layer_1">
    <path d="M172.092,594.356 C112.767,601.199 26.592,616.856 4.092,649.856 C-29.454,699.056 156.756,706.082 125.592,712.856 C22.092,735.356 407.592,805.856 617.592,726.356 C682.578,701.756 584.592,664.856 518.592,657.356 C452.592,649.856 514.341,638.636 463.092,616.856 C403.092,591.356 211.092,589.856 172.092,594.356" fill="#DCD2CE" id="path8381"/>
    <path d="M571.677,659.015 C571.677,659.015 567.264,682.286 584.913,684.29 C602.565,686.294 608.184,679.073 609.384,662.624 L590.127,663.026 z" fill="#8F9DBB" id="path8383"/>
    <path d="M530.754,18.743 C530.754,18.743 519.012,-2.881 475.791,1.091 C440.889,4.301 403.179,39.605 395.154,90.557 C387.129,141.506 396.759,166.376 386.727,177.209 C376.698,188.042 378.705,196.469 396.36,204.491 C414.012,212.513 446.106,216.122 457.338,212.513 L501.465,212.513 C501.465,212.513 562.047,216.926 603.366,188.042 C614.358,180.362 609.384,178.013 604.17,174.401 C598.953,170.792 594.54,153.941 592.134,131.477 C589.731,109.01 585.714,54.449 569.271,35.993 C552.822,17.54 530.754,18.743 530.754,18.743" fill="#8E7269" id="path8385"/>
    <path d="M494.652,51.638 C494.652,51.638 444.504,97.376 409.203,117.032 C409.203,117.032 412.41,153.137 412.809,159.956 C413.214,166.778 412.809,181.22 419.226,189.644 C425.646,198.071 451.326,210.107 457.338,212.513 C463.356,214.919 468.576,217.727 473.79,216.524 C473.79,216.524 477.402,224.951 472.59,230.165 C467.775,235.379 462.96,236.582 462.96,236.582 L454.533,258.248 C454.533,258.248 461.349,262.661 475.392,262.259 C489.438,261.857 503.076,259.049 503.076,259.049 L512.703,236.183 C512.703,236.183 505.083,232.97 504.681,225.752 C504.279,218.531 507.489,203.687 507.489,203.687 C507.489,203.687 526.341,190.847 532.764,178.814 C532.764,178.814 554.43,181.622 562.851,165.173 C571.275,148.724 564.054,135.887 546,145.916 C544.398,146.717 540.789,153.941 540.789,153.941 C540.789,153.941 528.348,80.522 494.652,51.638" fill="#FBE1BA" id="path8387"/>
    <path d="M487.827,383.012 C487.827,383.012 482.211,384.215 480.606,384.215 C479.004,384.215 473.388,378.602 455.733,381.008 L458.139,386.222 C458.139,386.222 443.7,389.033 438.888,392.24 C434.073,395.45 433.266,399.062 433.266,399.062 C433.266,399.062 428.052,402.674 431.661,406.685 C435.273,410.696 439.287,410.696 439.287,410.696 C439.287,410.696 440.091,415.109 447.312,417.515 C447.312,417.515 447.306,419.519 456.936,420.323 C466.569,421.124 483.414,419.519 489.03,415.106 C489.03,415.106 496.65,403.469 487.827,383.012" fill="#FBE1BA" id="path8389"/>
    <path d="M487.827,383.012 C487.827,383.012 482.211,384.215 480.606,384.215 C479.004,384.215 473.388,378.602 455.733,381.008 L458.139,386.222 C458.139,386.222 443.7,389.033 438.888,392.24 C434.073,395.45 433.266,399.062 433.266,399.062 C433.266,399.062 428.052,402.674 431.661,406.685 C435.273,410.696 439.287,410.696 439.287,410.696 C439.287,410.696 440.091,415.109 447.312,417.515 C447.312,417.515 447.306,419.519 456.936,420.323 C466.569,421.124 483.414,419.519 489.03,415.106 C489.03,415.106 496.65,403.469 487.827,383.012 z" fill-opacity="0" stroke="#FBE1BA" stroke-width="3" id="path8391"/>
    <path d="M358.245,529.844 C358.245,529.844 373.503,572.666 379.914,596.036 C386.727,620.909 389.139,639.767 389.139,639.767 C389.139,639.767 402.378,632.546 417.219,637.763 C432.063,642.977 433.266,672.662 433.266,672.662 C433.266,672.662 448.113,671.861 450.117,661.832 C452.124,651.803 444.495,643.376 444.099,634.55 C443.7,625.727 433.668,535.46 433.668,535.46 C433.668,535.46 396.354,537.065 381.114,530.648 C381.114,530.648 379.104,529.844 376.302,523.826 C373.491,517.808 373.491,513.794 373.491,513.794 L370.281,528.641 C370.281,528.641 363.462,531.851 358.245,529.844" fill="#FBE1BA" id="path8393"/>
    <path d="M358.245,529.844 C358.245,529.844 373.503,572.666 379.914,596.036 C386.727,620.909 389.139,639.767 389.139,639.767 C389.139,639.767 402.378,632.546 417.219,637.763 C432.063,642.977 433.266,672.662 433.266,672.662 C433.266,672.662 448.113,671.861 450.117,661.832 C452.124,651.803 444.495,643.376 444.099,634.55 C443.7,625.727 433.668,535.46 433.668,535.46 C433.668,535.46 396.354,537.065 381.114,530.648 C381.114,530.648 379.104,529.844 376.302,523.826 C373.491,517.808 373.491,513.794 373.491,513.794 L370.281,528.641 C370.281,528.641 363.462,531.851 358.245,529.844 z" fill-opacity="0" stroke="#FBE1BA" stroke-width="3" id="path8395"/>
    <path d="M453.324,256.238 C453.324,256.238 460.548,261.854 470.976,262.658 C481.407,263.459 503.877,257.843 503.877,257.843 C503.877,257.843 478.197,307.589 449.712,323.237 C449.712,323.237 446.103,279.908 453.324,256.238" fill="#ED7C67" id="path8397"/>
    <path d="M540.384,247.817 L599.757,249.02 C599.757,249.02 616.2,247.415 614.601,266.672 L606.177,458.438 C606.177,458.438 608.184,468.47 599.757,470.876 C599.757,470.876 607.785,475.289 605.775,489.329 C603.771,503.369 599.757,516.611 592.134,519.818 C584.511,523.025 464.559,523.427 464.559,523.427 L462.15,511.391 C462.15,511.391 468.174,509.789 472.182,501.764 C472.182,501.764 511.896,501.764 526.338,487.724 C540.783,473.681 537.573,471.674 537.573,471.674 L539.979,453.623 L479.001,458.438 C479.001,458.438 470.178,460.445 468.969,450.815 L469.374,421.127 C469.374,421.127 481.815,420.725 489.033,415.109 L489.03,419.522 C489.03,419.522 537.975,409.091 549.207,403.877 C560.442,398.66 572.88,396.254 576.891,387.425 C580.902,378.599 562.047,269.081 560.04,262.259 C558.033,255.44 550.413,250.625 540.384,247.817" fill="#8F9DBB" id="path8399"/>
    <path d="M451.32,325.247 C451.32,325.247 445.707,276.299 462.957,236.582 L469.773,233.372 C469.773,233.372 450.114,236.582 442.491,240.995 C442.491,240.995 425.643,244.607 422.436,247.013 C419.229,249.422 412.401,267.473 412.401,267.473 C412.401,267.473 418.023,265.871 422.436,277.106 C426.849,288.335 455.733,381.008 455.733,381.008 C455.733,381.008 467.763,380.204 474.987,381.809 C482.211,383.42 487.827,383.012 487.827,383.012 C487.827,383.012 491.838,388.229 491.436,399.461 C491.037,410.696 489.027,419.522 489.027,419.522 C489.027,419.522 554.022,407.09 565.653,396.659 C577.287,386.225 579.405,386.096 577.287,374.186 C574.08,356.135 560.037,262.259 560.037,262.259 C560.037,262.259 558.036,248.621 529.95,244.205 C529.95,244.205 529.95,243.404 527.946,240.593 C525.936,237.788 512.298,232.169 512.298,232.169 C512.298,232.169 496.65,288.74 451.32,325.247" fill="#FEFEFE" id="path8401"/>
    <path d="M371.889,425.54 C371.889,425.54 345.003,439.178 335.376,460.844 C325.752,482.507 324.549,521.021 324.549,521.021 C324.549,521.021 338.19,534.653 370.281,528.638 L374.697,516.206 C374.697,516.206 375.9,526.634 379.512,529.445 C383.118,532.253 420.027,541.079 464.961,530.648 L462.15,511.391 C462.15,511.391 467.367,510.593 472.182,500.561 C472.182,500.561 517.113,502.163 530.352,482.906 C543.591,463.649 539.979,453.62 539.979,453.62 L479.001,458.438 C479.001,458.438 468.573,456.833 468.969,450.815 C469.374,444.797 469.374,421.124 469.374,421.124 L462.15,419.12 L378.705,426.74 C378.705,426.74 374.295,428.351 371.889,425.54" fill="#FEFEFE" id="path8403"/>
    <path d="M332.571,276.296 L407.589,266.669 C407.589,266.669 416.82,264.26 420.426,273.89 L458.139,386.225 C458.139,386.225 438.477,391.034 435.669,392.639 C432.864,394.244 433.266,399.062 433.266,399.062 C433.266,399.062 428.448,402.671 430.455,405.878 C432.462,409.088 438.078,410.693 438.078,410.693 C438.078,410.693 439.686,414.305 445.701,417.512 C445.701,417.512 448.911,419.516 454.926,421.121 L373.488,427.139 C373.488,427.139 365.865,427.943 361.05,415.907 L328.152,292.745 C328.152,292.745 322.539,281.51 332.571,276.296" fill="#8E7269" id="path8405"/>
    <path d="M390.741,638.954 C390.741,638.954 380.313,630.929 359.85,638.552 C339.39,646.175 337.788,675.065 340.596,682.685 L472.179,682.685 C472.179,682.685 476.196,681.479 474.588,676.664 C472.983,671.852 468.174,672.653 468.174,672.653 L433.266,672.662 C433.266,672.662 438.483,652.196 424.842,643.37 C411.201,634.541 399.564,635.762 389.139,639.767" fill="#C8CCDC" id="path8407"/>
    <path d="M504.678,524.222 L505.077,614.486 L526.74,614.486 L525.54,523.418 z" fill="#CBBDB8" id="path8409"/>
    <path d="M502.269,614.084 L526.74,614.084 C526.74,614.084 532.356,613.682 533.565,618.896 C534.765,624.113 533.565,628.523 533.565,628.523 L600.957,642.566 C600.957,642.566 607.779,644.975 610.191,650.591 C612.594,656.207 613.797,663.026 613.797,663.026 L590.127,663.026 L534.363,650.189 C534.363,650.189 523.938,647.381 516.711,647.381 C509.49,647.381 498.663,649.787 498.663,649.787 L464.16,660.218 L450.117,661.832 C450.117,661.832 450.918,655.808 449.712,653 C448.512,650.189 446.505,643.37 446.505,643.37 L497.856,627.323 C497.856,627.323 493.842,617.696 502.269,614.084" fill="#AB958D" id="path8411"/>
    <path d="M496.251,650.189 L496.653,659.015 L534.363,659.015 L534.363,650.189 C534.363,650.189 527.148,646.979 516.711,647.378 C506.28,647.78 496.251,650.189 496.251,650.189" fill="#8E7269" id="path8413"/>
    <path d="M507.483,659.819 C507.483,659.819 502.668,678.671 511.896,681.08 C521.127,683.489 526.338,679.88 527.142,671.453 C527.946,663.026 527.547,659.015 527.547,659.015 z" fill="#8F9DBB" id="path8415"/>
    <path d="M462.552,660.62 C462.552,660.62 465.762,665.837 460.95,672.257 L439.287,671.855 C439.287,671.855 450.927,667.859 450.117,661.832 z" fill="#8F9DBB" id="path8417"/>
    <path d="M437.178,124.526 C437.178,124.526 437.178,113.525 426.906,114.623 C416.637,115.724 413.34,148.733 429.477,156.437 C429.477,156.437 439.377,158.27 437.178,124.526" fill="#FEFEFE" id="path8419"/>
    <path d="M486.693,110.957 C486.693,110.957 474.582,108.392 473.118,119.027 C471.651,129.662 476.061,153.869 479.358,156.071 C482.652,158.27 492.924,158.639 496.962,156.437 C500.997,154.235 505.764,140.666 503.928,128.195 C502.098,115.724 493.296,111.323 486.693,110.957" fill="#FEFEFE" id="path8421"/>
    <path d="M501.462,44.771 C470.577,73.04 437.178,100.421 400.641,121.001 C398.721,122.084 401.694,122.231 402.612,121.712 C439.389,100.997 472.962,73.544 504.039,45.095 C505.377,43.871 502.125,44.168 501.462,44.771" fill="#65453F" id="path8423"/>
    <path d="M415.434,75.674 C403.917,103.97 408.249,132.194 411.279,161.654 C412.563,174.074 412.014,183.422 421.14,192.764 C428.976,200.777 440.289,205.745 450.354,210.269 C464.58,216.668 470.103,219.104 485.802,214.451 C508.038,207.86 527.499,193.01 538.353,172.448 C538.734,171.725 535.578,172.013 535.089,172.94 C523.257,195.353 500.901,210.659 476.127,215.423 C463.833,217.787 447.111,206.564 436.863,200.762 C428.328,195.932 420.246,189.551 416.538,180.221 C412.947,171.173 414.249,157.568 413.202,147.911 C410.502,122.975 409.023,98.957 418.701,75.182 C419.04,74.342 415.827,74.714 415.434,75.674" fill="#65453F" id="path8425"/>
    <path d="M547.887,148.379 C550.59,143.96 556.773,140.72 561.201,144.971 C564.438,148.076 564.225,153.995 563.655,157.961 C561.636,171.962 547.305,179.468 534,177.596 C533.031,177.458 530.139,179.039 531.963,179.294 C548.526,181.625 565.803,172.25 567.264,154.604 C568.488,139.82 551.961,136.745 544.848,148.37 C544.074,149.627 547.362,149.24 547.887,148.379" fill="#65453F" id="path8427"/>
    <path d="M543.378,152.954 C537.348,116.717 521.193,79.727 496.566,52.022 C495.834,51.203 492.696,52.379 493.503,53.285 C518.064,80.903 534.075,117.674 540.09,153.833 C540.273,154.898 543.573,154.121 543.378,152.954" fill="#65453F" id="path8429"/>
    <path d="M548.58,70.463 C560.814,96.722 557.808,128.156 539.961,150.932 C538.653,152.594 541.755,153.248 542.739,151.997 C560.991,128.702 564.438,96.563 551.868,69.584 C551.16,68.072 547.902,69.014 548.58,70.463" fill="#65453F" id="path8431"/>
    <path d="M505.698,212.054 C536.586,216.098 572.298,209.234 598.974,192.686 C602.199,190.688 613.665,184.394 612.024,178.796 C611.262,176.186 609.153,175.502 606.825,174.38 C600.294,171.236 598.362,161.558 596.856,155.294 C587.613,116.846 594.774,71.732 571.962,37.409 C563.814,25.145 548.13,15.617 533.016,16.769 C531.213,16.907 530.448,19.238 532.698,19.064 C547.314,17.951 560.661,27.761 568.95,38.825 C579.717,53.21 582.231,72.602 584.952,89.807 C587.679,107.033 588.975,124.454 591.15,141.749 C592.437,151.985 593.949,162.86 599.55,171.737 C601.122,174.227 603.495,175.844 606.075,177.086 C612.651,180.254 604.185,186.251 601.272,188.411 C576.024,207.11 537.276,213.743 506.865,209.762 C505.311,209.558 503.487,211.763 505.698,212.054" fill="#65453F" id="path8433"/>
    <path d="M532.188,17.477 C522.93,-1.783 485.898,-1.798 469.269,1.919 C434.898,9.608 408.606,39.047 398.742,72.233 C392.793,92.231 393.576,113.366 393.012,134.024 C392.73,144.383 392.097,154.712 390.021,164.882 C388.887,170.453 386.775,175.433 383.154,179.816 C381.777,181.484 379.377,182.573 378.564,184.721 C375.129,193.82 386.652,200.531 393.456,203.711 C412.038,212.396 432.822,215.747 453.177,213.299 C454.992,213.083 455.718,210.659 453.477,210.926 C434.652,213.188 415.926,210.239 398.46,202.967 C392.052,200.3 384.075,196.04 381.315,189.242 C379.593,184.994 387.057,179.534 389.142,176.282 C395.94,165.677 395.652,150.008 396.192,138.005 C396.96,120.938 396.591,103.868 398.658,86.879 C402.501,55.346 424.176,24.542 452.181,10.073 C470.253,0.731 493.491,0.692 512.568,6.809 C518.217,8.618 526.125,12.575 528.9,18.359 C529.581,19.778 532.827,18.812 532.188,17.477" fill="#65453F" id="path8435"/>
    <path d="M442.254,93.125 C442.476,86.681 435.195,83.204 429.678,85.226 C422.103,87.998 415.029,96.995 415.038,105.203 C415.038,105.899 418.323,105.374 418.323,104.318 C418.317,98.165 422.676,92.078 427.191,88.268 C432.177,84.062 439.179,87.83 438.966,94.007 C438.945,94.673 442.215,94.193 442.254,93.125" fill="#65453F" id="path8437"/>
    <path d="M468.504,96.86 C472.074,83.48 492.975,84.791 501.102,92.273 C506.235,96.992 509.82,104.018 511.914,110.606 C512.316,111.866 515.589,110.951 515.199,109.724 C511.716,98.771 504.249,87.041 492.315,84.617 C483.723,82.874 467.82,87.437 465.207,97.223 C464.853,98.543 468.186,98.069 468.504,96.86" fill="#65453F" id="path8439"/>
    <path d="M438.414,124.694 C438.177,119.582 435.726,112.976 429.576,113.258 C419.805,113.708 415.404,123.539 416.199,132.221 C416.328,133.655 419.622,132.872 419.481,131.339 C419.13,127.475 419.733,123.857 421.632,120.449 C423.327,117.41 427.422,114.332 431.001,116.051 C433.968,117.47 434.976,122.411 435.09,124.973 C435.168,126.65 438.477,126.083 438.414,124.694" fill="#65453F" id="path8441"/>
    <path d="M429.78,124.058 C429.78,124.058 427.59,124.442 426.651,129.851 C425.715,135.251 425.715,154.166 429.156,156.095 C432.594,158.027 433.224,147.608 432.912,138.725 C432.594,129.851 431.655,123.671 429.78,124.058" fill="#65453F" id="path8443"/>
    <path d="M429.603,123.398 C424.776,124.841 424.764,131.261 424.554,135.413 C424.296,140.6 422.955,152.948 427.617,156.695 C432.966,160.994 434.388,148.484 434.511,146.705 C434.757,143.033 436.38,123.899 430.818,123.281 C429.963,123.185 426.987,124.643 428.742,124.835 C431.691,125.165 431.277,139.442 431.322,141.236 C431.421,145.001 431.262,148.769 430.674,152.489 C430.275,155.024 430.326,155.936 429.3,153.269 C427.764,149.261 427.875,144.347 427.776,140.129 C427.725,137.999 427.056,125.585 429.957,124.718 C431.874,124.148 431.538,122.819 429.603,123.398" fill="#65453F" id="path8445"/>
    <path d="M484.224,124.058 C484.224,124.058 481.521,124.442 480.363,129.851 C479.205,135.251 479.205,154.166 483.45,156.095 C487.698,158.027 488.469,147.608 488.082,138.725 C487.698,129.851 486.537,123.671 484.224,124.058" fill="#65453F" id="path8447"/>
    <path d="M483.936,122.978 C478.467,124.229 478.275,132.089 478.086,136.433 C477.867,141.797 476.916,153.593 482.181,157.022 C488.19,160.937 489.543,149.021 489.738,146.255 C490.053,141.863 491.535,123.512 484.803,122.906 C483.246,122.765 481.422,125.018 483.642,125.216 C486.918,125.513 486.492,141.125 486.513,142.724 C486.549,145.703 486.324,148.664 485.844,151.604 C485.076,156.32 483.351,153.869 482.586,151.22 C481.611,147.839 478.731,126.467 484.512,125.144 C486.564,124.673 485.961,122.516 483.936,122.978" fill="#65453F" id="path8449"/>
    <path d="M450.549,156.536 C451.827,159.455 451.179,162.92 449.802,165.656 C449.589,166.076 452.625,165.872 453.033,165.059 C454.449,162.257 455.142,158.648 453.837,155.654 C453.501,154.898 450.315,156.002 450.549,156.536" fill="#65453F" id="path8451"/>
    <path d="M448.338,187.193 C452.85,193.769 459.75,199.493 468.066,197.126 C474.276,195.356 478.803,188.915 481.224,183.254 C481.587,182.417 478.374,182.777 477.963,183.743 C476.181,187.898 473.436,191.759 469.86,194.537 C462.948,199.901 454.905,191.078 451.407,185.981 C450.876,185.204 447.687,186.251 448.338,187.193" fill="#65453F" id="path8453"/>
    <path d="M473.913,120.026 C475.515,112.127 482.652,110.903 489.417,112.601 C499.335,115.091 502.449,125.144 502.641,134.267 C502.677,135.8 505.977,135.152 505.95,133.922 C505.692,122.243 500.952,112.088 488.601,110.066 C480.528,108.743 472.404,111.53 470.61,120.371 C470.325,121.79 473.655,121.286 473.913,120.026" fill="#65453F" id="path8455"/>
    <path d="M543.75,166.259 C546.003,160.268 551.604,155.672 558.039,155.318 C559.026,155.261 561.591,153.665 559.401,153.785 C551.307,154.232 543.438,158.945 540.489,166.775 C540.186,167.576 543.402,167.189 543.75,166.259" fill="#65453F" id="path8457"/>
    <path d="M504.978,204.959 C503.628,214.703 498.726,231.401 510.576,236.126 C511.473,236.48 514.476,235.139 513.219,234.638 C502.086,230.201 506.976,213.665 508.251,204.494 C508.413,203.336 505.116,203.957 504.978,204.959" fill="#65453F" id="path8459"/>
    <path d="M472.551,217.904 C473.514,219.932 473.79,222.2 473.805,224.42 C473.853,230.861 468.987,234.377 463.59,236.597 C461.439,237.482 463.467,238.031 464.766,237.497 C469.398,235.592 473.841,233.336 476.04,228.626 C477.651,225.173 477.456,220.436 475.839,217.022 C475.413,216.128 472.236,217.241 472.551,217.904" fill="#65453F" id="path8461"/>
    <path d="M454.875,258.872 C468.762,266.771 489.027,262.877 503.382,259.286 C505.386,258.785 504.888,256.973 502.896,257.471 C489.549,260.813 470.448,264.581 457.464,257.198 C456.45,256.622 453.447,258.059 454.875,258.872" fill="#65453F" id="path8463"/>
    <path d="M442.167,332.192 C474.858,308.657 498.507,273.959 513.345,236.81 C515.97,230.234 511.788,232.562 515.523,235.139 C519.966,238.205 527.979,241.121 528.309,246.911 C528.738,254.246 529.164,261.581 529.59,268.919 C529.335,270.449 529.953,270.539 531.432,269.204 L525.081,269.204 L515.403,269.204 C515.076,269.204 512.727,269.693 513.078,270.398 C515.892,276.035 518.715,281.669 521.535,287.309 C523.002,290.249 517.302,293.474 515.052,295.412 C493.902,313.646 468.177,326.114 441.126,332.651 C439.176,333.125 439.521,334.358 441.456,333.887 C472.059,326.489 503.415,311.462 525.483,288.413 C525.594,288.314 525.642,288.191 525.627,288.041 C522.807,282.407 519.987,276.77 517.167,271.13 C516.867,269.555 516.012,269.414 514.602,270.71 L520.953,270.71 L530.628,270.71 C531.204,270.71 533.004,270.356 532.962,269.519 C532.476,261.128 531.987,252.746 531.501,244.361 C531.222,239.54 518.952,234.2 515.103,231.542 C514.401,231.062 512.229,231.524 511.932,232.394 C498.699,271.097 472.773,308.069 439.614,331.94 C438.204,332.957 441.507,332.666 442.167,332.192" fill="#65453F" id="path8465"/>
    <path d="M461.019,236.549 C447.132,262.316 446.118,295.403 449.388,323.66 C449.481,324.458 452.79,323.777 452.676,322.781 C449.412,294.575 450.408,261.758 464.277,236.027 C464.613,235.4 461.502,235.661 461.019,236.549" fill="#65453F" id="path8467"/>
    <path d="M470.382,233.057 C461.898,234.935 452.04,235.718 443.979,238.949 C439.002,240.95 434.115,254.015 431.28,258.59 C431.1,258.875 431.091,259.19 431.475,259.316 C446.247,264.239 430.104,261.944 429.627,271.013 C428.655,289.478 435.69,309.452 444.462,325.286 C445.026,326.306 448.176,325.178 447.75,324.404 C440.037,310.49 435.483,295.67 433.464,279.917 C432.003,268.52 433.791,268.244 442.2,261.473 C442.512,261.218 442.764,260.711 442.224,260.531 C438.027,259.133 433.488,259.886 436.155,255.581 C439.188,250.694 442.215,245.807 445.245,240.923 C447.189,237.788 464.475,235.889 470.769,234.494 C472.755,234.056 472.338,232.622 470.382,233.057" fill="#65453F" id="path8469"/>
    <path d="M528.606,244.127 C540.993,247.628 556.404,252.665 559.086,266.429 C561.915,280.916 564.039,295.559 566.271,310.145 C568.947,327.623 571.485,345.125 573.816,362.657 C575.448,374.924 580.467,386.897 568.086,394.079 C553.239,402.698 535.092,406.727 518.604,410.948 C511.566,412.751 504.483,414.38 497.382,415.94 C495.408,416.372 493.431,416.789 491.457,417.2 C487.005,418.13 490.962,417.368 490.569,418.682 C492.699,411.545 493.674,403.286 492.726,395.897 C492.423,393.539 490.2,382.268 489.126,382.643 C491.775,381.71 494.4,380.723 497.025,379.733 C505.35,376.598 513.648,373.184 521.358,368.717 C523.32,367.58 524.967,366.26 526.521,364.637 C535.251,355.463 538.044,361.616 542.931,367.565 C543.903,368.741 547.026,367.424 545.937,366.104 C539.877,358.733 535.608,353.981 526.908,360.206 C519.987,365.159 514.794,369.704 506.727,373.247 C500.406,376.028 493.914,378.467 487.392,380.741 C486.798,380.942 485.775,381.512 486.054,382.325 C490.101,394.046 490.863,406.772 487.287,418.745 C486.915,419.975 488.199,420.284 489.165,420.089 C511.644,415.649 534.213,410.165 555.726,402.215 C562.788,399.608 574.101,396.026 578.37,389.063 C581.388,384.143 578.91,376.151 578.271,370.88 C574.629,341.003 570.054,311.201 565.167,281.501 C564.03,274.583 563.937,265.049 560.733,258.665 C556.101,249.452 539.601,244.454 530.493,241.88 C529.053,241.472 526.608,243.563 528.606,244.127" fill="#65453F" id="path8471"/>
    <path d="M549.726,267.602 C522.495,289.817 530.469,326.063 530.826,357.239 C530.832,357.782 534.126,357.293 534.114,356.36 C533.763,325.697 525.936,289.184 552.699,267.35 C553.401,266.777 550.332,267.107 549.726,267.602" fill="#65453F" id="path8473"/>
    <path d="M443.961,239.318 C439.875,240.608 435.759,241.799 431.667,243.092 C428.481,244.1 423.57,244.841 421.002,247.109 C415.629,251.852 413.298,260.705 411.174,267.317 C410.877,268.241 414.126,267.794 414.438,266.825 C416.448,260.57 418.674,253.7 422.637,248.399 C424.86,245.435 431.55,244.58 434.838,243.554 C437.991,242.567 441.171,241.658 444.324,240.662 C446.223,240.062 445.896,238.706 443.961,239.318" fill="#65453F" id="path8475"/>
    <path d="M460.188,385.781 C448.698,351.089 437.205,316.397 425.715,281.705 C422.667,272.501 419.859,264.8 408.351,266.174 C388.491,268.547 368.625,270.917 348.771,273.287 C337.788,274.598 324.507,272.729 325.107,287.378 C325.617,299.852 332.514,314.615 335.775,326.585 C341.91,349.142 348.045,371.702 354.186,394.259 C356.604,403.145 358.053,420.812 366.111,426.77 C369.015,428.924 374.625,427.634 377.829,427.409 C388.413,426.653 398.994,425.9 409.578,425.147 C427.431,423.872 445.29,422.6 463.14,421.331 C464.706,421.22 465.915,419.48 463.626,419.642 C446.748,420.845 429.87,422.048 412.992,423.251 C402.951,423.968 366.453,433.079 364.104,417.755 C362.085,404.648 356.91,391.325 353.436,378.548 C347.301,355.991 341.163,333.434 335.025,310.874 C332.787,302.642 321.627,278.159 336.24,276.413 C357.189,273.911 378.141,271.409 399.093,268.907 C405.804,268.106 416.565,264.878 419.703,274.349 C421.398,279.488 423.105,284.624 424.806,289.76 C432.009,311.504 439.212,333.248 446.412,354.989 C449.904,365.549 453.402,376.103 456.9,386.66 C457.254,387.734 460.521,386.792 460.188,385.781" fill="#65453F" id="path8477"/>
    <path d="M486.387,381.641 C483.261,384.224 481.872,382.733 478.575,381.764 C471.867,379.787 464.814,379.151 457.854,379.055 C456.66,379.04 454.338,380.831 456.564,380.864 C464.319,380.969 472.449,381.725 479.751,384.566 C482.19,385.514 487.116,383.699 489.012,382.133 C490.455,380.942 487.176,380.99 486.387,381.641" fill="#65453F" id="path8479"/>
    <path d="M465.18,384.47 C456.396,386.969 439.863,387.632 432.795,393.866 C430.815,395.615 430.755,397.274 431.493,399.668 C432.111,401.666 428.988,402.533 428.757,404.468 C428.271,408.656 436.545,410.408 436.479,410.642 C435.228,414.674 444.174,418.106 444.828,417.074 C442.866,420.173 452.514,420.518 453.528,420.575 C464.898,421.235 480.702,421.547 490.5,414.746 C491.856,413.804 488.565,414.251 487.992,414.653 C481.089,419.438 470.574,419.159 462.486,419.336 C461.49,419.357 446.241,419.378 448.41,415.952 C448.611,415.634 447.99,415.589 447.855,415.571 C444.267,415.481 441.708,413.477 440.172,409.556 C440.352,409.346 440.394,409.091 440.031,409.043 C434.304,408.296 428.604,406.004 435.153,399.908 C435.264,399.824 435.315,399.719 435.309,399.59 C430.479,392.288 447.492,390.23 451.167,389.345 C455.964,388.19 460.71,386.834 465.453,385.484 C467.352,384.941 467.091,383.924 465.18,384.47" fill="#65453F" id="path8481"/>
    <path d="M433.041,401.012 C440.583,401.195 448.617,401.102 455.901,398.981 C457.863,398.411 457.41,396.641 455.427,397.217 C448.701,399.179 441.255,399.212 434.289,399.044 C432.981,399.011 430.815,400.955 433.041,401.012" fill="#65453F" id="path8483"/>
    <path d="M437.622,410.372 C444.285,410.936 451.95,411.182 458.163,408.374 C460.146,407.477 457.056,407.534 456.255,407.897 C451.473,410.057 444.876,409.427 439.74,408.989 C439.014,408.926 435.957,410.225 437.622,410.372" fill="#65453F" id="path8485"/>
    <path d="M446.535,417.038 C450.477,416.474 454.479,415.952 458.475,415.91 C459.564,415.898 462.015,414.227 459.804,414.251 C455.541,414.296 451.257,414.848 447.042,415.445 C445.557,415.655 444.24,417.362 446.535,417.038" fill="#65453F" id="path8487"/>
    <path d="M467.913,419.903 L467.913,453.95 C467.913,460.466 474.672,460.031 479.055,459.596 C509.376,456.587 539.7,453.575 570.021,450.566 C576.789,449.891 584.418,450.212 590.799,447.575 C599.952,443.789 595.488,424.019 595.488,416.669 C595.488,409.535 596.622,399.56 586.212,400.694 C572.658,402.173 559.011,402.995 545.415,404.072 C543.747,404.207 542.733,406.208 545.004,406.028 C555.042,405.23 565.077,404.423 575.112,403.589 C579.237,403.244 592.2,400.223 592.2,408.251 L592.2,422.585 C592.2,430.199 595.872,446.084 585.039,447.158 C576.114,448.046 567.192,448.931 558.267,449.819 C533.502,452.276 508.737,454.736 483.975,457.196 C476.655,457.922 471.21,459.053 471.21,449.546 L471.21,419.528 C471.21,418.067 467.913,418.736 467.913,419.903" fill="#65453F" id="path8489"/>
    <path d="M371.487,425.645 C357.426,432.44 344.265,442.589 336.075,455.996 C329.415,466.907 329.289,482.891 327.417,495.185 C325.992,504.53 324.705,513.899 323.538,523.277 C323.499,523.601 323.664,523.949 323.943,524.12 C337.014,532.262 355.674,531.326 370.224,530.18 C371.064,530.111 371.799,529.655 372.03,528.833 C373.188,524.711 374.346,520.595 375.504,516.479 C374.4,516.665 373.299,516.851 372.195,517.037 C376.278,529.283 375.267,530.441 387.336,533.018 C412.974,538.493 439.743,536.975 465.237,531.647 C465.975,531.491 466.686,530.849 466.572,530.054 C465.156,520.403 463.74,510.752 462.324,501.104 C462.099,499.55 458.802,500.378 459.039,501.983 C460.086,509.132 461.139,516.281 462.186,523.43 C463.11,529.736 464.79,529.304 458.928,530.528 C447.276,532.964 435.312,533.777 423.429,533.957 C409.905,534.158 396.102,532.583 382.965,529.328 C377.061,527.864 377.448,522.068 375.483,516.158 C374.961,514.595 372.516,515.492 372.174,516.713 C371.076,520.604 369.981,524.492 368.889,528.383 C368.094,531.209 340.101,526.88 335.604,525.758 C323.262,522.68 327.372,518.822 329.049,506.684 C331.548,488.633 331.923,466.133 342.837,450.971 C350.058,440.942 361.908,432.974 372.957,427.637 C374.976,426.659 373.176,424.832 371.487,425.645" fill="#65453F" id="path8491"/>
    <path d="M538.551,452.966 C538.59,467.09 534.021,482.978 521.655,491.033 C508.629,499.52 488.232,500.078 472.953,500.15 C472.317,500.153 469.23,501.407 470.799,501.404 C486.417,501.332 504.222,500.162 518.658,493.727 C535.122,486.392 541.884,469.469 541.839,452.087 C541.833,451.649 538.545,452.096 538.551,452.966" fill="#65453F" id="path8493"/>
    <path d="M472.947,490.598 C471.213,497.882 469.377,507.185 461.616,510.281 C459.462,511.139 461.466,511.889 462.837,511.34 C471.867,507.74 474.153,498.743 476.211,490.106 C476.448,489.104 473.175,489.632 472.947,490.598" fill="#65453F" id="path8495"/>
    <path d="M543.759,248.324 C558.606,248.456 573.459,248.591 588.315,248.723 C601.221,248.84 614.448,250.709 613.725,267.704 C612.384,298.982 611.04,330.257 609.699,361.532 C608.4,391.811 607.101,422.093 605.802,452.375 C605.694,454.985 605.634,457.574 605.325,460.175 C603.777,473.207 592.965,471.089 583.485,471.098 C568.152,471.11 552.819,471.023 537.477,470.924 C536.25,470.918 533.976,472.772 536.199,472.787 C553.191,472.892 570.177,472.985 587.16,472.952 C600.705,472.925 608.733,470.903 609,454.568 C609.495,424.421 611.565,394.223 612.858,364.103 C614.265,331.193 615.678,298.283 617.088,265.373 C617.67,251.927 606.828,247.019 595.686,246.92 C578.802,246.767 561.918,246.614 545.037,246.464 C543.804,246.452 541.533,248.303 543.759,248.324" fill="#65453F" id="path8497"/>
    <path d="M600.291,472.625 C608.574,480.017 602.877,495.641 600.576,504.614 C598.326,513.419 597.771,518.198 588.966,519.317 C573.717,521.246 558.129,521.342 542.787,521.774 C516.639,522.506 490.47,522.767 464.316,522.776 C462.468,522.776 461.766,525.098 464.001,525.098 C497.697,525.089 531.429,524.786 565.092,523.301 C572.751,522.962 591.702,525.071 598.035,519.227 C603.585,514.1 605.037,500.165 606.462,493.325 C608.079,485.54 609.426,476.657 602.835,470.774 C601.788,469.838 598.896,471.38 600.291,472.625" fill="#65453F" id="path8499"/>
    <path d="M503.04,523.604 L503.04,613.151 C503.04,613.607 506.328,613.16 506.328,612.272 L506.328,522.725 C506.328,522.269 503.04,522.716 503.04,523.604" fill="#65453F" id="path8501"/>
    <path d="M524.25,523.286 L524.25,612.833 C524.25,614.57 527.574,614.081 527.574,612.587 L527.574,523.04 C527.574,521.303 524.25,521.792 524.25,523.286" fill="#65453F" id="path8503"/>
    <path d="M447.837,645.479 C464.628,639.626 481.419,633.77 498.207,627.914 C498.513,627.806 499.197,627.398 499.191,626.993 C499.14,623.729 498.306,615.236 503.262,615.236 L518.358,615.236 C529.926,615.236 532.251,615.947 532.761,628.202 C532.773,628.484 533.199,628.649 533.403,628.694 C554.673,633.605 575.937,638.513 597.201,643.418 C605.322,645.29 608.118,652.526 611.037,659.327 C611.622,660.704 612.201,662.084 612.774,663.464 C615.3,662.798 615.606,662.537 613.689,662.675 L604.038,662.675 C593.856,662.675 586.425,661.808 576.6,659.42 C556.044,654.434 533.148,645.14 511.65,646.19 C490.224,647.24 470.238,661.133 448.959,661.133 C447.66,661.133 445.485,663.095 447.702,663.095 C475.659,663.095 499.497,643.064 528.363,650.069 C545.925,654.329 563.493,658.592 581.058,662.855 C591.963,665.501 602.838,664.64 614.058,664.64 C614.586,664.64 616.737,664.196 616.326,663.218 C613.023,655.265 610.65,643.295 600.627,641.885 C592.575,640.748 584.475,638.156 576.552,636.326 C564.627,633.575 552.699,630.824 540.774,628.07 C536.475,627.08 536.073,628.049 535.905,624.062 C535.725,619.709 536.187,615.773 532.002,613.502 C526.296,610.412 512.613,613.274 506.229,613.274 C500.757,613.274 497.112,614.192 496.062,620.375 C494.991,626.654 498.285,625.961 492.336,628.037 C486.849,629.948 481.362,631.865 475.875,633.779 C466.086,637.19 456.3,640.604 446.511,644.021 C444.348,644.774 446.313,646.013 447.837,645.479" fill="#65453F" id="path8505"/>
    <path d="M386.601,442.292 C376.533,446.789 372.216,457.592 370.65,467.78 C369.243,476.897 370.191,486.809 370.725,495.974 C371.076,501.974 373.731,510.896 372.189,516.794 C371.862,518.048 375.183,517.559 375.483,516.401 C377.637,508.163 373.983,495.515 373.596,487.064 C372.948,472.907 372.264,450.713 387.921,443.717 C390.009,442.784 388.101,441.62 386.601,442.292" fill="#65453F" id="path8507"/>
    <path d="M381.132,531.323 C392.319,565.295 406.386,600.509 411.948,635.921 C412.176,637.346 415.467,636.527 415.239,635.042 C409.674,599.63 395.604,564.416 384.42,530.444 C383.949,529.022 380.676,529.937 381.132,531.323" fill="#65453F" id="path8509"/>
    <path d="M356.853,530.795 C368.136,565.601 382.35,601.625 388.023,637.853 C388.224,639.155 391.527,638.357 391.308,636.974 C385.638,600.746 371.415,564.722 360.141,529.916 C359.712,528.599 356.439,529.514 356.853,530.795" fill="#65453F" id="path8511"/>
    <path d="M432.792,535.955 C434.622,555.878 436.485,575.795 438.396,595.712 C439.521,607.436 440.646,619.16 441.912,630.869 C443.127,642.125 456.663,669.002 436.113,669.737 C434.208,669.803 433.614,672.323 435.852,672.245 C447.363,671.831 453.201,664.79 451.377,653.672 C450.279,646.985 446.526,641.063 445.689,634.307 C444.981,628.637 444.45,622.94 443.877,617.258 C441.114,589.88 438.594,562.478 436.08,535.076 C435.936,533.501 432.642,534.311 432.792,535.955" fill="#65453F" id="path8513"/>
    <path d="M369.306,676.727 C367.611,652.652 386.325,634.862 410.637,637.511 C427.047,639.296 432.822,658.316 431.637,672.356 C431.589,672.926 432.177,673.07 432.639,673.085 C445.668,673.466 458.7,673.85 471.729,674.234 C471.93,674.24 475.137,681.251 471.915,681.251 L466.359,681.251 L444.513,681.251 L390.936,681.251 L374.016,681.251 C368.94,681.251 370.038,682.091 369.306,676.727 C369.153,675.614 365.853,676.373 366.021,677.606 C366.906,684.095 368.085,683.12 372.741,683.12 L405.663,683.12 L471.624,683.12 C472.305,683.12 473.424,682.892 473.79,682.22 C481.602,668.129 461.715,672.035 453.603,671.795 C450.369,671.699 435.021,670.802 434.952,671.609 C435.576,664.178 434.118,656.783 431.292,649.934 C424.611,633.743 402.99,632.222 388.785,638.342 C373.359,644.99 364.839,660.803 366.021,677.606 C366.099,678.68 369.396,677.99 369.306,676.727" fill="#65453F" id="path8515"/>
    <path d="M369.078,681.278 L352.461,681.278 L343.197,681.278 C339.948,681.278 341.832,681.917 341.091,679.616 C338.841,672.644 341.673,663.227 344.175,656.843 C350.637,640.322 372.858,630.428 388.854,639.338 C389.766,639.842 392.799,638.513 391.479,637.778 C381.639,632.297 368.298,633.656 358.491,638.708 C345.237,645.53 338.265,658.28 337.386,672.989 C337.242,675.344 336.897,680.48 338.415,682.232 C339.558,683.552 342.024,683.09 341.082,683.09 L367.788,683.09 C368.985,683.09 371.298,681.278 369.078,681.278" fill="#65453F" id="path8517"/>
    <path d="M607.233,664.367 C607.011,672.035 603.546,682.076 594.501,682.544 C591.351,682.706 588.15,682.544 584.991,682.544 C583.125,682.544 582.459,684.917 584.691,684.917 C589.614,684.917 594.777,685.505 599.463,683.78 C607.164,680.939 610.344,671.519 610.56,664.109 C610.608,662.405 607.275,662.909 607.233,664.367" fill="#65453F" id="path8519"/>
    <path d="M597.747,664.676 C597.435,673.985 591.483,686.741 580.002,681.545 C572.211,678.02 571.212,666.326 572.838,659.168 C573.084,658.106 569.802,658.64 569.571,659.642 C567.324,669.491 570.615,683.954 582.858,684.5 C594.54,685.025 600.678,674.327 601.035,663.797 C601.059,662.975 597.789,663.506 597.747,664.676" fill="#65453F" id="path8521"/>
    <path d="M461.1,661.163 C461.949,664.91 460.389,669.143 458.586,672.347 C457.872,673.616 461.142,673.178 461.622,672.329 C463.575,668.852 465.312,664.364 464.388,660.284 C464.151,659.255 460.854,660.095 461.1,661.163" fill="#65453F" id="path8523"/>
    <path d="M495.318,651.116 L495.318,659.993 C495.318,660.56 495.813,660.782 496.341,660.782 L534.162,660.782 C534.75,660.782 536.439,660.479 536.439,659.612 L536.439,650.735 C536.439,649.292 533.142,649.973 533.142,651.116 L533.142,659.993 C533.898,659.603 534.66,659.213 535.416,658.823 L510.621,658.823 L498.759,658.823 C497.097,658.823 498.615,659.807 498.615,657.308 L498.615,650.735 C498.615,649.292 495.318,649.973 495.318,651.116" fill="#65453F" id="path8525"/>
    <path d="M505.344,661.121 C505.035,669.686 503.517,683.231 516.075,682.856 C521.169,682.706 525.939,681.188 527.214,675.776 C528.375,670.85 527.724,665.288 527.457,660.284 C527.388,659.006 524.094,659.735 524.169,661.163 C524.364,664.715 524.466,668.276 524.364,671.825 C524.316,673.475 524.136,675.149 523.755,676.754 C522.876,680.495 518.838,680.84 515.61,680.672 C506.262,680.186 508.437,666.788 508.65,660.797 C508.707,659.243 505.389,659.84 505.344,661.121" fill="#65453F" id="path8527"/>
    <path d="M438.003,147.266 C438.003,148.481 436.092,149.468 433.737,149.468 C431.388,149.468 429.474,148.481 429.474,147.266 C429.474,146.051 431.388,145.067 433.737,145.067 C436.092,145.067 438.003,146.051 438.003,147.266" fill="#FEFEFE" id="path8529"/>
    <path d="M493.389,147.266 C493.389,148.481 491.475,149.468 489.12,149.468 C486.771,149.468 484.86,148.481 484.86,147.266 C484.86,146.051 486.771,145.067 489.12,145.067 C491.475,145.067 493.389,146.051 493.389,147.266" fill="#FEFEFE" id="path8531"/>
    <path d="M65.655,482.984 C65.655,482.984 59.109,493.508 78.855,501.464 C108.333,513.344 142.212,514.664 142.212,514.664 C142.212,514.664 142.653,534.464 140.892,541.061 C140.892,541.061 212.172,553.382 245.61,533.582 C245.61,532.265 249.57,495.302 237.69,477.704 C225.126,459.092 205.569,456.146 194.13,450.866 C191.802,449.792 173.847,435.227 173.847,435.227 C173.847,435.227 129.012,438.986 97.335,451.304 C65.655,463.625 65.655,482.984 65.655,482.984" fill="#D8B888" id="path8533"/>
    <path d="M111.63,535.526 L112.032,613.088 L133.695,613.088 L132.492,534.839 z" fill="#CBBDB8" id="path8535"/>
    <path d="M66.24,659.015 C66.24,659.015 70.653,682.286 53.001,684.29 C35.349,686.294 29.733,679.073 28.53,662.624 L47.787,663.026 z" fill="#8F9DBB" id="path8537"/>
    <path d="M135.642,614.084 L111.171,614.084 C111.171,614.084 105.555,613.682 104.349,618.896 C103.146,624.113 104.349,628.523 104.349,628.523 L36.954,642.566 C36.954,642.566 30.132,644.975 27.723,650.591 C25.317,656.207 24.114,663.026 24.114,663.026 L47.784,663.026 L103.548,650.189 C103.548,650.189 113.976,647.381 121.2,647.381 C128.421,647.381 137.949,648.035 137.949,648.035 L175.011,655.805 L187.794,661.832 C187.794,661.832 186.993,655.808 188.199,653 C189.402,650.189 188.562,647.039 188.562,647.039 L140.055,627.323 C140.055,627.323 144.069,617.696 135.642,614.084" fill="#AB958D" id="path8539"/>
    <path d="M138.348,649.232 L138.15,659.792 L105.471,659.99 L105.87,649.232 C105.87,649.232 110.766,646.979 121.2,647.381 C131.631,647.783 138.348,649.232 138.348,649.232" fill="#8E7269" id="path8541"/>
    <path d="M132.621,660.416 C132.621,660.416 136.02,680.099 126.792,682.505 C117.564,684.914 113.766,680.477 112.962,672.05 C112.161,663.623 112.56,659.612 112.56,659.612 z" fill="#8F9DBB" id="path8543"/>
    <path d="M175.362,660.62 C175.362,660.62 172.155,665.837 176.967,672.257 L198.63,671.855 C198.63,671.855 186.99,667.859 187.797,661.832 z" fill="#8F9DBB" id="path8545"/>
    <path d="M188.481,167.972 C188.481,167.972 200.784,146.444 203.346,110.567 C205.908,74.687 195.657,40.346 134.664,28.559 C134.664,28.559 47.016,3.443 8.064,89.552 C8.064,89.552 -21.663,180.785 48.555,208.463 C48.555,208.463 30.102,221.276 31.641,239.216 C33.177,257.156 71.106,267.407 83.919,273.044 C96.735,278.684 115.185,296.108 115.185,313.025 C115.185,313.025 128.001,289.448 116.211,266.894 C116.211,266.894 126.462,254.081 114.162,239.216 L95.709,232.04 L64.443,211.538 C64.443,211.538 40.866,213.077 34.716,192.575 C28.566,172.073 51.63,163.871 56.244,173.609 C56.244,173.609 76.743,167.462 93.147,128.507 C93.147,128.507 131.589,121.844 154.656,121.331 C175.722,120.86 189.75,126.2 189.75,126.2 C189.75,126.2 194.361,114.413 188.481,100.829 C188.481,100.829 195.144,143.369 188.481,167.972" fill="#B57930" id="path8547"/>
    <path d="M188.997,164.897 C189.51,175.661 190.536,194.111 183.873,207.437 C177.207,220.766 147.993,236.654 142.869,240.242 C137.742,243.83 121.854,240.755 121.854,240.755 C121.854,240.755 121.341,249.98 127.491,253.055 C133.641,256.13 144.918,258.692 144.918,258.692 L150.555,273.557 C150.555,273.557 132.105,279.71 121.854,277.658 L116.214,266.894 C116.214,266.894 120.315,259.205 118.779,250.493 C117.24,241.778 109.551,235.115 109.551,235.115 C109.551,235.115 85.461,226.403 63.423,212.051 C63.423,212.051 49.071,215.126 38.307,199.238 C24.897,179.444 43.944,161.822 56.247,173.609 C56.247,173.609 77.262,168.995 92.637,130.556 C92.637,130.556 140.043,116.462 191.289,126.71 C191.289,126.71 188.484,154.133 188.997,164.897" fill="#FBE1BA" id="path8549"/>
    <path d="M145.941,461.663 C145.941,461.663 151.581,469.862 154.143,471.401 C156.708,472.94 164.397,474.989 166.959,477.554 C169.521,480.116 172.596,484.217 175.155,484.727 C177.723,485.24 178.743,482.165 178.743,482.165 C178.743,482.165 183.873,487.805 188.484,485.24 C193.098,482.678 194.634,475.502 194.634,475.502 C194.634,475.502 201.297,479.09 204.885,473.966 C208.476,468.842 211.035,462.686 208.476,460.124 C205.908,457.565 194.637,447.314 193.098,443.726 C191.562,440.135 190.023,437.063 190.023,437.063 C190.023,437.063 182.334,436.55 180.282,444.236 C178.233,451.925 182.847,461.663 182.847,461.663 L157.221,447.314 C157.221,447.314 153.633,457.049 145.941,461.663" fill="#FBE1BA" id="path8551"/>
    <path d="M164.907,545.717 C164.907,545.717 174.132,638.492 173.619,646.178 C173.106,653.867 169.518,666.164 172.083,670.781 C174.645,675.395 186.945,674.369 186.945,674.369 C186.945,674.369 184.383,650.792 194.634,645.665 C204.885,640.538 215.136,644.129 215.136,644.129 L233.076,538.541 C233.076,538.541 208.986,547.766 164.907,545.717" fill="#FBE1BA" id="path8553"/>
    <path d="M152.091,682.568 C152.091,682.568 155.679,672.83 164.394,673.343 C173.106,673.856 186.945,674.369 186.945,674.369 C186.945,674.369 186.945,651.305 196.683,645.152 C206.421,639.002 218.721,644.639 218.721,644.639 C218.721,644.639 245.886,642.08 253.062,656.942 C260.238,671.804 259.725,678.98 252.549,681.029 C245.373,683.081 152.091,682.568 152.091,682.568" fill="#C8CCDC" id="path8555"/>
    <path d="M67.149,266.234 C67.149,266.234 94.65,274.589 105.255,289.832 C115.86,305.072 115.188,313.025 115.188,313.025 L119.505,308.648 L134.085,414.023 L157.941,444.506 C157.941,444.506 156.615,462.404 130.107,467.702 L110.889,446.495 C110.889,446.495 69.801,457.763 62.511,496.862 C62.511,496.862 56.547,486.92 55.884,467.039 C55.218,447.158 65.16,418.661 61.845,402.092 C58.533,385.526 45.942,319.25 47.268,302.684 C48.591,286.115 49.257,274.85 67.149,266.234" fill="#FDF3EF" id="path8557"/>
    <path d="M140.046,256.292 C140.046,256.292 147.999,257.618 150.651,265.571 C153.3,273.524 162.579,321.239 165.231,344.435 C167.88,367.628 163.242,395.468 164.568,404.081 C165.894,412.694 173.847,435.227 173.847,435.227 L180.474,441.854 C180.474,441.854 185.775,435.887 193.728,437.876 C193.728,436.553 179.808,393.476 179.148,366.968 C178.485,340.46 175.17,293.405 173.847,281.477 C172.521,269.546 159.264,256.292 140.046,256.292" fill="#FDF3EF" id="path8559"/>
    <path d="M57.294,475.502 C57.294,475.502 33.975,480.338 30.894,491.339 L38.814,526.979 C38.814,526.979 41.454,534.026 57.732,533.579 L140.451,535.337 C140.451,535.337 142.212,529.184 142.212,524.339 C142.212,519.5 143.091,513.338 143.091,513.338 C143.091,513.338 77.535,512.897 64.335,489.578 L62.508,496.862 C62.508,496.862 58.173,490.907 57.294,475.502" fill="#8F9DBB" id="path8561"/>
    <path d="M120.213,276.629 C120.213,276.629 140.451,277.508 151.893,272.228 C151.893,272.228 162.012,309.629 163.773,331.628 C165.531,353.627 167.292,374.747 166.41,379.586 C165.531,384.425 163.332,403.343 165.09,409.064 C166.851,414.785 174.333,436.784 174.333,436.784 L153.651,438.542 L133.851,415.664 L118.014,306.989 C118.014,306.989 124.614,290.708 120.213,276.629" fill="#F6C7C6" id="path8563"/>
    <path d="M133.488,156.437 C133.488,156.437 135.69,141.032 118.083,142.133 C100.479,143.234 94.242,168.539 94.242,168.539 C94.242,168.539 92.409,183.209 99.378,186.512 C106.347,189.812 131.655,202.283 133.488,156.437" fill="#FEFEFE" id="path8565"/>
    <path d="M163.929,156.071 C163.929,156.071 165.399,147.629 173.832,147.263 C182.268,146.9 181.167,164.504 178.968,170.372 C176.766,176.243 173.832,189.815 167.964,190.913 C162.096,192.011 161.361,174.776 163.929,156.071" fill="#FEFEFE" id="path8567"/>
    <path d="M219.465,646.097 C234.978,643.472 252.051,649.022 253.926,666.584 C254.373,670.763 254.589,675.338 252.903,679.262 C251.58,682.337 249.258,681.539 246.606,681.539 L233.688,681.539 C233.004,681.539 229.944,682.877 231.555,682.877 C241.977,682.877 256.647,686.489 257.466,672.179 C258.744,649.823 239.559,641.591 220.077,644.885 C218.766,645.107 217.155,646.487 219.465,646.097" fill="#65453F" id="path8569"/>
    <path d="M141.396,534.125 C118.83,534.188 96.246,533.909 73.698,532.958 C64.635,532.577 44.49,535.061 40.389,525.293 C36.816,516.794 35.547,507.008 33.723,498.026 C30.468,481.961 44.139,479.903 57.087,477.563 C58.686,477.272 59.757,475.208 57.504,475.616 C44.568,477.956 28.104,480.233 29.91,496.352 C31.248,508.295 32.256,530.633 46.575,532.922 C77.031,537.791 109.374,536.186 140.148,536.102 C141.447,536.096 143.619,534.122 141.396,534.125" fill="#65453F" id="path8571"/>
    <path d="M131.406,535.268 L131.406,612.863 C131.406,614.471 134.718,613.883 134.718,612.554 L134.718,534.956 C134.718,533.348 131.406,533.939 131.406,535.268" fill="#65453F" id="path8573"/>
    <path d="M110.172,535.766 L110.172,612.833 C110.172,614.561 113.499,614.063 113.499,612.581 L113.499,535.514 C113.499,533.789 110.172,534.287 110.172,535.766" fill="#65453F" id="path8575"/>
    <path d="M173.121,639.287 C164.472,635.714 155.826,632.135 147.177,628.559 C142.659,626.69 141.9,627.587 141.867,623.201 C141.849,620.468 141.927,615.668 138.951,614.165 C132.642,610.982 122.904,613.037 116.106,613.037 C111.735,613.037 102.363,611.471 102.066,618.617 C101.952,621.296 101.325,627.014 102.387,626.771 C98.841,627.59 95.292,628.409 91.746,629.225 C79.983,631.943 68.214,634.658 56.448,637.37 C49.974,638.864 43.251,639.986 36.867,641.807 C27.126,644.582 25.014,654.977 21.489,663.461 C21.072,664.46 22.113,664.871 22.92,664.871 C32.115,664.871 42.354,666.368 51.336,664.193 C66.033,660.623 80.733,657.059 95.43,653.492 C107.925,650.462 120.495,646.325 133.545,649.097 C146.235,651.794 158.922,654.488 171.609,657.185 C173.241,657.53 174.918,655.232 172.74,654.77 C154.794,650.957 131.997,642.191 113.457,646.691 C92.988,651.656 72.516,656.621 52.047,661.592 C43.908,663.563 34.989,662.441 26.646,662.441 C22.524,662.441 25.224,662.432 24.897,663.221 C26.292,659.858 27.735,656.522 29.19,653.192 C31.896,647.006 36.381,644.426 42.237,643.076 C62.706,638.348 83.178,633.626 103.65,628.901 C104.199,628.775 104.982,628.286 105.009,627.641 C105.426,617.636 106.092,615.47 115.821,615.47 C127.086,615.47 138.783,611.555 138.537,627.302 C138.528,627.809 138.801,628.109 139.257,628.301 C149.913,632.708 160.572,637.115 171.228,641.525 C172.632,642.104 175.059,640.091 173.121,639.287" fill="#65453F" id="path8577"/>
    <path d="M27.21,664.676 C27.438,672.629 30.789,681.092 38.763,684.029 C42.804,685.517 48.063,684.695 52.275,684.695 C53.55,684.695 55.758,682.76 53.535,682.76 C49.8,682.76 45.849,683.15 42.147,682.574 C33.855,681.284 30.699,670.853 30.495,663.797 C30.462,662.69 27.171,663.362 27.21,664.676" fill="#65453F" id="path8579"/>
    <path d="M36.717,664.676 C37.038,674.339 43.854,687.719 55.704,684.101 C65.994,680.96 71.541,668.894 67.731,658.973 C67.344,657.974 64.107,658.973 64.443,659.852 C67.461,667.703 63.849,683.528 52.611,682.853 C43.725,682.316 40.242,671.003 40.002,663.797 C39.972,662.951 36.678,663.551 36.717,664.676" fill="#65453F" id="path8581"/>
    <path d="M136.38,650.183 L136.38,659.978 C137.133,659.573 137.889,659.171 138.642,658.769 L116.253,658.769 L106.581,658.769 C106.269,658.769 107.361,660.176 107.361,658.901 L107.361,655.943 L107.361,649.832 C107.361,648.314 104.061,648.956 104.061,650.183 L104.061,659.978 C104.061,660.551 104.547,660.833 105.099,660.833 L137.418,660.833 C138.042,660.833 139.683,660.539 139.683,659.624 L139.683,649.832 C139.683,648.314 136.38,648.956 136.38,650.183" fill="#65453F" id="path8583"/>
    <path d="M130.485,660.155 C130.701,667.643 133.599,682.502 122.004,682.136 C111.801,681.812 114.627,666.578 114.861,659.831 C114.912,658.376 111.606,659.024 111.564,660.206 C111.387,665.378 111.117,670.655 111.639,675.815 C112.257,681.923 116.667,684.485 122.658,684.155 C136.356,683.399 134.055,669.134 133.77,659.276 C133.737,658.124 130.446,658.808 130.485,660.155" fill="#65453F" id="path8585"/>
    <path d="M60.786,211.475 C80.433,225.398 103.743,238.529 127.785,242.615 C145.077,245.552 163.215,229.361 175.386,219.212 C194.169,203.54 189.066,176.609 190.683,154.343 C192.573,128.303 195.195,103.037 183.678,78.584 C183.099,77.354 179.874,78.368 180.393,79.466 C188.025,95.666 190.464,114.296 189.297,131.987 C187.749,155.483 188.223,180.971 184.104,204.14 C182.307,214.235 167.289,223.118 159.762,228.287 C148.338,236.126 137.931,242.678 123.648,239.495 C102.228,234.725 81.12,222.368 63.375,209.792 C62.412,209.111 59.406,210.497 60.786,211.475" fill="#65453F" id="path8587"/>
    <path d="M59.61,174.548 C53.34,162.086 36.579,169.502 33.435,179.987 C27.279,200.51 46.917,212.627 64.536,213.782 C65.289,213.83 68.325,212.471 66.645,212.36 C51.972,211.397 38.211,204.632 36.006,188.888 C35.367,184.31 36.234,179.558 38.235,175.421 C41.736,168.182 52.776,168.377 56.325,175.43 C56.763,176.303 59.916,175.157 59.61,174.548" fill="#65453F" id="path8589"/>
    <path d="M41.709,185.315 C47.025,183.911 52.095,187.442 53.625,192.995 C53.91,194.03 57.195,193.139 56.91,192.116 C54.945,184.976 48.24,182.03 41.319,183.857 C39.36,184.373 39.756,185.831 41.709,185.315" fill="#65453F" id="path8591"/>
    <path d="M167.481,60.038 C181.713,73.298 188.487,93.611 188.898,112.592 C188.877,115.604 188.676,118.604 188.304,121.595 C187.929,125.534 190.851,125.126 186.264,124.331 C179.967,123.242 173.616,122.507 167.268,121.817 C155.916,120.581 145.185,120.764 133.854,122.009 C123.522,123.143 113.256,124.937 103.041,126.812 C99.555,127.454 96.078,128.141 92.607,128.849 C90.144,129.35 92.664,130.466 91.467,126.611 C82.197,96.776 99.498,68.96 125.763,55.442 C127.755,54.419 125.97,52.547 124.284,53.414 C95.892,68.027 77.067,99.02 89.304,130.871 C89.616,131.681 90.516,131.762 91.263,131.603 C124.05,124.658 155.427,121.037 188.682,127.433 C189.558,127.601 190.761,127.031 190.908,126.086 C194.646,101.969 188.391,75.23 170.001,58.094 C168.885,57.053 166.059,58.715 167.481,60.038" fill="#65453F" id="path8593"/>
    <path d="M89.316,130.679 C83.955,148.166 71.532,163.934 56.619,174.185 C55.17,175.181 58.488,174.992 59.193,174.506 C74.388,164.06 87.12,148.001 92.58,130.184 C92.865,129.254 89.613,129.713 89.316,130.679" fill="#65453F" id="path8595"/>
    <path d="M136.254,30.047 C158.115,32.708 179.889,44.564 192.15,62.96 C205.482,82.958 202.17,110.726 198.531,133.106 C196.731,144.209 193.821,156.296 188.217,166.178 C187.371,167.666 190.698,167.474 191.316,166.391 C197.067,156.242 199.728,144.08 201.84,132.767 C205.824,111.431 208.353,83.792 196.731,64.208 C184.518,43.625 160.98,30.8 137.466,27.938 C136.035,27.764 134.034,29.777 136.254,30.047" fill="#65453F" id="path8597"/>
    <path d="M136.425,28.667 C98.499,16.811 52.326,28.49 25.713,58.046 C-10.101,97.823 -11.871,181.835 41.973,208.586 C42.867,209.03 45.9,207.707 44.607,207.062 C-1.239,184.286 -6.201,114.377 16.434,74.126 C38.544,34.805 91.389,16.934 133.791,30.191 C134.733,30.485 137.703,29.066 136.425,28.667" fill="#65453F" id="path8599"/>
    <path d="M47.922,207.866 C29.535,216.815 21.513,245.87 41.826,256.319 C67.455,269.501 112.659,277.283 113.766,313.301 C113.817,315.026 116.46,314.675 117.018,313.43 C123.393,299.21 125.331,282.218 118.593,267.875 C117.666,265.907 111.594,260.597 111.354,258.662 C111.099,256.586 110.433,254.381 109.503,252.518 C105.807,245.108 100.299,241.595 92.418,239.726 C90.714,239.321 89.157,241.748 91.32,242.261 C100.512,244.442 105.912,249.812 107.922,258.668 C109.26,264.566 115.797,269 117.984,275.348 C121.992,286.967 118.749,302.045 113.853,312.965 C114.936,313.007 116.022,313.052 117.105,313.094 C116.334,288.011 93.744,275.639 73.236,266.651 C62.379,261.896 50.706,258.398 40.578,252.143 C25.02,242.54 35.667,216.659 49.422,209.966 C51.435,208.988 49.644,207.029 47.922,207.866" fill="#65453F" id="path8601"/>
    <path d="M95.997,232.094 C100.848,232.937 105.558,235.277 109.413,238.265 C118.632,245.411 118.638,256.976 115.365,267.218 C115.068,268.142 118.317,267.695 118.626,266.726 C122.091,255.896 121.656,244.787 112.485,237.059 C108.522,233.72 103.167,231.41 98.064,230.525 C97.194,230.372 94.224,231.785 95.997,232.094" fill="#65453F" id="path8603"/>
    <path d="M166.26,111.632 C166.356,120.83 174.645,127.871 182.34,131.234 C183.336,131.669 186.336,130.232 184.95,129.626 C177.498,126.368 169.638,119.639 169.548,110.75 C169.536,109.694 166.248,110.336 166.26,111.632" fill="#65453F" id="path8605"/>
    <path d="M137.079,110.726 C130.494,122.492 113.922,124.268 102.081,123.389 C100.845,123.296 98.58,125.063 100.8,125.228 C113.982,126.206 132.822,123.848 140.136,110.783 C140.892,109.43 137.595,109.802 137.079,110.726" fill="#65453F" id="path8607"/>
    <path d="M165.195,156.113 C166.128,150.185 173.28,144.671 176.541,152.15 C178.932,157.634 178.566,165.068 177.165,170.774 C176.769,172.406 180.138,172.028 180.501,170.543 C181.977,164.516 183.321,149.426 175.782,146.399 C168.975,143.669 162.858,150.023 161.862,156.344 C161.595,158.045 164.955,157.631 165.195,156.113" fill="#65453F" id="path8609"/>
    <path d="M169.065,155.702 C169.065,155.702 165.762,155.702 165.027,161.939 C164.286,168.26 161.346,188.585 167.901,190.331 C171.912,191.402 173.4,156.644 169.065,155.702" fill="#65453F" id="path8611"/>
    <path d="M169.14,155.111 C162.573,155.669 163.35,168.911 163.05,173.303 C162.864,176.027 161.868,192.635 168.36,190.895 C172.89,189.68 172.299,176.909 172.443,173.705 C172.605,170.057 174.039,157.109 169.539,155.156 C168.864,154.862 167.631,155.831 168.588,156.248 C171.582,157.547 170.838,167.423 170.856,169.742 C170.901,175.181 170.535,180.719 169.452,186.053 C168.666,189.902 166.59,189.422 165.402,185.828 C164.406,182.807 164.538,179.384 164.577,176.252 C164.619,173.159 164.604,156.665 168.987,156.293 C169.902,156.215 170.262,155.015 169.14,155.111" fill="#65453F" id="path8613"/>
    <path d="M136.314,154.913 C135.312,142.103 120.342,138.332 110.052,142.865 C99.966,147.308 94.152,157.862 93.225,168.614 C93.084,170.237 96.423,169.724 96.543,168.326 C97.173,161.021 100.23,153.743 105.375,148.517 C113.967,139.793 131.964,142.199 133.029,155.792 C133.14,157.199 136.434,156.425 136.314,154.913" fill="#65453F" id="path8615"/>
    <path d="M111.936,188.147 C112.911,190.502 118.986,190.673 122.484,187.613 C125.982,184.553 130.554,153.137 120.648,153.137 C112.029,153.137 106.689,175.466 111.936,188.147" fill="#65453F" id="path8617"/>
    <path d="M111.171,188.459 C114.756,193.193 123.03,189.32 124.779,184.745 C127.797,176.852 128.631,166.046 126.426,157.871 C124.851,152.027 119.481,151.505 115.437,155.27 C107.526,162.644 107.676,179.117 111.114,188.366 C111.315,188.906 112.941,188.42 112.758,187.925 C110.1,180.776 110.268,173.147 111.912,165.773 C112.665,162.386 114.045,159.137 116.055,156.311 C119.535,151.424 123.381,154.217 124.785,158.312 C126.54,163.442 125.916,169.541 125.316,174.803 C125.037,177.272 124.563,179.72 123.984,182.138 C123.753,183.095 123.456,184.031 123.141,184.967 C122.058,188.198 117.675,194.402 112.701,187.832 C112.383,187.415 110.799,187.967 111.171,188.459" fill="#65453F" id="path8619"/>
    <path d="M139.212,228.614 C142.275,228.467 145.335,228.32 148.395,228.176 C149.28,228.131 151.986,226.715 149.808,226.817 C146.748,226.964 143.688,227.111 140.628,227.258 C139.74,227.3 137.034,228.719 139.212,228.614" fill="#65453F" id="path8621"/>
    <path d="M119.808,240.473 C120.009,247.94 120.168,251.666 127.035,254.339 C134.25,257.144 143.511,256.385 146.514,263.951 C154.92,285.128 159.951,307.31 161.595,330.005 C162.93,348.41 164.553,366.794 166.569,385.139 C168.183,399.827 168.105,419.687 175.446,432.971 C175.944,433.877 179.067,432.698 178.731,432.092 C171.819,419.582 171.825,401.198 170.208,387.374 C168,368.522 166.404,349.592 164.994,330.665 C163.317,308.174 158.556,286.619 150.714,265.445 C148.665,259.916 149.106,258.764 143.784,257.309 C132.378,254.189 123.456,253.04 123.096,239.591 C123.075,238.892 119.781,239.444 119.808,240.473" fill="#65453F" id="path8623"/>
    <path d="M118.608,277.196 C129.579,278.756 141.15,276.86 151.515,273.245 C153.72,272.48 151.641,271.916 150.342,272.372 C141.009,275.624 130.587,277.163 120.714,275.756 C119.943,275.651 116.907,276.953 118.608,277.196" fill="#65453F" id="path8625"/>
    <path d="M130.995,256.247 C149.157,255.056 165.804,263.804 171.771,281.513 C174.81,290.534 174.219,301.91 174.798,311.288 C176.247,334.844 175.725,358.916 179.286,382.28 C181.083,394.061 183.741,405.746 186.252,417.389 C187.269,422.108 188.316,426.815 189.369,431.528 C190.407,436.16 189.642,437.516 192.759,437.594 C178.536,437.231 172.818,446.987 181.755,460.067 C182.34,460.922 185.526,459.854 184.815,458.813 C180.261,452.147 180.06,439.067 192.039,439.373 C192.618,439.391 194.547,438.977 194.334,438.053 C186.834,405.383 181.197,373.916 179.604,340.424 C178.686,321.14 178.713,301.331 175.404,282.266 C171.957,262.412 150.453,253.292 132.303,254.489 C131.172,254.564 128.796,256.394 130.995,256.247" fill="#65453F" id="path8627"/>
    <path d="M164.892,280.37 C164.46,289.289 162.225,300.143 164.52,308.864 C165.669,313.226 168.132,317.324 169.491,321.659 C172.395,330.923 171.285,340.835 170.943,350.372 C169.95,377.927 167.967,410.054 176.361,436.643 C176.712,437.75 179.982,436.823 179.649,435.764 C171.018,408.428 173.316,375.146 174.33,346.901 C174.786,334.247 174.417,323.129 169.185,311.381 C165.036,302.072 167.691,289.901 168.171,279.935 C168.234,278.636 164.943,279.326 164.892,280.37" fill="#65453F" id="path8629"/>
    <path d="M65.937,282.446 C73.404,284.882 83.532,288.704 87.372,295.94 C90.726,302.267 92.502,309.68 94.548,316.493 C100.074,334.931 104.667,353.636 110.052,372.119 C114.489,387.35 121.122,399.608 130.329,412.547 C135.666,420.053 141.387,427.289 147.162,434.465 C148.257,435.83 156.9,444.368 156.579,445.79 C154.641,454.376 146.73,460.349 139.317,463.979 C130.338,468.38 126.762,461.261 120.063,455.027 C104.898,440.918 89.865,425.522 81.858,406.136 C70.563,378.791 63.957,348.926 57.564,320.102 C57.303,318.914 54.006,319.757 54.279,320.981 C57.387,334.997 60.882,348.929 64.59,362.795 C69.435,380.906 73.806,401.888 83.772,418.037 C95.511,437.051 112.467,452.936 129.339,467.393 C136.476,473.513 153.465,457.274 157.179,451.601 C163.398,442.094 152.196,435.689 146.289,428.261 C132.927,411.485 120.501,394.688 114.168,374.018 C107.655,352.775 102.63,331.106 96.087,309.869 C91.023,293.423 85.23,286.253 67.935,280.613 C66.858,280.259 64.074,281.84 65.937,282.446" fill="#65453F" id="path8631"/>
    <path d="M66.276,265.679 C34.299,281.033 47.268,319.352 51.033,347.174 C54.264,371.042 61.359,395.462 59.721,419.597 C57.981,445.289 48.945,472.526 60.24,497.225 C60.72,498.269 63.402,497.681 63.528,496.586 C66.423,471.38 86.817,453.215 110.964,448.556 C112.527,448.253 113.652,446.243 111.399,446.675 C85.875,451.604 63.357,469.835 60.24,496.985 C61.335,496.769 62.43,496.556 63.528,496.346 C53.079,473.495 59.937,447.503 62.601,423.635 C64.713,404.696 60.633,387.356 57.642,368.792 C54.519,349.412 51.966,329.921 50.061,310.385 C48.255,291.896 47.649,276.662 67.59,267.089 C69.645,266.102 67.761,264.965 66.276,265.679" fill="#65453F" id="path8633"/>
    <path d="M116.709,305.789 C123.153,342.254 129.057,378.992 132.411,415.88 C132.54,417.305 135.834,416.522 135.696,415.001 C132.342,378.11 126.438,341.375 119.997,304.91 C119.739,303.461 116.445,304.292 116.709,305.789" fill="#65453F" id="path8635"/>
    <path d="M164.865,371.612 C163.701,383.66 161.322,397.232 163.929,409.184 C165.645,417.059 168.597,424.778 171.222,432.383 C172.419,435.851 174.111,433.601 171.597,433.838 C165.333,434.429 159.111,435.323 152.904,436.367 C151.113,436.67 150.396,439.166 152.616,438.794 C159.624,437.615 166.653,436.661 173.73,436.04 C174.429,435.977 175.857,435.347 175.518,434.387 C172.005,424.463 167.136,413.669 166.482,403.079 C165.837,392.612 167.187,381.785 168.195,371.366 C168.36,369.659 165.009,370.112 164.865,371.612" fill="#65453F" id="path8637"/>
    <path d="M194.631,475.685 C201.012,479.942 207.543,477.005 209.382,469.727 C213.15,454.787 195.303,450.002 192.501,438.053 C192.153,436.577 188.865,437.441 189.213,438.932 C190.662,445.106 194.961,448.028 199.434,452.441 C202.911,455.873 205.275,459.689 206.184,464.522 C207.114,469.484 204.804,478.916 197.175,473.828 C196.008,473.051 193.101,474.662 194.631,475.685" fill="#65453F" id="path8639"/>
    <path d="M156.756,446.972 C163.572,452.477 171.909,455.705 179.742,459.482 C186.039,462.521 191.001,465.905 192.903,472.994 C193.944,476.87 192.252,484.25 186.894,484.04 C184.752,483.956 182.442,483.023 180.366,482.501 C179.184,482.204 176.475,483.968 178.398,484.451 C182.343,485.441 186.72,487.157 190.71,485.387 C195.6,483.215 196.839,476.861 196.191,472.112 C195.189,464.765 188.295,460.688 182.322,457.778 C174.717,454.064 166.44,450.989 159.792,445.625 C158.799,444.821 155.727,446.144 156.756,446.972" fill="#65453F" id="path8641"/>
    <path d="M182.904,466.109 C182.28,465.839 183.414,466.433 183.591,466.547 C184.446,467.114 185.193,467.816 185.907,468.548 C188.862,471.569 190.836,475.463 192.423,479.327 C192.993,480.713 196.251,479.759 195.711,478.448 C193.59,473.294 190.341,466.412 184.833,464.018 C183.558,463.463 181.014,465.29 182.904,466.109" fill="#65453F" id="path8643"/>
    <path d="M177.69,470.027 C183.198,472.541 186.171,479.864 187.65,485.27 C187.902,486.191 191.187,485.303 190.935,484.391 C189.363,478.643 186.219,471.296 180.354,468.62 C179.547,468.254 176.526,469.496 177.69,470.027" fill="#65453F" id="path8645"/>
    <path d="M170.691,473.096 C174.402,474.509 175.983,479.21 176.895,482.648 C178.278,487.871 171.72,480.353 170.931,479.036 C170.016,477.521 169.599,476.57 168.078,475.571 C164.223,473.024 158.55,473.687 154.38,471.068 C150.873,468.863 149.691,463.937 146.049,461.804 C145.227,461.324 142.515,462.668 142.947,462.923 C145.47,464.402 147.192,467.408 148.824,469.685 C150.972,472.667 154.206,473.942 157.593,474.935 C160.941,475.919 165.087,475.544 167.097,478.883 C168.783,481.691 170.727,485.09 174.231,485.906 C184.743,488.342 179.331,474.08 173.388,471.818 C172.656,471.539 169.701,472.721 170.691,473.096" fill="#65453F" id="path8647"/>
    <path d="M64.011,483.845 C52.611,506.849 129.75,514.772 142.047,515.711 C143.427,515.816 145.503,513.83 143.274,513.659 C131.961,512.792 57,504.404 67.098,484.028 C67.854,482.504 64.545,482.768 64.011,483.845" fill="#65453F" id="path8649"/>
    <path d="M141.96,505.79 C139.272,511.961 141.243,518.285 140.562,524.759 C139.95,530.576 139.335,536.387 138.723,542.201 C138.783,542.321 138.882,542.39 139.023,542.411 C173.328,548.51 213.471,549.554 245.508,534.197 C245.787,534.062 246.177,533.87 246.198,533.519 C247.248,515.42 248.4,491.669 238.377,475.886 C231.039,464.333 215.94,456.635 203.43,452.006 C202.683,451.73 199.725,452.933 200.739,453.308 C216.093,458.984 233.631,469.085 239.238,485.288 C243.27,496.934 243.114,510.752 243.207,522.929 C243.234,526.625 243.12,530.333 242.934,534.023 C242.739,537.881 218.664,541.817 215.28,542.417 C192.483,546.476 168.288,545.039 145.461,541.715 C139.626,540.863 142.5,536.672 143.082,531.152 C143.499,527.189 144.12,523.406 144.777,519.482 C145.611,514.523 142.833,510.668 145.203,505.223 C145.461,504.635 142.332,504.935 141.96,505.79" fill="#65453F" id="path8651"/>
    <path d="M34.539,493.094 C35.274,496.004 38.73,498.152 41.199,499.31 C52.731,504.728 66.837,503.876 79.17,503 C80.994,502.868 81.729,500.51 79.482,500.666 C67.851,501.497 55.05,502.205 44.04,497.588 C41.871,496.676 38.469,494.762 37.824,492.215 C37.452,490.739 34.164,491.612 34.539,493.094" fill="#65453F" id="path8653"/>
    <path d="M193.398,461.663 C195.687,465.869 197.763,472.394 199.278,477.515 C199.662,478.811 202.944,477.911 202.566,476.636 C200.931,471.119 199.197,465.398 196.434,460.316 C195.852,459.245 192.669,460.325 193.398,461.663" fill="#65453F" id="path8655"/>
    <path d="M171.069,435.395 C175.047,436.451 176.982,440.882 178.194,444.44 C178.671,445.829 181.944,444.905 181.482,443.561 C180.039,439.337 177.675,434.564 173.007,433.328 C171.717,432.983 169.113,434.876 171.069,435.395" fill="#65453F" id="path8657"/>
    <path d="M198.852,457.754 C201.501,463.139 202.83,469.268 203.442,475.19 C203.547,476.207 206.85,475.502 206.727,474.317 C206.115,468.389 204.789,462.254 202.14,456.875 C201.606,455.789 198.414,456.86 198.852,457.754" fill="#65453F" id="path8659"/>
    <path d="M204.348,544.679 C200.4,578.243 195.597,611.924 193.332,645.653 C193.227,647.204 196.554,646.631 196.641,645.326 C198.903,611.6 203.709,577.919 207.657,544.352 C207.837,542.828 204.501,543.365 204.348,544.679" fill="#65453F" id="path8661"/>
    <path d="M163.509,545.873 C165.381,569.72 167.313,593.561 169.401,617.387 C170.343,628.142 171.312,638.609 171.312,649.403 C171.312,658.25 165.822,668.057 174.18,674.114 C175.083,674.771 178.071,673.463 177.237,672.86 C170.895,668.261 174.597,653.618 174.597,645.707 C174.597,634.85 173.358,624.17 172.41,613.346 C170.412,590.573 168.585,567.788 166.797,544.997 C166.716,543.998 163.416,544.682 163.509,545.873" fill="#65453F" id="path8663"/>
    <path d="M231.966,538.802 C226.251,552.71 225.309,570.362 222.588,585.032 C218.997,604.385 214.536,624.107 213.054,643.769 C212.925,645.509 216.273,645.062 216.39,643.535 C217.788,624.935 221.979,606.314 225.33,587.993 C228.153,572.567 229.113,553.82 235.116,539.213 C235.845,537.437 232.536,537.416 231.966,538.802" fill="#65453F" id="path8665"/>
    <path d="M187.908,673.967 C187.611,668.507 188.142,663.089 189.18,657.734 C193.212,636.944 219.552,643.088 229.533,655.973 C233.52,661.118 237.843,681.257 227.745,681.257 L209.889,681.257 L162.327,681.257 L157.005,681.257 L155.841,681.257 C155.973,681.068 156.105,680.885 156.237,680.696 C158.064,675.707 161.358,673.67 166.122,674.585 C172.602,674.348 179.172,674.813 185.631,675.359 C186.915,675.467 189.117,673.643 186.897,673.454 C181.71,673.016 147.18,668.117 153.411,682.649 C153.579,683.039 154.023,683.159 154.422,683.159 L203.163,683.159 C208.824,683.159 231.894,687.323 235.281,679.166 C244.752,656.354 220.755,639.77 200.253,642.266 C185.556,644.051 183.987,663.167 184.62,674.846 C184.68,675.944 187.977,675.26 187.908,673.967" fill="#65453F" id="path8667"/>
    <path d="M113.775,180.275 C113.775,181.49 111.867,182.477 109.512,182.477 C107.157,182.477 105.246,181.49 105.246,180.275 C105.246,179.06 107.157,178.076 109.512,178.076 C111.867,178.076 113.775,179.06 113.775,180.275" fill="#FEFEFE" id="path8669"/>
    <path d="M167.691,180.275 C167.691,181.49 165.78,182.477 163.428,182.477 C161.07,182.477 159.159,181.49 159.159,180.275 C159.159,179.06 161.07,178.076 163.428,178.076 C165.78,178.076 167.691,179.06 167.691,180.275" fill="#FEFEFE" id="path8671"/>
    <path d="M146.703,53.939 C146.703,53.939 171.303,76.487 167.202,123.635" fill-opacity="0" stroke="#65453F" stroke-width="1.701" id="path8673"/>
    <path d="M138.501,53.939 C138.501,53.939 122.613,68.801 124.665,124.148" fill-opacity="0" stroke="#65453F" stroke-width="1.701" id="path8675"/>
  </g>
</svg>
