<?xml version="1.0" encoding="UTF-8"?>
<!DOCTYPE svg PUBLIC "-//W3C//DTD SVG 1.1//EN" "http://www.w3.org/Graphics/SVG/1.1/DTD/svg11.dtd">
<svg version="1.1" xmlns="http://www.w3.org/2000/svg" xmlns:xlink="http://www.w3.org/1999/xlink" x="0" y="0" width="276.055" height="574.984" viewBox="0, 0, 276.055, 574.984">
  <defs>
    <clipPath id="Clip_1">
      <path d="M-28.796,91.336 L285.626,91.336 L285.626,574.984 L-28.796,574.984 z"/>
    </clipPath>
    <clipPath id="Clip_2">
      <path d="M-28.796,91.336 L285.626,91.336 L285.626,574.984 L-28.796,574.984 z"/>
    </clipPath>
    <clipPath id="Clip_3">
      <path d="M-28.796,91.336 L285.626,91.336 L285.626,574.984 L-28.796,574.984 z"/>
    </clipPath>
    <clipPath id="Clip_4">
      <path d="M131.15,321 L130.134,327.101 L131.4,496.156 L196.064,498.805 L204.001,343.758 z"/>
    </clipPath>
    <clipPath id="Clip_5">
      <path d="M104.962,319.898 L106.681,329.367 L96.079,447.39 L64.939,459.586 L43.626,441.148 L69.423,324.484 z"/>
    </clipPath>
    <radialGradient id="Gradient_1" gradientUnits="userSpaceOnUse" cx="346.74" cy="284.779" r="20.011" gradientTransform="matrix(1, 0, 0, 0.982, -179.673, -23.404)">
      <stop offset="0" stop-color="#E49293"/>
      <stop offset="1" stop-color="#E49293" stop-opacity="0"/>
    </radialGradient>
    <radialGradient id="Gradient_2" gradientUnits="userSpaceOnUse" cx="236.448" cy="297.497" r="20.009" gradientTransform="matrix(1, 0, 0, 0.983, -179.673, -23.21)">
      <stop offset="0" stop-color="#E49293"/>
      <stop offset="1" stop-color="#E49293" stop-opacity="0"/>
    </radialGradient>
  </defs>
  <g id="Layer_1">
    <path d="M223.012,33.813 C223.161,34.187 223.167,34.359 223.17,34.462 C223.166,34.582 223.158,34.641 223.082,34.803 C222.978,35.031 222.628,35.467 222.063,35.798 C221.508,36.135 220.806,36.32 220.295,36.312 C220.06,36.312 219.861,36.281 219.692,36.233 C219.521,36.184 219.376,36.12 219.215,36.016 L219.218,36.018 C218.931,35.83 218.708,35.63 218.497,35.382 C218.186,35.012 217.894,34.513 217.663,33.802 C217.434,33.095 217.282,32.184 217.283,31.133 C217.279,29.622 217.601,27.837 218.281,26.086 C219.295,23.446 221.087,20.941 223.392,19.207 C224.548,18.334 225.832,17.634 227.28,17.14 C228.729,16.648 230.349,16.355 232.234,16.353 C233.422,16.353 234.715,16.472 236.13,16.75 L236.133,16.75 C240.019,17.511 243.157,18.609 245.641,19.869 C249.372,21.773 251.629,23.976 253.062,26.243 C253.777,27.384 254.287,28.56 254.631,29.794 C254.974,31.028 255.147,32.322 255.147,33.679 C255.148,35.767 254.729,38.007 253.869,40.26 C252.584,43.639 250.295,47.024 247.18,49.836 C244.065,52.653 240.156,54.899 235.624,56.148 L235.627,56.147 C229.576,57.81 224.538,60.373 220.487,63.296 C214.397,67.685 210.558,72.812 208.237,76.864 C205.912,80.928 205.063,83.951 204.922,84.465 C203.756,88.828 206.346,93.31 210.709,94.477 C215.072,95.644 219.554,93.053 220.721,88.691 L215.758,87.363 L220.698,88.773 L220.721,88.69 L215.758,87.363 L220.698,88.773 L219.763,88.506 L220.696,88.781 L220.698,88.773 L219.763,88.506 L220.696,88.781 C220.697,88.748 221.72,85.418 224.595,81.783 C226.033,79.958 227.92,78.043 230.405,76.31 C232.896,74.579 235.987,73.014 239.969,71.914 L239.972,71.913 C249.387,69.314 257.198,63.934 262.698,57.176 C265.45,53.792 267.634,50.054 269.148,46.091 C270.659,42.13 271.5,37.935 271.501,33.679 C271.502,30.003 270.865,26.279 269.499,22.721 C268.477,20.054 267.046,17.486 265.22,15.122 C262.482,11.57 258.866,8.497 254.516,6.071 C250.162,3.641 245.079,1.839 239.276,0.702 L239.279,0.702 C236.877,0.231 234.521,0 232.234,0 C227.399,-0.005 222.88,1.048 218.957,2.888 C216.012,4.265 213.402,6.07 211.166,8.144 C207.81,11.258 205.284,14.959 203.567,18.878 C201.856,22.802 200.935,26.958 200.929,31.133 C200.931,34.566 201.563,38.041 203.068,41.307 C203.821,42.936 204.796,44.505 206.005,45.935 C207.212,47.365 208.654,48.653 210.284,49.716 L210.288,49.718 C211.845,50.734 213.52,51.481 215.215,51.962 C216.911,52.445 218.625,52.666 220.295,52.666 C222.745,52.664 225.1,52.198 227.283,51.369 C230.553,50.118 233.486,48.062 235.747,45.205 C236.872,43.776 237.819,42.138 238.484,40.321 C239.15,38.508 239.526,36.513 239.524,34.462 C239.527,32.184 239.059,29.853 238.162,27.655 C236.461,23.471 231.691,21.458 227.508,23.159 C223.324,24.86 221.312,29.63 223.012,33.813" fill="#E15F57" id="path850"/>
    <path d="M210.728,106.023 C210.197,109.969 206.579,112.758 202.634,112.219 C198.689,111.695 195.908,108.07 196.431,104.117 C196.954,100.18 200.579,97.398 204.533,97.922 C208.478,98.453 211.251,102.078 210.728,106.023" fill="#E15F57" id="path852"/>
    <path d="M9.376,215.195 C9.376,215.195 9.978,259.68 22.915,286.195 C35.845,312.703 9.353,317.875 14.4,351.164 C18.329,377.109 39.587,390.695 63.329,386.828 C63.329,386.828 44.103,395.961 66.04,401.031 C87.97,406.094 139.759,393.937 139.759,393.937 L113.634,204.359 L9.376,215.195" fill="#48402C" id="path854"/>
    <path d="M9.376,215.195 L7.305,215.223 C7.306,215.273 7.457,226.456 9.238,241.004 C10.129,248.278 11.427,256.394 13.326,264.394 C15.227,272.393 17.724,280.275 21.054,287.103 C23.532,292.191 24.436,296.299 24.439,299.934 C24.437,303.167 23.72,306.073 22.584,309.022 C20.888,313.441 18.203,317.907 15.885,323.276 C13.571,328.643 11.675,334.942 11.68,342.917 C11.68,345.575 11.888,348.417 12.352,351.474 C14.155,363.423 19.556,372.997 27.223,379.53 C34.885,386.069 44.773,389.552 55.422,389.549 C58.126,389.549 60.88,389.325 63.662,388.872 L63.329,386.828 L62.441,384.957 C62.373,384.991 60.341,385.951 58.209,387.507 C57.142,388.291 56.043,389.219 55.137,390.341 C54.686,390.905 54.28,391.521 53.973,392.215 C53.668,392.908 53.463,393.69 53.463,394.53 C53.457,395.486 53.748,396.488 54.305,397.357 C55.145,398.67 56.469,399.702 58.286,400.618 C60.112,401.531 62.477,402.332 65.574,403.049 C69.594,403.974 74.387,404.333 79.621,404.335 C92.176,404.332 107.277,402.232 119.293,400.141 C131.304,398.049 140.206,395.96 140.232,395.954 C141.273,395.71 141.957,394.713 141.811,393.654 L115.686,204.076 C115.533,202.968 114.533,202.183 113.42,202.299 L9.162,213.135 C8.099,213.245 7.291,214.154 7.305,215.223 L9.376,215.195 L9.59,217.255 L111.855,206.627 L137.707,394.22 L139.759,393.937 L139.286,391.921 C139.285,391.921 139.154,391.952 138.891,392.012 C136.925,392.463 127.805,394.514 116.318,396.448 C104.837,398.383 90.97,400.195 79.621,400.192 C74.585,400.194 70.045,399.832 66.506,399.013 C62.666,398.131 60.242,397.112 58.964,396.233 C58.322,395.796 57.975,395.411 57.805,395.141 C57.637,394.864 57.611,394.714 57.606,394.53 C57.606,394.369 57.644,394.161 57.765,393.885 C57.97,393.406 58.452,392.762 59.102,392.14 C60.073,391.199 61.382,390.305 62.428,389.68 C62.952,389.365 63.41,389.115 63.732,388.946 C63.893,388.861 64.02,388.797 64.104,388.755 L64.197,388.709 L64.217,388.7 L64.218,388.699 C65.15,388.256 65.614,387.196 65.307,386.211 C65,385.226 64.015,384.618 62.997,384.783 C60.429,385.201 57.898,385.406 55.422,385.406 C45.667,385.402 36.787,382.24 29.911,376.378 C23.04,370.51 18.131,361.928 16.448,350.854 C16.013,347.99 15.823,345.359 15.823,342.917 C15.824,338.034 16.582,333.911 17.724,330.202 C19.436,324.642 22.049,320.009 24.337,315.294 C25.478,312.937 26.535,310.557 27.313,308.03 C28.09,305.505 28.582,302.828 28.582,299.934 C28.584,295.588 27.47,290.801 24.777,285.287 C21.638,278.857 19.208,271.235 17.357,263.436 C14.578,251.737 13.094,239.642 12.313,230.492 C11.922,225.916 11.705,222.076 11.587,219.384 C11.527,218.038 11.492,216.979 11.473,216.259 C11.462,215.899 11.456,215.624 11.452,215.44 C11.449,215.255 11.448,215.167 11.447,215.167 L9.376,215.195 L9.59,217.255 L9.376,215.195" fill="#48402C" id="path856"/>
    <path d="M68.447,341.328 C68.447,341.328 49.704,348.062 36.665,371.226 C25.689,390.742 -13.514,470.094 8.829,486.523 C57.869,522.578 60.392,418.664 60.392,418.664 L68.447,341.328" fill="#D2D0C9" id="path858"/>
    <path d="M68.447,341.328 L67.801,339.532 C67.671,339.58 62.825,341.334 56.326,346.046 C49.828,350.756 41.676,358.434 35.003,370.29 C30.651,378.029 21.982,394.932 14.365,413.696 C10.558,423.077 7.016,432.919 4.417,442.321 C1.821,451.728 0.156,460.684 0.152,468.382 C0.154,472.608 0.654,476.463 1.842,479.819 C3.026,483.168 4.938,486.034 7.699,488.06 C11.43,490.803 14.938,492.789 18.26,494.098 C21.581,495.405 24.72,496.032 27.671,496.032 C31.924,496.038 35.749,494.71 39.025,492.455 C41.897,490.482 44.368,487.823 46.52,484.718 C50.282,479.282 53.092,472.465 55.252,465.282 C58.485,454.509 60.236,442.898 61.192,433.955 C62.145,425.015 62.298,418.748 62.299,418.71 L60.392,418.664 L62.29,418.861 L70.344,341.525 C70.412,340.872 70.14,340.232 69.624,339.826 C69.107,339.421 68.42,339.31 67.801,339.532 L68.447,341.328 L66.549,341.13 L58.494,418.466 L58.484,418.618 C58.484,418.618 58.483,418.683 58.479,418.821 C58.416,420.962 57.712,439.694 53.344,457.713 C51.169,466.718 48.059,475.536 43.798,481.933 C41.671,485.135 39.271,487.721 36.608,489.482 C33.94,491.242 31.032,492.211 27.671,492.216 C25.262,492.216 22.606,491.707 19.658,490.547 C16.711,489.388 13.478,487.574 9.96,484.986 C7.909,483.474 6.437,481.343 5.439,478.543 C4.445,475.749 3.967,472.304 3.968,468.382 C3.964,461.235 5.549,452.539 8.095,443.338 C15.721,415.712 31.93,383.523 38.328,372.162 C44.694,360.854 52.432,353.584 58.566,349.135 C61.632,346.912 64.295,345.397 66.176,344.444 C67.117,343.968 67.862,343.631 68.364,343.418 C68.615,343.31 68.805,343.234 68.928,343.186 L69.062,343.134 L69.09,343.124 L69.092,343.123 L68.447,341.328 L66.549,341.13 L68.447,341.328" fill="#D2D0C9" id="path860"/>
    <path d="M210.619,195.32 C210.619,195.32 216.665,239.398 207.829,267.547 C199.001,295.687 225.97,296.844 225.954,330.515 C225.931,356.765 206.947,373.375 182.892,373.086 C182.892,373.086 203.267,379.242 182.337,387.531 C161.4,395.812 108.384,391.531 108.384,391.531 L105.908,200.172 L210.619,195.32" fill="#48402C" id="path862"/>
    <path d="M210.619,195.32 L208.566,195.602 C208.566,195.602 208.573,195.652 208.587,195.76 C208.802,197.386 210.567,211.297 210.566,227.894 C210.572,240.821 209.48,255.395 205.853,266.926 C204.56,271.047 203.982,274.686 203.982,277.985 C203.975,283.024 205.353,287.226 207.331,290.963 C208.813,293.772 210.617,296.342 212.456,298.947 C215.219,302.855 218.061,306.837 220.219,311.775 C222.374,316.714 223.878,322.62 223.882,330.485 L223.885,330.612 L225.954,330.515 L223.883,330.514 C223.862,343.033 219.411,353.078 212.193,360.073 C204.969,367.06 194.912,371.014 183.509,371.018 C183.313,371.018 183.114,371.016 182.912,371.014 C181.88,371.004 181,371.754 180.844,372.773 C180.688,373.793 181.305,374.77 182.293,375.069 L182.304,375.072 C182.488,375.126 184.612,375.807 186.543,376.881 C187.506,377.412 188.412,378.047 188.977,378.643 C189.262,378.939 189.458,379.218 189.569,379.443 C189.68,379.672 189.712,379.832 189.714,379.987 C189.711,380.15 189.681,380.342 189.502,380.668 C189.237,381.15 188.575,381.9 187.291,382.76 C186.013,383.621 184.141,384.589 181.574,385.605 C176.752,387.52 169.795,388.798 162.141,389.549 C154.481,390.307 146.104,390.566 138.306,390.566 C130.242,390.566 122.793,390.291 117.367,390.015 C114.653,389.878 112.445,389.74 110.917,389.637 C110.154,389.586 109.56,389.543 109.158,389.513 C108.756,389.483 108.551,389.466 108.551,389.466 L108.384,391.531 L110.455,391.504 L108.005,202.148 L210.714,197.389 L210.619,195.32 L208.566,195.602 L210.619,195.32 L210.523,193.251 L105.812,198.102 C104.694,198.154 103.822,199.079 103.836,200.198 L106.313,391.558 C106.326,392.626 107.152,393.51 108.217,393.596 C108.251,393.598 121.992,394.708 138.306,394.709 C146.197,394.708 154.689,394.449 162.549,393.672 C170.414,392.889 177.629,391.613 183.099,389.457 C186.779,387.995 189.318,386.585 191.073,385.088 C191.947,384.337 192.631,383.554 193.113,382.698 C193.596,381.846 193.86,380.905 193.857,379.987 C193.858,379.092 193.615,378.253 193.248,377.539 C192.599,376.284 191.629,375.357 190.603,374.576 C189.056,373.414 187.316,372.582 185.935,372.001 C184.555,371.425 183.539,371.117 183.491,371.103 L182.892,373.086 L182.872,375.157 C183.081,375.159 183.294,375.161 183.509,375.161 C195.867,375.164 207.022,370.844 215.074,363.05 C223.133,355.265 228.023,344.023 228.026,330.517 L228.024,330.419 L226.401,330.494 L228.025,330.475 L228.024,330.419 L226.401,330.494 L228.025,330.475 L227.162,330.485 L228.025,330.485 L228.025,330.475 L227.162,330.485 L228.025,330.485 C228.028,323.022 226.732,317.009 224.776,311.963 C221.84,304.39 217.481,299.032 214.061,294.008 C212.345,291.495 210.857,289.071 209.808,286.5 C208.759,283.925 208.128,281.208 208.125,277.985 C208.126,275.172 208.615,271.962 209.806,268.167 C213.639,255.93 214.703,241.058 214.709,227.894 C214.708,209.884 212.678,195.097 212.671,195.038 C212.525,193.979 211.59,193.201 210.523,193.251 L210.619,195.32" fill="#48402C" id="path864"/>
    <path d="M179.501,406.711 L228.54,470.656 L183.939,499.43 L192.283,541.422 C192.283,541.422 223.181,526.883 246.814,508.64 C275.314,486.625 279.642,474.617 268.447,450.461 C219.704,345.328 165.564,334.117 135.275,329.797 L179.501,406.711" fill="#D2D0C9" id="path866"/>
    <path d="M179.501,406.711 L177.987,407.872 L225.767,470.175 L182.905,497.826 C182.246,498.251 181.915,499.033 182.067,499.801 L190.411,541.794 C190.525,542.368 190.9,542.861 191.423,543.125 C191.946,543.389 192.565,543.397 193.095,543.148 C193.122,543.135 200.88,539.484 211.61,533.541 C222.341,527.596 236.04,519.365 247.98,510.151 C257.586,502.725 264.539,496.394 269.168,490.198 C271.48,487.099 273.208,484.027 274.353,480.883 C275.5,477.741 276.057,474.531 276.055,471.214 C276.05,464.662 273.927,457.757 270.178,449.659 C245.709,396.877 219.788,367.483 196.039,350.764 C172.303,334.04 150.767,330.073 135.544,327.908 C134.821,327.805 134.104,328.122 133.695,328.727 C133.286,329.331 133.257,330.115 133.621,330.748 L177.847,407.662 L177.987,407.872 L179.501,406.711 L181.155,405.76 L136.929,328.846 L135.275,329.797 L135.005,331.685 C150.072,333.841 170.75,337.639 193.842,353.884 C216.922,370.134 242.442,398.912 266.716,451.263 C270.359,459.116 272.245,465.516 272.239,471.214 C272.238,474.109 271.764,476.841 270.768,479.577 C269.275,483.675 266.581,487.806 262.446,492.303 C258.316,496.798 252.758,501.639 245.647,507.13 C233.955,516.158 220.388,524.318 209.761,530.203 C204.448,533.146 199.868,535.523 196.62,537.161 C194.996,537.981 193.705,538.616 192.822,539.045 C192.38,539.26 192.041,539.423 191.812,539.533 C191.584,539.642 191.471,539.695 191.47,539.695 L192.283,541.422 L194.154,541.05 L186.063,500.329 L229.575,472.259 C230.021,471.971 230.329,471.506 230.42,470.982 C230.511,470.459 230.378,469.916 230.054,469.495 L181.015,405.55 L179.501,406.711 L181.155,405.76 L179.501,406.711" fill="#D2D0C9" id="path868"/>
    <path d="M104.751,318.797 L106.681,329.367 C106.681,329.367 119.181,339.945 129.759,329.367 L131.681,317.836 L104.751,318.797" fill="#E4B29E" id="path870"/>
    <path d="M59.322,523.625 C59.322,523.625 69.564,400.984 78.9,367.367 C86.954,338.375 104.509,327.539 118.439,328.195 C136.587,329.062 152.033,345.351 157.525,370.031 C163.892,398.547 175.236,521.633 175.236,521.633 C175.236,521.633 145.65,524.047 119.025,523.39 C92.392,522.711 59.322,523.625 59.322,523.625" fill="#E49293" id="path872"/>
    <path d="M59.322,523.625 L61.014,523.766 C61.014,523.765 61.053,523.289 61.131,522.383 C61.71,515.593 64.386,484.764 68.01,451.708 C69.821,435.181 71.87,418.096 74.01,403.191 C76.147,388.293 78.388,375.545 80.536,367.821 C84.382,353.98 90.392,344.481 97.005,338.458 C103.621,332.434 110.841,329.866 117.247,329.864 C117.62,329.864 117.99,329.873 118.356,329.891 C126.938,330.304 134.912,334.342 141.49,341.345 C148.059,348.344 153.179,358.31 155.867,370.4 C157.432,377.399 159.339,390.438 161.294,405.961 C164.229,429.258 167.292,458.222 169.621,481.354 C170.786,492.92 171.767,503.03 172.457,510.247 C172.801,513.856 173.074,516.742 173.259,518.725 C173.445,520.708 173.545,521.785 173.545,521.788 L175.236,521.633 L175.098,519.94 C175.097,519.94 174.745,519.969 174.076,520.02 C169.388,520.376 149.274,521.806 128.654,521.805 C125.451,521.805 122.236,521.771 119.066,521.693 C111.83,521.508 104.126,521.441 96.738,521.441 C76.868,521.441 59.284,521.927 59.275,521.928 L59.322,523.625 L61.014,523.766 L59.322,523.625 L59.369,525.322 C59.372,525.322 60.462,525.292 62.417,525.246 C68.281,525.11 81.876,524.837 96.738,524.837 C104.105,524.837 111.783,524.904 118.981,525.088 C122.185,525.166 125.426,525.201 128.654,525.201 C152.392,525.201 175.348,523.327 175.374,523.325 C175.826,523.288 176.244,523.072 176.536,522.725 C176.827,522.377 176.968,521.928 176.926,521.477 C176.926,521.472 174.089,490.696 170.456,456.347 C168.64,439.171 166.624,421.104 164.663,405.536 C162.699,389.961 160.801,376.921 159.182,369.661 C156.379,357.072 151.03,346.554 143.966,339.022 C136.911,331.493 128.088,326.953 118.52,326.499 C118.098,326.479 117.673,326.469 117.247,326.469 C109.928,326.467 101.887,329.414 94.718,335.947 C87.545,342.482 81.244,352.583 77.264,366.912 C74.887,375.481 72.501,389.467 70.221,405.729 C63.391,454.481 57.631,523.467 57.63,523.483 C57.589,523.967 57.755,524.439 58.088,524.791 C58.421,525.144 58.884,525.335 59.369,525.322 L59.322,523.625" fill="#E49293" id="path874"/>
    <path d="M139.697,338.945 C139.697,347.14 129.689,353.781 117.361,353.781 C105.025,353.781 95.025,347.14 95.025,338.945 C95.025,330.75 105.025,324.109 117.361,324.109 C129.689,324.109 139.697,330.75 139.697,338.945" fill="#E4B29E" id="path876"/>
    <path d="M133.712,327.469 L118.611,351.672 L142.939,367.945 L143.564,332.453 L133.712,327.469" fill="#E49293" id="path878"/>
    <path d="M133.712,327.469 L132.272,326.57 L117.17,350.773 C116.685,351.551 116.904,352.573 117.667,353.083 L141.995,369.356 C142.512,369.702 143.174,369.738 143.726,369.45 C144.278,369.161 144.625,368.598 144.636,367.975 L145.261,332.483 C145.273,331.833 144.91,331.231 144.33,330.938 L134.479,325.953 C133.692,325.556 132.738,325.822 132.272,326.57 L133.712,327.469 L132.946,328.983 L141.847,333.487 L141.296,364.804 L120.922,351.175 L135.153,328.367 L133.712,327.469 L132.946,328.983 L133.712,327.469" fill="#E49293" id="path880"/>
    <path d="M101.939,327.469 L117.048,351.672 L92.712,367.945 L91.454,331.726 L101.939,327.469" fill="#E49293" id="path882"/>
    <path d="M101.939,327.469 L100.499,328.368 L114.737,351.175 L94.303,364.839 L93.192,332.853 L102.578,329.042 L101.939,327.469 L100.499,328.368 L101.939,327.469 L101.3,325.895 L90.816,330.153 C90.155,330.421 89.733,331.073 89.758,331.785 L91.015,368.004 C91.037,368.621 91.389,369.175 91.938,369.456 C92.488,369.738 93.143,369.699 93.656,369.356 L117.992,353.083 C118.754,352.573 118.974,351.55 118.488,350.773 L103.379,326.569 C102.942,325.869 102.064,325.585 101.3,325.895 L101.939,327.469" fill="#E49293" id="path884"/>
    <g clip-path="url(#Clip_1)" id="g898">
      <path d="M138.493,375.846 L119.766,352.713 C119.434,352.303 118.924,352.068 118.397,352.084 C117.87,352.099 117.374,352.363 117.067,352.792 L100.824,375.448 C100.278,376.21 100.453,377.271 101.215,377.817 C101.977,378.364 103.038,378.189 103.584,377.427 L118.528,356.581 L135.853,377.982 C136.443,378.711 137.512,378.823 138.241,378.233 C138.97,377.644 139.083,376.575 138.493,375.846" fill="#C9787F" id="path886"/>
      <path d="M199.087,663.437 C199.087,663.437 185.634,490.015 184.97,459.234 C184.306,428.461 185.009,356.25 185.009,356.25 C185.009,356.25 172.204,337.453 144.494,330.555 C144.494,330.555 118.767,443.375 118.79,443.703 C118.79,443.703 91.22,333.742 90.119,330.555 C62.408,337.453 49.595,356.25 49.595,356.25 C49.595,356.25 50.298,428.461 49.642,459.234 C48.97,490.015 34.665,662.5 34.665,662.5 C34.665,662.5 117.361,693.586 199.087,663.437" fill="#D2D0C9" id="path888"/>
      <path d="M199.087,663.437 L200.989,663.29 C200.989,663.288 200.937,662.613 200.838,661.335 C200.098,651.754 196.762,608.409 193.534,563.855 C191.92,541.578 190.333,518.999 189.111,500.191 C187.888,481.389 187.031,466.33 186.878,459.193 C186.665,449.35 186.592,435.222 186.592,420.582 C186.592,405.08 186.674,389.001 186.755,376.797 C186.795,370.696 186.836,365.563 186.866,361.956 C186.897,358.349 186.917,356.274 186.917,356.268 C186.921,355.878 186.806,355.498 186.586,355.176 C186.511,355.067 183.205,350.233 176.365,344.524 C169.528,338.818 159.141,332.234 144.954,328.703 C144.46,328.58 143.928,328.662 143.494,328.929 C143.06,329.196 142.747,329.633 142.633,330.13 C142.633,330.13 136.207,358.31 129.782,386.544 C126.569,400.661 123.356,414.791 120.946,425.42 C119.741,430.734 118.737,435.173 118.033,438.298 C117.682,439.861 117.405,441.095 117.216,441.948 C117.122,442.375 117.049,442.706 116.999,442.939 C116.974,443.056 116.954,443.147 116.939,443.221 L116.918,443.328 L116.906,443.404 L116.895,443.48 C116.892,443.522 116.884,443.561 116.882,443.703 L118.79,443.703 L120.641,443.239 C120.641,443.238 113.748,415.748 106.718,387.858 C103.202,373.912 99.652,359.868 96.912,349.108 C95.542,343.728 94.374,339.169 93.514,335.852 C93.083,334.193 92.73,332.846 92.465,331.857 C92.333,331.362 92.223,330.958 92.135,330.645 C92.045,330.325 91.988,330.125 91.922,329.931 C91.598,328.995 90.618,328.464 89.658,328.703 C75.471,332.234 65.082,338.817 58.243,344.524 C51.401,350.233 48.094,355.066 48.019,355.175 C47.799,355.497 47.683,355.878 47.687,356.268 C47.687,356.274 47.708,358.365 47.738,361.997 C47.83,372.894 48.014,397.608 48.014,420.935 C48.014,435.448 47.942,449.429 47.734,459.193 C47.569,466.8 46.55,483.364 45.115,503.847 C42.963,534.583 39.875,574.21 37.325,606.15 C36.05,622.119 34.91,636.168 34.088,646.224 C33.677,651.252 33.346,655.281 33.118,658.054 C32.89,660.827 32.764,662.338 32.764,662.342 C32.693,663.192 33.196,663.985 33.994,664.286 C34.125,664.33 71.808,678.5 121.624,678.505 C145.78,678.505 172.798,675.168 199.748,665.227 C200.547,664.932 201.055,664.14 200.989,663.29 L199.087,663.437 L198.427,661.647 C171.998,671.397 145.431,674.69 121.624,674.69 C97.078,674.69 75.472,671.189 60.021,667.688 C52.295,665.938 46.108,664.188 41.86,662.879 C39.736,662.225 38.097,661.68 36.993,661.301 C36.441,661.111 36.023,660.963 35.745,660.863 C35.606,660.813 35.502,660.775 35.433,660.75 L35.337,660.714 L34.665,662.5 L36.567,662.657 C36.567,662.656 40.143,619.533 43.804,572.558 C45.634,549.071 47.485,524.621 48.922,504.113 C50.358,483.598 51.379,467.059 51.549,459.276 C51.759,449.455 51.83,435.463 51.83,420.935 C51.83,389.806 51.503,356.234 51.503,356.231 L49.595,356.25 L51.171,357.324 L50.712,357.011 L51.17,357.326 L51.171,357.324 L50.712,357.011 L51.17,357.326 C51.194,357.29 54.346,352.712 60.84,347.327 C67.336,341.94 77.16,335.747 90.579,332.406 L90.119,330.555 L88.315,331.178 C88.318,331.183 88.382,331.391 88.46,331.674 C88.777,332.805 89.47,335.446 90.426,339.155 C93.777,352.152 100.406,378.41 106.197,401.412 C109.092,412.914 111.778,423.602 113.74,431.416 C114.721,435.322 115.521,438.51 116.075,440.721 C116.63,442.932 116.939,444.163 116.94,444.167 C117.173,445.099 118.07,445.714 119.024,445.597 C119.978,445.479 120.698,444.664 120.698,443.703 L118.824,443.703 L120.686,443.918 C120.689,443.88 120.697,443.843 120.698,443.703 L118.824,443.703 L120.686,443.918 L119.065,443.731 L120.673,444.007 L120.686,443.918 L119.065,443.731 L120.673,444.007 L120.172,443.921 L120.672,444.016 L120.673,444.007 L120.172,443.921 L120.672,444.016 C120.678,443.984 120.718,443.791 120.779,443.515 C121.735,439.132 128.133,410.977 134.286,383.947 C137.363,370.429 140.38,357.187 142.628,347.325 C143.751,342.393 144.683,338.307 145.333,335.453 C145.984,332.599 146.353,330.983 146.354,330.979 L144.494,330.555 L144.033,332.406 C157.557,335.773 167.428,342.037 173.921,347.454 C177.165,350.161 179.562,352.656 181.138,354.46 C181.926,355.362 182.509,356.092 182.89,356.589 C183.081,356.838 183.221,357.028 183.311,357.153 L183.409,357.291 L183.43,357.321 L183.433,357.326 L183.917,356.993 L183.432,357.324 L183.433,357.326 L183.917,356.993 L183.432,357.324 L185.009,356.25 L183.101,356.231 C183.101,356.234 182.777,389.553 182.777,420.582 C182.777,435.236 182.849,449.376 183.062,459.275 C183.231,467.052 184.197,483.65 185.552,504.252 C189.617,566.033 197.185,663.581 197.185,663.585 L199.087,663.437 L198.427,661.647 L199.087,663.437" fill="#D2D0C9" id="path890"/>
      <path d="M86.744,334.765 C86.716,334.797 83.256,338.612 79.76,343.463 C78.011,345.892 76.252,348.576 74.9,351.222 C74.223,352.546 73.648,353.861 73.231,355.15 C72.816,356.44 72.552,357.706 72.55,358.961 C72.55,359.705 72.646,360.451 72.886,361.172 C73.243,362.197 73.889,362.891 74.616,363.536 C75.901,364.645 77.602,365.594 79.497,366.504 C82.332,367.857 85.583,369.057 88.146,369.933 C90.707,370.806 92.574,371.349 92.593,371.355 L93.126,369.523 L91.744,368.208 C91.713,368.242 87.537,372.625 83.322,378.296 C81.214,381.135 79.095,384.293 77.471,387.437 C76.659,389.01 75.971,390.58 75.475,392.124 C74.981,393.669 74.675,395.19 74.673,396.682 C74.672,398.03 74.934,399.374 75.588,400.586 C76.37,402.033 77.576,403.743 79.119,405.724 C81.816,409.18 85.538,413.413 89.621,417.849 C101.864,431.144 117.345,446.213 117.358,446.226 C118.104,446.953 119.289,446.948 120.03,446.216 C120.038,446.208 128.897,437.455 138.457,427.411 C143.237,422.388 148.192,417.043 152.314,412.294 C154.376,409.918 156.229,407.692 157.755,405.717 C159.283,403.737 160.479,402.028 161.259,400.584 C161.912,399.374 162.174,398.03 162.173,396.681 C162.171,395.189 161.865,393.668 161.372,392.123 C160.504,389.423 159.05,386.632 157.369,383.911 C154.844,379.836 151.793,375.933 149.364,373.029 C146.936,370.127 145.13,368.229 145.11,368.208 L143.728,369.523 L144.222,371.366 C144.252,371.358 148.912,370.11 153.797,368.338 C156.244,367.45 158.742,366.437 160.799,365.34 C161.83,364.788 162.752,364.219 163.532,363.583 C163.922,363.264 164.279,362.926 164.594,362.541 C164.907,362.155 165.187,361.716 165.367,361.178 C165.639,360.358 165.743,359.502 165.744,358.631 C165.732,356.183 164.949,353.531 163.862,350.789 C162.22,346.692 159.822,342.441 157.827,339.179 C155.832,335.921 154.241,333.666 154.224,333.642 C153.617,332.781 152.426,332.576 151.565,333.183 C150.704,333.791 150.499,334.981 151.107,335.842 L151.134,335.882 C151.439,336.316 154.195,340.286 156.844,345.058 C158.168,347.442 159.465,350.029 160.412,352.441 C161.364,354.845 161.939,357.099 161.928,358.631 C161.928,359.191 161.856,359.645 161.745,359.976 L161.84,360.009 L161.749,359.967 L161.745,359.978 L161.84,360.009 L161.749,359.967 C161.746,359.977 161.688,360.08 161.554,360.225 C161.304,360.502 160.799,360.909 160.125,361.328 C158.944,362.069 157.262,362.871 155.439,363.619 C152.7,364.744 149.632,365.767 147.263,366.501 C146.078,366.868 145.066,367.164 144.353,367.368 C143.996,367.47 143.715,367.548 143.523,367.601 C143.331,367.654 143.234,367.68 143.234,367.68 C142.581,367.855 142.074,368.357 141.891,369.007 C141.708,369.657 141.88,370.349 142.346,370.838 L142.387,370.882 C142.84,371.361 146.922,375.729 150.845,381.086 C152.805,383.762 154.724,386.688 156.123,389.454 C157.531,392.212 158.373,394.83 158.357,396.681 C158.356,397.55 158.193,398.23 157.9,398.774 C157.306,399.882 156.195,401.498 154.736,403.384 C152.178,406.694 148.546,410.882 144.555,415.273 C138.565,421.863 131.758,428.927 126.453,434.337 C123.8,437.042 121.523,439.335 119.909,440.95 C119.102,441.758 118.461,442.397 118.022,442.833 C117.583,443.269 117.348,443.501 117.348,443.502 L118.689,444.859 L120.02,443.492 C120.019,443.492 119.881,443.357 119.618,443.1 C117.643,441.168 108.686,432.373 99.596,422.884 C95.052,418.14 90.474,413.221 86.73,408.915 C84.858,406.763 83.195,404.763 81.856,403.026 C80.517,401.294 79.5,399.807 78.947,398.775 C78.653,398.23 78.49,397.552 78.489,396.682 C78.487,395.729 78.698,394.567 79.109,393.289 C79.824,391.05 81.141,388.473 82.724,385.921 C85.098,382.087 88.057,378.293 90.414,375.478 C91.593,374.07 92.622,372.905 93.353,372.094 C93.719,371.689 94.01,371.372 94.208,371.159 C94.308,371.052 94.384,370.97 94.435,370.917 L94.508,370.839 C94.965,370.358 95.141,369.667 94.968,369.026 C94.796,368.386 94.296,367.876 93.659,367.691 C93.659,367.691 93.6,367.674 93.478,367.638 C92.569,367.368 88.357,366.085 84.289,364.437 C82.258,363.616 80.26,362.698 78.779,361.815 C78.041,361.376 77.433,360.944 77.037,360.584 C76.839,360.406 76.695,360.247 76.611,360.133 L76.524,360.002 L76.509,359.972 L76.507,359.967 L76.468,359.982 L76.507,359.969 L76.507,359.967 L76.468,359.982 L76.507,359.969 C76.421,359.709 76.366,359.375 76.366,358.961 C76.363,358.265 76.528,357.352 76.862,356.323 C77.442,354.517 78.526,352.372 79.832,350.225 C81.79,346.999 84.238,343.753 86.187,341.332 C87.161,340.121 88.012,339.115 88.617,338.414 C88.919,338.064 89.16,337.79 89.324,337.605 C89.406,337.512 89.469,337.442 89.511,337.395 L89.571,337.328 C90.279,336.547 90.219,335.341 89.439,334.633 C88.658,333.925 87.452,333.985 86.744,334.765" fill="#A5A5A1" id="path892"/>
      <path d="M153.626,550.406 L190.165,548.484 C190.165,548.484 196.572,587.742 196.572,602.484 C196.572,602.484 165.158,608.258 158.751,597.359 C152.345,586.461 153.626,550.406 153.626,550.406" fill="#D2D0C9" id="path894"/>
      <path d="M153.626,550.406 L153.726,552.311 L190.265,550.39 L190.165,548.484 L188.282,548.791 C188.283,548.793 188.382,549.4 188.556,550.499 C189.168,554.347 190.698,564.18 192.074,574.647 C192.762,579.879 193.411,585.271 193.887,590.143 C194.363,595.012 194.665,599.375 194.664,602.484 L196.572,602.484 L196.227,600.608 L196.143,600.623 C195.26,600.781 187.501,602.106 179.312,602.104 C175.194,602.107 170.968,601.763 167.531,600.828 C165.812,600.363 164.297,599.753 163.09,599.007 C161.879,598.259 160.986,597.395 160.396,596.392 C159.42,594.745 158.542,592.144 157.867,589.052 C156.843,584.41 156.225,578.657 155.874,573.048 C155.521,567.437 155.429,561.96 155.429,557.808 C155.429,555.593 155.455,553.755 155.481,552.473 C155.494,551.832 155.507,551.33 155.517,550.99 C155.527,550.649 155.533,550.474 155.533,550.474 L153.626,550.406 L153.726,552.311 L153.626,550.406 L151.72,550.338 C151.719,550.355 151.613,553.319 151.613,557.808 C151.614,563.42 151.777,571.408 152.521,579.03 C152.895,582.842 153.412,586.563 154.14,589.873 C154.875,593.186 155.795,596.081 157.106,598.326 C158.072,599.969 159.471,601.259 161.087,602.255 C163.519,603.748 166.455,604.633 169.589,605.182 C172.725,605.725 176.068,605.919 179.312,605.92 C188.468,605.917 196.852,604.37 196.916,604.361 C197.823,604.194 198.479,603.406 198.479,602.484 C198.478,598.668 198.072,593.418 197.468,587.629 C195.657,570.284 192.051,548.195 192.048,548.177 C191.891,547.216 191.037,546.527 190.065,546.579 L153.526,548.501 C152.537,548.553 151.755,549.348 151.72,550.338 L153.626,550.406" fill="#D2D0C9" id="path896"/>
    </g>
    <path d="M151.704,549.445 L152.181,560.5 L168.525,565.305 L193.533,557.133 L192.681,547.101 L151.704,549.445" fill="#D2D0C9" id="path900"/>
    <g clip-path="url(#Clip_2)" id="g912">
      <path d="M151.704,549.445 L149.798,549.527 L150.275,560.582 C150.31,561.399 150.858,562.099 151.643,562.33 L167.987,567.135 C168.352,567.242 168.755,567.236 169.117,567.118 L194.125,558.946 C194.968,558.671 195.509,557.855 195.434,556.971 L194.582,546.94 C194.495,545.913 193.601,545.137 192.572,545.196 L151.595,547.54 C150.555,547.599 149.753,548.486 149.798,549.527 L151.704,549.445 L151.813,551.35 L190.937,549.112 L191.504,555.788 L168.495,563.307 L154.028,559.054 L153.611,549.363 L151.704,549.445 L151.813,551.35 L151.704,549.445" fill="#D2D0C9" id="path902"/>
      <path d="M150.273,560.5 C150.274,560.555 150.272,568.312 151.556,577.065 C152.201,581.445 153.163,586.073 154.65,590.16 C155.395,592.204 156.273,594.116 157.335,595.8 C158.398,597.482 159.649,598.946 161.174,600.037 C164.862,602.658 169.667,604.062 174.488,604.89 C179.31,605.707 184.162,605.912 187.905,605.913 C191.893,605.913 194.618,605.677 194.658,605.674 C195.708,605.583 196.485,604.658 196.394,603.608 C196.303,602.559 195.378,601.782 194.329,601.873 L194.222,601.881 C193.694,601.923 191.264,602.097 187.905,602.097 C184.306,602.098 179.636,601.894 175.127,601.128 C170.618,600.371 166.282,599.014 163.392,596.932 C162.39,596.219 161.432,595.145 160.562,593.763 C159.033,591.35 157.802,588.028 156.884,584.429 C155.499,579.028 154.791,573.014 154.44,568.376 C154.264,566.056 154.176,564.078 154.133,562.685 C154.111,561.988 154.1,561.438 154.094,561.063 C154.092,560.876 154.09,560.733 154.09,560.638 C154.089,560.543 154.089,560.5 154.089,560.5 C154.089,559.446 153.235,558.592 152.181,558.592 C151.127,558.592 150.273,559.446 150.273,560.5" fill="#A5A5A1" id="path904"/>
      <path d="M189.849,558.635 L169.466,563.031 L154.108,559.008 L153.703,551.153 L189.357,547.397 C190.405,547.286 191.165,546.348 191.055,545.3 C190.944,544.252 190.005,543.492 188.958,543.603 L151.504,547.548 C150.497,547.654 149.747,548.531 149.799,549.543 L150.369,560.598 C150.412,561.427 150.989,562.135 151.791,562.345 L168.94,566.838 C169.231,566.914 169.53,566.921 169.825,566.857 L190.654,562.365 C191.683,562.143 192.338,561.128 192.116,560.098 C191.894,559.067 190.879,558.413 189.849,558.635" fill="#A5A5A1" id="path906"/>
      <path d="M81.189,550.406 L44.65,548.484 C44.65,548.484 38.244,587.742 38.244,602.484 C38.244,602.484 69.65,608.258 76.064,597.359 C82.47,586.461 81.189,550.406 81.189,550.406" fill="#D2D0C9" id="path908"/>
      <path d="M81.189,550.406 L81.289,548.501 L44.75,546.579 C43.778,546.527 42.923,547.216 42.767,548.177 C42.765,548.187 41.162,558.013 39.556,569.696 C38.754,575.538 37.951,581.845 37.347,587.629 C36.744,593.418 36.337,598.668 36.336,602.484 C36.336,603.406 36.992,604.194 37.899,604.361 C37.963,604.37 46.345,605.917 55.5,605.92 C59.826,605.917 64.324,605.579 68.279,604.511 C70.257,603.974 72.104,603.253 73.725,602.255 C75.342,601.26 76.741,599.97 77.708,598.327 C79.02,596.081 79.94,593.186 80.675,589.873 C81.765,584.91 82.388,579.015 82.749,573.288 C83.109,567.563 83.201,562.016 83.201,557.808 C83.201,553.319 83.096,550.355 83.095,550.338 C83.06,549.349 82.278,548.552 81.289,548.501 L81.189,550.406 L79.282,550.474 C79.282,550.474 79.288,550.649 79.298,550.99 C79.327,552.012 79.385,554.486 79.385,557.808 C79.386,563.343 79.222,571.238 78.496,578.659 C78.133,582.368 77.629,585.958 76.948,589.053 C76.273,592.144 75.395,594.745 74.419,596.392 C73.829,597.394 72.934,598.259 71.723,599.006 C69.913,600.128 67.403,600.934 64.569,601.422 C61.736,601.915 58.588,602.104 55.5,602.104 C51.135,602.104 46.887,601.729 43.744,601.353 C42.172,601.166 40.875,600.978 39.976,600.838 C39.526,600.767 39.175,600.709 38.939,600.669 C38.821,600.649 38.731,600.633 38.672,600.623 L38.588,600.608 L38.244,602.484 L40.151,602.484 C40.15,598.93 40.544,593.743 41.142,588.025 C42.038,579.441 43.387,569.622 44.51,561.96 C45.072,558.128 45.578,554.834 45.943,552.499 C46.126,551.331 46.274,550.404 46.375,549.768 C46.477,549.133 46.533,548.792 46.533,548.791 L44.65,548.484 L44.55,550.39 L81.089,552.311 L81.189,550.406 L79.282,550.474 L81.189,550.406" fill="#D2D0C9" id="path910"/>
    </g>
    <path d="M83.111,549.445 L82.626,560.5 L66.29,565.305 L41.29,557.133 L42.126,547.101 L83.111,549.445" fill="#D2D0C9" id="path914"/>
    <g clip-path="url(#Clip_3)" id="g920">
      <path d="M83.111,549.445 L81.205,549.361 L80.78,559.054 L66.32,563.307 L43.317,555.787 L43.873,549.112 L83.002,551.35 L83.111,549.445 L81.205,549.361 L83.111,549.445 L83.22,547.54 L42.235,545.196 C41.2,545.137 40.311,545.91 40.225,546.943 L39.389,556.974 C39.316,557.853 39.86,558.672 40.697,558.946 L65.697,567.118 C66.068,567.239 66.454,567.245 66.829,567.135 L83.165,562.33 C83.95,562.099 84.496,561.4 84.532,560.583 L85.017,549.529 C85.062,548.487 84.26,547.599 83.22,547.54 L83.111,549.445" fill="#D2D0C9" id="path916"/>
      <path d="M80.718,560.5 L80.718,560.578 C80.715,561.428 80.634,569.089 79.357,577.303 C78.722,581.407 77.783,585.649 76.447,589.2 C75.781,590.975 75.017,592.574 74.169,593.892 C73.321,595.212 72.392,596.242 71.423,596.932 C68.53,599.014 64.194,600.37 59.684,601.128 C55.175,601.894 50.506,602.098 46.908,602.097 C44.989,602.097 43.374,602.04 42.243,601.983 C41.678,601.955 41.233,601.927 40.933,601.906 C40.783,601.896 40.669,601.887 40.593,601.881 L40.486,601.872 C39.436,601.781 38.512,602.558 38.421,603.608 C38.33,604.658 39.107,605.583 40.157,605.674 C40.197,605.677 42.92,605.913 46.908,605.913 C50.65,605.912 55.501,605.707 60.323,604.89 C65.145,604.062 69.95,602.658 73.642,600.036 C75.165,598.946 76.416,597.481 77.478,595.799 C79.332,592.852 80.637,589.209 81.622,585.375 C83.091,579.627 83.809,573.44 84.172,568.664 C84.534,563.89 84.534,560.534 84.534,560.5 C84.534,559.446 83.68,558.592 82.626,558.592 C81.573,558.592 80.718,559.446 80.718,560.5" fill="#A5A5A1" id="path918"/>
    </g>
    <path d="M44.154,562.365 L64.99,566.857 C65.285,566.921 65.583,566.914 65.875,566.838 L83.024,562.345 C83.826,562.135 84.403,561.426 84.446,560.598 L85.016,549.543 C85.068,548.531 84.318,547.654 83.311,547.548 L45.865,543.602 C44.817,543.492 43.878,544.252 43.768,545.3 C43.657,546.348 44.418,547.287 45.466,547.397 L81.112,551.153 L80.707,559.008 L65.349,563.031 L44.958,558.635 C43.928,558.412 42.913,559.067 42.691,560.098 C42.469,561.128 43.124,562.143 44.154,562.365" fill="#A5A5A1" id="path922"/>
    <path d="M124.65,475.726 C124.65,479.164 121.861,481.93 118.439,481.93 C114.986,481.93 112.212,479.164 112.212,475.726 C112.212,472.289 114.986,469.508 118.439,469.508 C121.861,469.508 124.65,472.289 124.65,475.726" fill="#A5A5A1" id="path924"/>
    <path d="M124.65,512.164 C124.65,515.601 121.853,518.383 118.423,518.383 C114.986,518.383 112.212,515.601 112.212,512.164 C112.212,508.734 114.986,505.953 118.423,505.953 C121.853,505.953 124.65,508.734 124.65,512.164" fill="#A5A5A1" id="path926"/>
    <path d="M92.095,104.851 C57.908,96.156 23.97,119.633 8.689,160.164 C-6.6,200.68 7.931,236.633 18.861,258.305 C29.806,279.976 207.29,277.758 212.861,204.18 C218.134,134.508 167.283,99.195 131.665,97.242 C105.72,95.812 92.095,104.851 92.095,104.851" fill="#48402C" id="path928"/>
    <path d="M92.095,104.851 L92.606,102.844 C87.664,101.587 82.718,100.978 77.829,100.978 C62.771,100.976 48.3,106.753 35.979,116.934 C23.651,127.117 13.437,141.699 6.75,159.433 C1.913,172.249 -0.001,184.643 0,196.273 C0.005,222.128 9.419,244.175 17.011,259.237 C17.653,260.503 18.629,261.583 19.832,262.547 C21.943,264.227 24.784,265.596 28.277,266.796 C33.514,268.585 40.233,269.955 48.045,270.894 C55.855,271.831 64.75,272.329 74.283,272.33 C102.576,272.323 136.475,267.953 163.994,257.384 C177.751,252.092 189.929,245.248 198.991,236.505 C203.519,232.133 207.265,227.281 209.998,221.918 C212.732,216.557 214.447,210.686 214.926,204.336 C215.186,200.907 215.311,197.558 215.311,194.29 C215.322,162.197 203.148,137.811 186.625,121.324 C178.366,113.075 169.029,106.785 159.575,102.431 C150.12,98.078 140.549,95.656 131.779,95.173 C129.84,95.067 127.967,95.017 126.16,95.017 C103.307,95.015 91.195,102.959 90.95,103.125 L92.095,104.851 L92.606,102.844 L92.095,104.851 L93.24,106.577 L92.914,106.086 L93.237,106.58 L93.24,106.577 L92.914,106.086 L93.237,106.58 C93.352,106.508 104.627,99.161 126.16,99.16 C127.89,99.16 129.688,99.207 131.551,99.31 C139.727,99.757 148.825,102.039 157.842,106.194 C171.373,112.424 184.712,122.849 194.651,137.495 C204.59,152.144 211.164,171.009 211.168,194.29 C211.168,197.452 211.047,200.697 210.795,204.023 C210.354,209.827 208.803,215.137 206.307,220.036 C201.942,228.604 194.642,235.934 185.284,242.098 C171.256,251.345 152.646,257.906 132.974,262.109 C113.302,266.318 92.569,268.188 74.283,268.187 C59.981,268.189 47.164,267.04 37.581,265.012 C32.793,264.001 28.814,262.765 25.914,261.399 C24.464,260.719 23.288,260.007 22.419,259.311 C21.547,258.615 20.997,257.944 20.71,257.37 C13.225,242.539 4.138,221.107 4.143,196.273 C4.144,185.096 5.975,173.224 10.627,160.895 C17.086,143.76 26.921,129.785 38.617,120.128 C50.319,110.468 63.845,105.122 77.829,105.121 C82.374,105.121 86.972,105.686 91.584,106.859 C92.151,107.003 92.753,106.9 93.24,106.577 L92.095,104.851" fill="#48402C" id="path930"/>
    <path d="M37.884,237.476 C32.408,231.586 25.244,228.547 18.736,229.344 C13.79,229.945 9.47,232.703 6.236,237.328 C3.978,240.555 1.119,245.547 0.361,250.93 C-0.569,257.39 1.447,263.844 6.009,269.101 C12.056,276.055 21.759,280.023 30.15,279.008 C39.181,277.898 45.001,271.39 46.173,261.07 C46.837,252.445 43.822,243.836 37.884,237.476" fill="#F5C2A6" id="path932"/>
    <path d="M185.244,219.43 C189.142,212.39 195.353,207.711 201.861,206.922 C206.798,206.305 211.665,207.945 215.923,211.656 C218.9,214.242 222.876,218.39 224.908,223.43 C227.369,229.476 226.978,236.226 223.806,242.43 C219.626,250.633 211.173,256.828 202.775,257.867 C193.751,258.969 186.509,254.055 182.892,244.328 C180.173,236.117 181.033,227.039 185.244,219.43" fill="#F5C2A6" id="path934"/>
    <g clip-path="url(#Clip_4)" id="g950">
      <path d="M127.948,326.376 L128.176,325.43 L127.943,326.375 L127.948,326.376 L128.176,325.43 L127.943,326.375 C128.03,326.389 138.719,329.067 149.211,338.241 C154.464,342.828 159.682,349.022 163.607,357.364 C167.529,365.709 170.172,376.22 170.174,389.528 C170.174,390.821 170.149,392.142 170.098,393.49 C170.041,394.994 171.214,396.26 172.718,396.317 C174.222,396.374 175.488,395.201 175.545,393.697 C175.599,392.282 175.626,390.892 175.626,389.528 C175.628,375.388 172.774,363.958 168.438,354.83 C161.936,341.127 152.153,332.678 144.035,327.694 C135.908,322.704 129.42,321.126 129.227,321.077 C127.763,320.723 126.291,321.623 125.938,323.087 C125.584,324.55 126.484,326.023 127.948,326.376" fill="#5E7085" id="path936"/>
      <path d="M172.045,396.23 L172.194,394.776 L172.039,396.23 L172.045,396.23 L172.194,394.776 L172.039,396.23 C172.039,396.23 172.116,396.238 172.271,396.26 C173.441,396.415 178.776,397.374 183.582,400.755 C185.993,402.444 188.277,404.708 189.979,407.797 C191.677,410.89 192.821,414.832 192.825,420.023 C192.825,421.291 192.756,422.633 192.607,424.054 C191.69,432.822 190.549,443.553 189.259,452.687 C188.615,457.252 187.931,461.42 187.232,464.706 C186.883,466.348 186.529,467.769 186.186,468.886 C185.851,469.998 185.498,470.822 185.296,471.144 C184.849,471.899 183.919,472.805 182.541,473.679 C180.137,475.221 176.468,476.629 172.389,477.758 C166.263,479.465 159.204,480.608 153.709,481.309 C150.96,481.66 148.599,481.903 146.93,482.058 C146.096,482.135 145.434,482.19 144.983,482.226 C144.758,482.244 144.585,482.257 144.47,482.265 C144.355,482.274 144.301,482.278 144.301,482.278 C142.931,482.371 141.897,483.557 141.99,484.927 C142.083,486.296 143.269,487.331 144.639,487.238 C144.694,487.233 154.015,486.6 164.18,484.714 C169.267,483.768 174.561,482.515 179.087,480.819 C181.351,479.968 183.427,479.007 185.214,477.87 C186.994,476.728 188.517,475.411 189.551,473.714 C190.12,472.76 190.527,471.67 190.939,470.343 C191.645,468.033 192.287,465.03 192.906,461.526 C194.755,451.037 196.344,436.098 197.551,424.571 C197.717,422.987 197.796,421.472 197.796,420.023 C197.802,413.65 196.244,408.526 193.844,404.55 C192.049,401.567 189.8,399.238 187.468,397.442 C183.964,394.747 180.281,393.231 177.462,392.367 C174.64,391.505 172.671,391.298 172.551,391.285 C171.186,391.145 169.965,392.139 169.825,393.504 C169.685,394.87 170.679,396.091 172.045,396.231" fill="#5E7085" id="path938"/>
      <path d="M143.329,482.57 L142.923,486.664 C142.923,486.664 138.345,487.008 137.595,484.828 C136.853,482.633 139.994,481.812 143.329,482.57" fill="#3C4857" id="path940"/>
      <path d="M143.329,482.57 L141.351,482.374 L140.944,486.467 L142.923,486.664 L142.776,484.681 L142.801,485.025 L142.779,484.681 L142.776,484.681 L142.801,485.025 L142.779,484.681 C142.758,484.682 142.553,484.695 142.249,484.695 C141.703,484.699 140.814,484.641 140.177,484.46 C139.86,484.375 139.616,484.258 139.516,484.185 L139.449,484.13 L139.32,484.234 L139.475,484.181 L139.449,484.13 L139.32,484.234 L139.475,484.181 L139.479,484.191 L139.47,484.163 L139.212,484.208 L139.473,484.208 L139.47,484.163 L139.212,484.208 L139.473,484.208 L138.899,484.208 L139.363,484.544 L139.473,484.208 L138.899,484.208 L139.363,484.544 L139.105,484.357 L139.321,484.593 L139.363,484.544 L139.105,484.357 L139.321,484.593 L139.312,484.584 L139.32,484.594 L139.321,484.593 L139.312,484.584 L139.32,484.594 C139.332,484.58 139.499,484.479 139.795,484.407 C140.09,484.333 140.503,484.281 140.976,484.282 C141.55,484.282 142.212,484.354 142.888,484.509 L143.329,482.57 L141.351,482.374 L143.329,482.57 L143.771,480.631 C142.818,480.415 141.877,480.305 140.976,480.305 C139.765,480.313 138.63,480.482 137.578,481.011 C137.057,481.28 136.544,481.659 136.141,482.213 C135.736,482.76 135.49,483.494 135.497,484.208 C135.496,484.645 135.577,485.069 135.711,485.465 L135.715,485.475 C136.016,486.36 136.628,487.026 137.244,487.449 C138.179,488.087 139.145,488.335 140.017,488.493 C140.891,488.642 141.684,488.671 142.249,488.672 C142.723,488.672 143.032,488.65 143.07,488.647 C144.034,488.575 144.806,487.822 144.902,486.86 L145.308,482.766 C145.407,481.769 144.748,480.854 143.771,480.631 L143.329,482.57" fill="#3C4857" id="path942"/>
      <path d="M172.547,391.499 C172.427,391.476 170.717,391.143 168.093,391.143 C164.282,391.147 158.471,391.838 152.95,395.417 C150.197,397.203 147.545,399.717 145.341,403.141 C143.134,406.564 141.375,410.882 140.313,416.268 C138.81,423.853 137.036,432.894 135.634,441.173 C134.932,445.314 134.324,449.265 133.888,452.762 C133.453,456.264 133.186,459.296 133.185,461.694 C133.19,463.062 133.259,464.21 133.519,465.279 L133.52,465.282 C134.026,467.268 135.183,468.979 136.656,470.583 C139.248,473.376 142.943,475.92 147.078,478.311 C153.275,481.88 160.463,485.029 166.131,487.309 C171.796,489.587 175.932,490.984 175.963,490.995 C177.264,491.435 178.674,490.737 179.114,489.436 C179.553,488.136 178.855,486.725 177.555,486.286 L177.455,486.251 C176.388,485.888 166.939,482.613 157.526,478.142 C152.823,475.911 148.128,473.373 144.556,470.823 C142.77,469.552 141.27,468.277 140.203,467.096 C139.127,465.916 138.524,464.841 138.342,464.077 L138.343,464.08 C138.245,463.711 138.151,462.835 138.156,461.694 C138.154,459.665 138.398,456.762 138.821,453.377 C140.088,443.193 142.938,428.592 145.189,417.233 C146.151,412.367 147.694,408.668 149.52,405.834 C152.264,401.591 155.643,399.226 158.999,397.837 C162.349,396.457 165.686,396.112 168.093,396.114 C169.192,396.114 170.095,396.185 170.707,396.253 C171.013,396.287 171.246,396.321 171.396,396.344 L171.556,396.371 L171.586,396.376 L171.588,396.377 L171.867,394.929 L171.581,396.375 L171.588,396.377 L171.867,394.929 L171.581,396.375 C172.927,396.642 174.235,395.767 174.502,394.42 C174.769,393.074 173.893,391.766 172.547,391.499" fill="#5E7085" id="path944"/>
      <path d="M177.376,486.336 L176.556,490.359 C176.556,490.359 180.829,492.039 182.189,490.164 C183.548,488.305 180.79,486.594 177.376,486.336" fill="#3C4857" id="path946"/>
      <path d="M177.376,486.336 L175.428,485.938 L174.608,489.962 C174.414,490.909 174.929,491.856 175.829,492.21 C175.878,492.229 176.379,492.425 177.122,492.625 C177.869,492.823 178.847,493.036 179.936,493.039 C180.546,493.037 181.2,492.973 181.883,492.733 C182.559,492.499 183.284,492.045 183.798,491.332 L183.794,491.337 C184.233,490.745 184.535,489.983 184.531,489.19 C184.534,488.272 184.142,487.462 183.659,486.89 C182.921,486.023 181.99,485.499 180.956,485.093 C179.918,484.696 178.756,484.447 177.526,484.353 C176.526,484.277 175.628,484.956 175.428,485.938 L177.376,486.336 L177.227,488.318 C178.39,488.401 179.457,488.714 180.07,489.05 C180.377,489.212 180.559,489.378 180.601,489.433 L180.613,489.449 L181.034,489.19 L180.554,489.19 C180.552,489.328 180.607,489.444 180.613,489.449 L181.034,489.19 L180.554,489.19 L181.113,489.19 L180.584,489.001 L180.554,489.19 L181.113,489.19 L180.584,489.001 L180.796,489.076 L180.598,488.969 L180.584,489.001 L180.796,489.076 L180.598,488.969 L180.583,488.991 L180.58,488.996 L180.708,489.089 L180.616,488.958 L180.58,488.996 L180.708,489.089 L180.616,488.958 L180.586,488.973 C180.514,489.008 180.269,489.065 179.936,489.062 C179.406,489.066 178.694,488.933 178.155,488.785 C177.884,488.712 177.654,488.638 177.498,488.585 L177.323,488.523 L177.285,488.509 L177.283,488.508 L176.556,490.359 L178.504,490.756 L179.325,486.733 L177.376,486.336 L177.227,488.318 L177.376,486.336" fill="#3C4857" id="path948"/>
    </g>
    <g clip-path="url(#Clip_5)" id="g958">
      <path d="M103.8,321.7 C103.626,321.749 101.051,322.476 97.265,324.599 C91.591,327.777 83.185,334.128 76.248,345.934 C69.306,357.738 63.868,374.938 63.872,399.655 C63.872,406.709 64.313,414.377 65.286,422.714 C65.461,424.209 66.814,425.28 68.309,425.106 C69.805,424.931 70.875,423.577 70.701,422.082 C69.75,413.939 69.323,406.482 69.323,399.655 C69.324,383.703 71.654,371.203 75.095,361.425 C80.263,346.761 87.909,338.181 94.213,333.199 C97.365,330.711 100.186,329.133 102.19,328.185 C103.192,327.711 103.989,327.394 104.52,327.201 C104.785,327.104 104.984,327.038 105.108,326.999 L105.238,326.959 L105.259,326.953 L104.982,325.985 L105.249,326.955 L105.259,326.953 L104.982,325.985 L105.249,326.955 C106.701,326.555 107.552,325.054 107.152,323.603 C106.752,322.152 105.251,321.3 103.8,321.701" fill="#5E7085" id="path952"/>
      <path d="M87.853,431.859 C87.853,442.39 79.314,450.93 68.79,450.93 C58.251,450.93 49.712,442.39 49.712,431.859 C49.712,421.328 58.251,412.789 68.79,412.789 C79.314,412.789 87.853,421.328 87.853,431.859" fill="#4C4C4A" id="path954"/>
      <path d="M78.587,431.859 C78.587,437.273 74.189,441.664 68.79,441.664 C63.376,441.664 58.986,437.273 58.986,431.859 C58.986,426.445 63.376,422.062 68.79,422.062 C74.189,422.062 78.587,426.445 78.587,431.859" fill="#898683" id="path956"/>
    </g>
    <path d="M79.944,132.547 C100.71,124.156 152.702,125.476 179.593,157.148 C206.474,188.828 217.724,265.68 167.099,303.164 C116.474,340.656 48.249,316.851 30.249,279.008 C12.257,241.148 8.038,161.594 79.944,132.547" fill="#F5C2A6" id="path960"/>
    <path d="M142.876,239.406 C136.173,239.765 134.572,227.992 139.681,224.601 C144.79,221.219 148.845,226.726 149.15,229.898 C149.47,233.07 148.814,239.086 142.876,239.406" fill="#2D2118" id="path962"/>
    <path d="M75.353,247.672 C68.65,248.039 67.048,236.258 72.158,232.867 C77.267,229.484 81.314,234.992 81.626,238.172 C81.939,241.336 81.298,247.351 75.353,247.672" fill="#2D2118" id="path964"/>
    <path d="M108.362,243.031 C106.461,246.173 104.917,249.482 103.432,252.836 C102.015,256.036 106.736,258.828 108.164,255.601 C109.649,252.248 111.194,248.939 113.094,245.797 C114.928,242.765 110.188,240.012 108.362,243.031" fill="#2D2118" id="path966"/>
    <path d="M103.876,257.265 C105.835,258.255 107.801,259.232 109.759,260.225 C111.091,260.901 112.721,260.587 113.508,259.242 C114.229,258.012 113.856,256.168 112.525,255.493 C110.567,254.5 108.601,253.522 106.642,252.532 C105.309,251.858 103.681,252.169 102.893,253.515 C102.173,254.744 102.544,256.591 103.876,257.265" fill="#2D2118" id="path968"/>
    <path d="M148.154,264.535 C162.388,289.433 196.279,269.183 184.716,248.441 C182.771,244.98 179.794,241.66 177.036,239.902 C163.466,231.347 149.529,241.433 147.388,253.597 C146.794,256.949 146.966,261.34 148.154,264.535" fill="url(#Gradient_1)" id="path970"/>
    <path d="M37.862,277.25 C52.104,302.156 85.979,281.898 74.424,261.156 C72.487,257.695 69.518,254.383 66.737,252.625 C53.174,244.062 39.253,254.148 37.096,266.32 C36.51,269.664 36.667,274.055 37.862,277.25" fill="url(#Gradient_2)" id="path972"/>
    <path d="M139.494,122.648 C139.494,122.648 155.142,160.297 113.829,191.133 C72.501,221.961 38.072,218.812 31.079,251.883 C31.079,251.883 10.392,233.242 17.306,184.539 C24.236,135.844 100.001,100.789 139.494,122.648" fill="#48402C" id="path974"/>
    <path d="M139.494,122.648 L137.581,123.443 L138.304,123.142 L137.579,123.44 L137.581,123.443 L138.304,123.142 L137.579,123.44 C137.602,123.487 140.333,130.187 140.329,140.071 C140.328,146.703 139.113,154.759 135.058,163.296 C131,171.832 124.101,180.877 112.59,189.473 C92.173,204.703 73.473,211.537 58.665,218.808 C51.265,222.448 44.808,226.21 39.685,231.306 C34.56,236.395 30.861,242.844 29.053,251.454 L31.079,251.883 L32.466,250.344 L32.099,250.75 L32.47,250.347 L32.466,250.344 L32.099,250.75 L32.47,250.347 C32.399,250.281 28.779,246.935 25.174,239.455 C21.57,231.973 17.965,220.351 17.963,203.643 C17.963,197.97 18.38,191.711 19.357,184.83 C20.672,175.585 24.582,166.795 30.368,158.785 C39.041,146.772 51.94,136.555 66.319,129.382 C80.694,122.202 96.539,118.072 111.001,118.077 C121.169,118.076 130.634,120.109 138.49,124.461 L139.494,122.648 L137.581,123.443 L139.494,122.648 L140.497,120.836 C131.878,116.067 121.713,113.935 111.001,113.934 C90.676,113.946 68.303,121.579 50.177,134.117 C41.116,140.392 33.119,147.904 27.01,156.359 C20.903,164.812 16.682,174.223 15.255,184.247 C14.252,191.312 13.82,197.767 13.82,203.643 C13.818,221.224 17.692,233.62 21.626,241.633 C25.558,249.649 29.533,253.278 29.693,253.421 C30.242,253.917 31.016,254.081 31.72,253.852 C32.424,253.623 32.953,253.035 33.106,252.311 C34.793,244.386 38.02,238.827 42.609,234.242 C46.055,230.808 50.309,227.937 55.286,225.214 C62.747,221.127 71.812,217.394 81.952,212.509 C92.092,207.621 103.305,201.568 115.068,192.793 C127.063,183.843 134.449,174.24 138.801,165.074 C143.156,155.908 144.473,147.206 144.472,140.071 C144.468,129.255 141.473,122.021 141.406,121.853 C141.226,121.419 140.908,121.063 140.497,120.836 L139.494,122.648" fill="#48402C" id="path976"/>
    <path d="M134.142,131.586 C134.142,131.586 163.595,195.031 200.439,214.57 C200.439,214.57 198.501,131.062 134.142,131.586" fill="#48402C" id="path978"/>
    <path d="M134.142,131.586 L132.263,132.458 C132.291,132.515 139.687,148.449 151.74,166.884 C157.769,176.103 164.961,185.948 173.007,194.758 C181.055,203.565 189.95,211.348 199.468,216.4 C200.116,216.744 200.903,216.718 201.527,216.333 C202.151,215.947 202.527,215.255 202.51,214.522 C202.498,214.385 202.034,193.46 193.423,172.295 C189.111,161.716 182.743,151.047 173.253,142.972 C163.774,134.892 151.136,129.498 134.743,129.511 C134.54,129.511 134.331,129.512 134.117,129.514 C133.417,129.523 132.762,129.89 132.389,130.482 C132.016,131.074 131.968,131.823 132.263,132.458 L134.142,131.586 L134.167,133.657 C134.354,133.655 134.547,133.654 134.743,133.654 C150.235,133.668 161.752,138.647 170.569,146.128 C177.175,151.744 182.24,158.81 186.107,166.288 C191.91,177.502 194.997,189.625 196.608,198.923 C197.415,203.573 197.856,207.515 198.094,210.286 C198.213,211.671 198.282,212.764 198.321,213.505 C198.34,213.876 198.352,214.159 198.359,214.347 C198.362,214.441 198.365,214.511 198.366,214.556 L198.368,214.618 L200.439,214.57 L201.409,212.74 C192.505,208.023 183.902,200.548 176.066,191.964 C164.305,179.09 154.264,163.749 147.192,151.645 C143.655,145.593 140.857,140.349 138.946,136.624 C137.99,134.761 137.257,133.278 136.763,132.264 C136.516,131.756 136.329,131.366 136.205,131.104 C136.143,130.973 136.096,130.874 136.065,130.808 L136.021,130.713 L134.142,131.586 L134.167,133.657 L134.142,131.586" fill="#48402C" id="path980"/>
    <path d="M134.799,286.819 C129.589,281.449 122.466,276.853 114.714,279.082 C107.351,281.198 104.491,289.247 103.937,296.101 C103.637,299.812 109.409,299.783 109.706,296.101 C110.067,291.639 111.618,286.361 116.247,284.644 C121.681,282.631 127.255,287.327 130.72,290.899 C133.314,293.573 137.389,289.49 134.799,286.819" fill="#C04841" id="path982"/>
    <path d="M98.509,355.39 L92.642,378.281 L69.048,370.133 L82.947,342.32 L98.509,355.39" fill="#F5C2A6" id="path984"/>
    <path d="M98.509,355.39 L96.223,354.805 L90.992,375.214 L72.362,368.78 L83.72,346.051 L96.991,357.197 L98.509,355.39 L96.223,354.805 L98.509,355.39 L100.027,353.583 L84.464,340.513 C83.909,340.047 83.177,339.862 82.468,340.009 C81.758,340.156 81.16,340.617 80.836,341.265 L66.937,369.078 C66.632,369.689 66.605,370.392 66.863,371.024 C67.121,371.657 67.632,372.14 68.278,372.363 L91.872,380.512 C92.493,380.726 93.182,380.671 93.76,380.359 C94.339,380.048 94.765,379.503 94.928,378.867 L100.795,355.976 C101.021,355.094 100.724,354.169 100.027,353.583 L98.509,355.39" fill="#F5C2A6" id="path986"/>
    <path d="M125.517,313.055 C125.517,313.055 129.853,311.437 132.314,315.797 C134.79,320.172 128.189,325.586 122.619,325.023 C117.056,324.445 115.54,316.664 125.517,313.055" fill="#F5C2A6" id="path988"/>
    <path d="M125.517,313.055 L126.343,315.265 L126.334,315.244 L126.342,315.267 L126.343,315.265 L126.334,315.244 L126.342,315.267 C126.457,315.23 126.894,315.119 127.397,315.121 C127.854,315.121 128.34,315.203 128.8,315.439 C129.259,315.682 129.748,316.066 130.259,316.957 L130.26,316.959 C130.432,317.27 130.486,317.512 130.489,317.794 C130.491,318.168 130.36,318.656 130.01,319.22 C129.497,320.062 128.491,320.994 127.275,321.65 C126.062,322.316 124.659,322.708 123.434,322.703 C123.236,322.703 123.042,322.694 122.853,322.675 L122.862,322.676 C122.04,322.587 121.495,322.278 121.137,321.905 C120.783,321.525 120.594,321.078 120.589,320.506 C120.592,319.885 120.83,319.063 121.677,318.107 C122.521,317.159 123.995,316.113 126.319,315.274 L126.343,315.265 L125.517,313.055 L124.714,310.835 C121.826,311.881 119.655,313.29 118.158,314.961 C116.665,316.624 115.866,318.585 115.869,320.506 C115.864,322.256 116.541,323.929 117.718,325.159 C118.89,326.395 120.541,327.183 122.374,327.37 L122.384,327.371 C122.734,327.406 123.084,327.423 123.434,327.423 C126.333,327.409 129.091,326.317 131.272,324.669 C132.361,323.837 133.309,322.852 134.021,321.708 C134.728,320.568 135.208,319.239 135.209,317.794 C135.213,316.73 134.932,315.624 134.368,314.634 L134.369,314.637 C133.467,313.024 132.234,311.89 130.956,311.241 C129.678,310.585 128.413,310.4 127.397,310.401 C125.881,310.406 124.86,310.785 124.691,310.844 L125.517,313.055 L124.714,310.835 L125.517,313.055" fill="#F5C2A6" id="path990"/>
    <path d="M84.439,311.398 C84.439,311.398 99.861,290.437 117.658,296.32 C129.751,300.336 121.853,313.805 121.853,313.805 L84.439,311.398" fill="#F5C2A6" id="path992"/>
    <path d="M84.439,311.398 L86.34,312.797 L85.706,312.33 L86.338,312.798 L86.34,312.797 L85.706,312.33 L86.338,312.798 C86.356,312.77 89.258,308.867 93.854,305.06 C96.149,303.156 98.863,301.278 101.815,299.9 C104.77,298.518 107.944,297.637 111.219,297.638 C113.075,297.639 114.969,297.917 116.916,298.561 L116.914,298.56 C118.031,298.931 118.887,299.376 119.546,299.848 C120.533,300.562 121.102,301.321 121.483,302.168 C121.858,303.013 122.026,303.974 122.026,305.007 C122.033,306.8 121.491,308.764 120.918,310.234 C120.634,310.97 120.348,311.584 120.138,312.004 C120.033,312.214 119.947,312.375 119.89,312.479 L119.828,312.591 L119.816,312.613 L119.815,312.615 L120.934,313.266 L119.817,312.611 L119.815,312.615 L120.934,313.266 L119.817,312.611 L121.853,313.805 L122.004,311.449 L84.59,309.043 L84.439,311.398 L86.34,312.797 L84.439,311.398 L84.287,313.753 L121.701,316.16 C122.588,316.216 123.439,315.764 123.889,314.998 C123.933,314.921 124.622,313.742 125.321,311.935 C126.015,310.125 126.74,307.69 126.746,305.007 C126.749,302.963 126.297,300.719 124.946,298.714 C124.275,297.715 123.39,296.794 122.296,296.012 C121.202,295.228 119.905,294.58 118.401,294.08 L118.399,294.079 C115.965,293.274 113.551,292.918 111.219,292.918 C107.06,292.919 103.181,294.04 99.735,295.662 C94.564,298.102 90.317,301.666 87.321,304.618 C84.327,307.573 82.591,309.928 82.538,310 C82.025,310.697 81.934,311.61 82.3,312.395 C82.666,313.18 83.423,313.698 84.287,313.753 L84.439,311.398" fill="#F5C2A6" id="path994"/>
    <path d="M102.204,352.398 C108.04,343.64 109.259,338.312 109.259,338.312 C109.259,338.312 112.54,336.992 115.4,334.289 C118.259,331.578 114.579,330.562 117.376,329.703 C120.181,328.851 126.595,327.156 125.353,322.023 C124.501,318.601 113.798,301.07 102.673,300.812 C91.54,300.547 76.447,318.086 76.79,322.25 C77.126,326.437 86.111,353.992 86.111,353.992 C86.111,353.992 94.611,363.82 102.204,352.398" fill="#F5C2A6" id="path996"/>
    <path d="M102.204,352.398 L104.168,353.707 C110.166,344.708 111.501,339.1 111.56,338.838 L109.259,338.312 L110.14,340.502 C110.289,340.432 113.782,339.049 117.021,336.004 L117.024,336.001 C117.634,335.422 118.11,334.818 118.44,334.154 C118.772,333.495 118.927,332.77 118.922,332.148 C118.921,331.446 118.755,330.903 118.665,330.602 C118.618,330.451 118.59,330.357 118.587,330.346 L118.372,330.401 L118.589,330.354 L118.587,330.346 L118.372,330.401 L118.589,330.354 L117.379,330.614 L118.614,330.615 C118.613,330.463 118.594,330.38 118.589,330.354 L117.379,330.614 L118.614,330.615 L116.872,330.615 L118.46,331.322 C118.578,331.064 118.616,330.787 118.614,330.615 L116.872,330.615 L118.46,331.322 L116.892,330.623 L118.146,331.798 C118.254,331.685 118.375,331.515 118.46,331.322 L116.892,330.623 L118.146,331.798 L117.344,331.047 L117.853,332.036 C117.866,332.028 117.982,331.972 118.146,331.798 L117.344,331.047 L117.853,332.036 L117.822,331.976 L117.851,332.036 L117.853,332.036 L117.822,331.976 L117.851,332.036 C117.857,332.033 117.931,332.001 118.067,331.959 L118.062,331.961 C118.677,331.774 119.554,331.523 120.517,331.181 C121.966,330.66 123.632,329.959 125.106,328.764 C125.839,328.164 126.528,327.424 127.043,326.497 C127.56,325.574 127.874,324.458 127.87,323.281 C127.87,322.686 127.794,322.079 127.647,321.468 L127.643,321.453 C127.452,320.715 127.145,320.001 126.709,319.101 C125.948,317.551 124.792,315.575 123.306,313.425 C121.077,310.206 118.126,306.619 114.668,303.725 C112.937,302.28 111.075,301.007 109.083,300.062 C107.093,299.12 104.957,298.505 102.728,298.453 L102.735,298.453 C102.633,298.451 102.529,298.449 102.422,298.449 C99.064,298.461 95.76,299.696 92.619,301.468 C87.913,304.143 83.53,308.11 80.223,311.891 C78.571,313.785 77.194,315.629 76.188,317.295 C75.685,318.13 75.273,318.921 74.964,319.691 C74.662,320.467 74.434,321.204 74.424,322.104 C74.424,322.212 74.428,322.331 74.44,322.462 L74.438,322.438 C74.472,322.853 74.541,323.265 74.634,323.748 C74.984,325.53 75.721,328.264 76.647,331.48 C79.421,341.089 83.863,354.711 83.867,354.723 C83.964,355.022 84.12,355.298 84.326,355.536 C84.411,355.631 85.371,356.739 87.009,357.89 C87.83,358.464 88.824,359.051 89.983,359.506 C91.141,359.96 92.474,360.283 93.931,360.283 C95.622,360.289 97.467,359.826 99.217,358.747 C100.973,357.671 102.63,356.02 104.17,353.705 L104.168,353.707 L102.204,352.398 L100.239,351.091 C98.988,352.973 97.793,354.085 96.752,354.722 C95.705,355.357 94.809,355.557 93.931,355.563 C93.178,355.564 92.428,355.395 91.706,355.112 C90.623,354.691 89.625,354.004 88.929,353.421 C88.58,353.131 88.306,352.87 88.127,352.691 C88.037,352.6 87.972,352.531 87.932,352.488 L87.893,352.446 L87.889,352.441 L86.962,353.255 L87.895,352.448 L87.889,352.441 L86.962,353.255 L87.895,352.448 L86.111,353.992 L88.354,353.26 C88.354,353.259 88.215,352.833 87.969,352.074 C87.11,349.415 84.952,342.702 82.978,336.213 C81.992,332.969 81.051,329.779 80.344,327.196 C79.991,325.906 79.696,324.766 79.487,323.862 C79.382,323.411 79.298,323.019 79.24,322.705 C79.181,322.395 79.149,322.155 79.143,322.061 L79.141,322.038 L78.405,322.104 L79.144,322.104 L79.141,322.038 L78.405,322.104 L79.144,322.104 L78.891,322.104 L79.144,322.117 L79.144,322.104 L78.891,322.104 L79.144,322.117 L79.159,322.023 C79.207,321.763 79.45,321.108 79.889,320.323 C80.653,318.931 81.974,317.077 83.64,315.154 C86.14,312.261 89.431,309.179 92.83,306.89 C94.527,305.744 96.251,304.796 97.889,304.151 C99.528,303.504 101.074,303.167 102.422,303.169 L102.611,303.171 L102.619,303.171 C103.702,303.197 104.823,303.433 105.977,303.866 C107.993,304.62 110.09,305.992 112.068,307.71 C115.039,310.281 117.735,313.608 119.712,316.53 C120.701,317.989 121.514,319.35 122.096,320.446 C122.387,320.993 122.62,321.474 122.786,321.855 C122.951,322.231 123.048,322.524 123.063,322.593 L123.059,322.578 C123.126,322.856 123.15,323.086 123.15,323.281 C123.15,323.538 123.111,323.736 123.044,323.926 C122.927,324.253 122.701,324.589 122.299,324.955 C121.705,325.502 120.729,326.037 119.687,326.45 C118.642,326.871 117.561,327.181 116.691,327.445 L116.686,327.446 C116.08,327.641 115.524,327.844 114.921,328.359 C114.626,328.617 114.335,328.98 114.149,329.401 C113.96,329.821 113.892,330.266 113.894,330.615 C113.896,331.018 113.963,331.308 114.017,331.522 C114.101,331.84 114.163,332.008 114.186,332.1 L114.203,332.175 L114.248,332.167 L114.203,332.171 L114.203,332.175 L114.248,332.167 L114.203,332.171 L114.475,332.148 L114.202,332.148 L114.203,332.171 L114.475,332.148 L114.202,332.148 L114.566,332.148 L114.212,332.066 L114.202,332.148 L114.566,332.148 L114.212,332.066 L114.425,332.115 L114.217,332.047 L114.212,332.066 L114.425,332.115 L114.217,332.047 L114.237,332.054 L114.217,332.045 L114.217,332.047 L114.237,332.054 L114.217,332.045 C114.214,332.055 114.132,332.239 113.776,332.577 L113.779,332.574 C112.538,333.749 111.152,334.662 110.093,335.261 C109.563,335.562 109.116,335.785 108.81,335.929 C108.658,336.001 108.54,336.053 108.466,336.086 L108.387,336.119 L108.374,336.125 L108.666,336.838 L108.378,336.123 L108.374,336.125 L108.666,336.838 L108.378,336.123 C107.661,336.411 107.131,337.032 106.959,337.786 L107.826,337.984 L106.961,337.777 L106.959,337.786 L107.826,337.984 L106.961,337.777 C106.944,337.843 105.737,342.839 100.241,351.089 L100.239,351.091 L102.204,352.398" fill="#F5C2A6" id="path998"/>
    <path d="M92.641,332.493 C92.672,332.539 94.431,335.36 96.958,338.247 C98.225,339.692 99.681,341.156 101.271,342.313 C102.068,342.89 102.901,343.393 103.784,343.764 C104.666,344.134 105.608,344.376 106.597,344.377 C107.417,344.379 108.266,344.201 109.052,343.814 C109.84,343.429 110.552,342.847 111.165,342.11 L111.251,341.998 C111.307,341.918 111.623,341.461 111.94,340.702 C112.254,339.943 112.573,338.874 112.575,337.584 C112.575,336.713 112.423,335.744 112.028,334.757 C111.097,332.431 109.669,330.239 108.067,328.226 C103.261,322.207 96.826,317.73 96.758,317.674 C95.957,317.114 94.853,317.309 94.293,318.11 C93.733,318.911 93.928,320.015 94.729,320.575 L94.753,320.592 C95.041,320.796 97.825,322.79 100.896,325.695 C102.431,327.146 104.036,328.825 105.434,330.603 C106.833,332.38 108.019,334.259 108.74,336.07 C108.957,336.615 109.034,337.115 109.035,337.584 C109.036,338.274 108.856,338.9 108.671,339.343 C108.579,339.564 108.488,339.737 108.426,339.845 L108.36,339.955 L108.373,339.963 L108.361,339.955 L108.36,339.955 L108.373,339.963 L108.361,339.955 L109.806,340.976 L108.447,339.843 C108.098,340.259 107.783,340.493 107.495,340.635 C107.205,340.775 106.93,340.835 106.597,340.837 C106.2,340.838 105.712,340.735 105.155,340.5 C104.178,340.095 103.028,339.285 101.918,338.275 C100.246,336.763 98.65,334.827 97.499,333.284 C96.922,332.512 96.453,331.837 96.131,331.36 C95.97,331.121 95.845,330.931 95.763,330.803 L95.67,330.659 L95.643,330.616 C95.125,329.787 94.033,329.536 93.204,330.054 C92.375,330.572 92.123,331.664 92.641,332.493" fill="#EC988F" id="path1000"/>
    <path d="M96.011,337.254 L96.011,337.255 C96.034,337.312 96.384,338.194 96.721,339.496 C97.059,340.796 97.38,342.516 97.378,344.218 C97.38,346.047 97.009,347.797 96.078,349.104 C95.515,349.903 95.705,351.007 96.504,351.571 C97.303,352.135 98.407,351.944 98.971,351.145 C100.483,348.991 100.916,346.489 100.918,344.218 C100.916,342.016 100.509,339.977 100.11,338.464 C99.709,336.952 99.309,335.969 99.289,335.917 C98.919,335.012 97.886,334.577 96.981,334.947 C96.076,335.316 95.642,336.349 96.011,337.254" fill="#EC988F" id="path1002"/>
    <path d="M111.527,339.369 C111.555,339.37 111.788,339.382 112.166,339.382 C113.202,339.375 115.293,339.308 117.365,338.551 C118.398,338.165 119.456,337.593 120.309,336.65 C120.733,336.18 121.096,335.614 121.343,334.972 C121.591,334.329 121.721,333.616 121.72,332.867 C121.711,330.982 120.96,328.926 119.389,326.472 C116.523,322.03 112.062,317.361 108.293,313.735 C104.525,310.117 101.457,307.577 101.435,307.558 C100.681,306.935 99.566,307.04 98.942,307.793 C98.319,308.546 98.424,309.662 99.177,310.285 L99.307,310.393 C99.962,310.942 103.025,313.539 106.536,316.961 C110.045,320.375 114.007,324.642 116.411,328.387 C117.779,330.504 118.19,331.998 118.18,332.867 C118.18,333.219 118.124,333.479 118.04,333.699 C117.892,334.075 117.646,334.375 117.23,334.674 C116.615,335.119 115.618,335.457 114.634,335.629 C113.652,335.808 112.698,335.843 112.166,335.843 C112.016,335.843 111.899,335.84 111.823,335.838 L111.74,335.835 L111.724,335.834 L111.713,336.041 L111.725,335.834 L111.724,335.834 L111.713,336.041 L111.725,335.834 C110.749,335.779 109.914,336.526 109.859,337.503 C109.804,338.478 110.551,339.314 111.527,339.369" fill="#EC988F" id="path1004"/>
    <path d="M119.67,332.678 C119.778,332.664 121.819,332.52 124.044,331.559 C125.154,331.072 126.333,330.371 127.289,329.274 C127.765,328.726 128.177,328.077 128.465,327.332 C128.753,326.589 128.911,325.755 128.911,324.868 C128.905,322.862 128.141,320.641 126.49,318.067 C123.001,312.636 118.59,308.23 115.046,305.156 C111.501,302.085 108.817,300.351 108.766,300.317 C107.944,299.787 106.849,300.023 106.319,300.845 C105.789,301.666 106.025,302.762 106.846,303.292 L106.867,303.305 C107.126,303.474 109.73,305.2 113.047,308.109 C116.364,311.017 120.391,315.115 123.512,319.979 C124.938,322.195 125.376,323.808 125.371,324.868 C125.37,325.345 125.291,325.723 125.163,326.056 C124.939,326.632 124.546,327.108 123.989,327.535 C123.162,328.173 121.981,328.618 121.019,328.856 C120.538,328.978 120.115,329.053 119.821,329.096 C119.673,329.118 119.559,329.132 119.485,329.14 L119.406,329.148 L119.392,329.15 L119.434,329.65 L119.395,329.149 L119.392,329.15 L119.434,329.65 L119.395,329.149 C118.421,329.225 117.692,330.076 117.768,331.051 C117.844,332.025 118.695,332.754 119.67,332.679" fill="#EC988F" id="path1006"/>
    <path d="M78.697,317.59 C78.698,317.59 78.766,317.513 78.902,317.359 C79.923,316.212 84.642,310.969 89.962,305.941 C92.619,303.428 95.43,300.969 97.964,299.122 C99.23,298.198 100.426,297.429 101.471,296.885 C102.513,296.338 103.412,296.032 103.984,295.967 L103.99,295.967 C105.547,295.769 107.274,295.654 109.035,295.654 C112.307,295.65 115.705,296.06 118.339,296.99 C119.657,297.452 120.777,298.04 121.61,298.718 C122.447,299.4 122.999,300.145 123.307,301.02 C123.64,301.98 123.778,302.931 123.779,303.871 C123.783,305.923 123.091,307.942 122.299,309.555 C121.905,310.361 121.491,311.063 121.141,311.622 C120.966,311.902 120.807,312.147 120.67,312.358 C120.532,312.573 120.422,312.74 120.308,312.94 C119.831,313.793 120.135,314.872 120.989,315.349 C121.842,315.827 122.92,315.522 123.398,314.669 C123.41,314.645 123.509,314.485 123.641,314.283 C124.115,313.549 125.032,312.158 125.825,310.368 C126.619,308.574 127.316,306.349 127.319,303.871 C127.319,302.579 127.124,301.22 126.65,299.856 C126.101,298.276 125.086,296.975 123.84,295.968 C121.964,294.455 119.585,293.53 117.025,292.938 C114.463,292.352 111.703,292.115 109.035,292.114 C107.12,292.114 105.254,292.238 103.544,292.455 L103.55,292.454 C102.235,292.624 100.946,293.151 99.582,293.88 C97.206,295.164 94.612,297.123 91.985,299.355 C84.132,306.043 76.07,315.222 76.039,315.253 C75.394,315.987 75.465,317.105 76.2,317.751 C76.934,318.396 78.052,318.325 78.698,317.591" fill="#EC988F" id="path1008"/>
    <path d="M68.814,358.156 L72.337,351.687 C72.337,351.687 91.642,355.75 104.087,367.594 L101.876,375.047 L68.814,358.156" fill="#E49293" id="path1010"/>
    <path d="M68.814,358.156 L70.305,358.968 L73.828,352.499 L72.337,351.687 L71.988,353.349 L72.031,353.358 C72.539,353.468 77.368,354.554 83.518,357.014 C89.669,359.469 97.132,363.311 102.917,368.823 L104.087,367.594 L102.459,367.111 L100.829,372.605 L69.586,356.644 L68.814,358.156 L70.305,358.968 L68.814,358.156 L68.041,359.668 L101.104,376.559 C101.552,376.788 102.083,376.806 102.545,376.607 C103.008,376.409 103.361,376.012 103.504,375.529 L105.715,368.076 C105.897,367.463 105.721,366.804 105.258,366.364 C98.784,360.211 90.669,356.167 84.164,353.618 C77.657,351.074 72.751,350.04 72.687,350.026 C71.954,349.871 71.204,350.217 70.846,350.875 L67.323,357.344 C67.103,357.748 67.056,358.218 67.192,358.658 C67.328,359.097 67.632,359.459 68.041,359.668 L68.814,358.156" fill="#E49293" id="path1012"/>
    <path d="M68.189,356.539 C68.189,356.539 78.533,359.555 87.298,363.648 C95.947,367.687 103.017,372.82 102.986,372.976 C98.267,394.617 63.587,466.101 40.509,485.969 C26.9,497.687 5.314,485.609 13.587,459.047 C21.767,432.781 53.275,382.812 68.189,356.539" fill="#D2D0C9" id="path1014"/>
    <path d="M68.189,356.539 L67.655,358.37 L67.765,358.403 C68.886,358.733 78.448,361.617 86.491,365.377 C90.706,367.345 94.567,369.596 97.355,371.367 C98.749,372.252 99.876,373.019 100.64,373.563 C101.021,373.835 101.313,374.053 101.486,374.189 L101.629,374.306 L102.362,373.49 L101.55,374.225 L101.629,374.306 L102.362,373.49 L101.55,374.225 L102.845,373.053 L101.388,374.015 C101.471,374.139 101.517,374.187 101.55,374.225 L102.845,373.053 L101.388,374.015 L102.943,372.989 L101.231,373.724 C101.294,373.869 101.347,373.952 101.388,374.015 L102.943,372.989 L101.231,373.724 L102.972,372.976 L101.078,372.976 C101.084,373.367 101.173,373.577 101.231,373.724 L102.972,372.976 L101.078,372.976 L102.986,372.976 L101.122,372.57 C99.999,377.741 96.973,386.233 92.723,396.221 C86.345,411.221 77.206,429.694 67.528,446.229 C62.69,454.496 57.716,462.279 52.898,468.895 C48.084,475.509 43.41,480.958 39.264,484.523 C36.056,487.281 32.447,488.536 28.969,488.539 C25.032,488.535 21.253,486.925 18.414,483.858 C15.582,480.789 13.664,476.239 13.659,470.218 C13.659,467.072 14.189,463.528 15.409,459.614 C17.401,453.211 20.87,445.225 25.183,436.488 C31.653,423.377 40.019,408.554 48.164,394.553 C56.311,380.549 64.235,367.368 69.848,357.481 L68.189,356.539 L67.655,358.37 L68.189,356.539 L66.53,355.597 C59.098,368.69 47.484,387.765 36.701,406.858 C31.309,416.406 26.122,425.962 21.761,434.799 C17.4,443.64 13.863,451.749 11.766,458.479 C10.445,462.717 9.843,466.643 9.843,470.218 C9.837,477.054 12.066,482.618 15.612,486.449 C19.15,490.282 23.98,492.358 28.969,492.354 C33.377,492.358 37.902,490.735 41.754,487.414 C47.76,482.235 54.301,473.947 60.93,464.035 C70.859,449.173 80.913,430.673 88.951,413.821 C92.97,405.394 96.482,397.382 99.22,390.437 C101.958,383.485 103.922,377.626 104.85,373.383 C104.879,373.248 104.894,373.114 104.894,372.976 C104.887,372.582 104.797,372.369 104.737,372.218 C104.607,371.931 104.523,371.846 104.462,371.761 C104.343,371.617 104.285,371.567 104.226,371.51 C104.118,371.409 104.027,371.335 103.914,371.244 C103.506,370.919 102.836,370.431 101.896,369.787 C99.088,367.869 93.979,364.664 88.105,361.92 C79.155,357.743 68.771,354.724 68.723,354.707 C67.876,354.46 66.965,354.83 66.53,355.597 L68.189,356.539" fill="#D2D0C9" id="path1016"/>
    <path d="M205.158,536.148 C215.884,529.476 223.15,513.133 203.204,499.07 C183.259,485.015 205.158,536.148 205.158,536.148" fill="#E49293" id="path1018"/>
    <path d="M205.158,536.148 L206.054,537.59 C209.166,535.652 211.993,532.973 214.07,529.751 C216.144,526.532 217.465,522.75 217.465,518.681 C217.468,515.245 216.512,511.627 214.366,508.071 C212.22,504.511 208.901,501.009 204.183,497.682 C202.91,496.786 201.77,496.118 200.713,495.655 C199.656,495.195 198.672,494.93 197.695,494.927 C196.923,494.924 196.145,495.114 195.491,495.515 C195,495.813 194.591,496.216 194.278,496.661 C193.808,497.333 193.533,498.088 193.361,498.886 C193.19,499.687 193.122,500.543 193.121,501.46 C193.127,504.365 193.806,507.932 194.791,511.755 C197.752,523.184 203.582,536.776 203.597,536.817 C203.792,537.274 204.173,537.618 204.648,537.768 C205.122,537.917 205.632,537.853 206.054,537.59 L205.158,536.148 L206.718,535.48 C206.718,535.48 206.68,535.391 206.606,535.214 C206.047,533.891 203.503,527.786 201.11,520.815 C199.914,517.331 198.756,513.629 197.904,510.219 C197.049,506.815 196.512,503.68 196.517,501.46 C196.507,500.139 196.728,499.167 196.97,498.753 C197.09,498.54 197.18,498.464 197.255,498.416 C197.333,498.372 197.433,498.326 197.695,498.323 C198.018,498.32 198.584,498.428 199.354,498.767 C200.124,499.102 201.089,499.656 202.226,500.458 C206.643,503.572 209.606,506.75 211.457,509.824 C213.308,512.9 214.067,515.868 214.069,518.681 C214.069,522.007 212.992,525.15 211.215,527.912 C209.44,530.671 206.962,533.028 204.261,534.706 L205.158,536.148 L206.718,535.48 L205.158,536.148" fill="#E49293" id="path1020"/>
    <path d="M206.431,533.265 C210.861,528.547 220.494,515.273 204.908,504.265 C189.314,493.281 206.431,533.265 206.431,533.265" fill="#E4B29E" id="path1022"/>
    <path d="M208.892,526.305 C210.103,531.219 193.189,541.289 182.431,536.023 C171.681,530.765 204.892,510.187 208.892,526.305" fill="#F5C2A6" id="path1024"/>
    <path d="M208.892,526.305 L206.6,526.869 L206.777,526.826 L206.593,526.826 L206.6,526.869 L206.777,526.826 L206.593,526.826 C206.596,526.827 206.581,527.017 206.406,527.345 C206.114,527.921 205.369,528.819 204.278,529.715 C202.645,531.073 200.269,532.467 197.626,533.482 C194.983,534.503 192.069,535.149 189.35,535.146 C187.211,535.146 185.207,534.755 183.468,533.903 C182.991,533.669 182.803,533.466 182.737,533.371 C182.675,533.27 182.668,533.26 182.66,533.104 C182.657,532.943 182.716,532.608 182.943,532.147 C183.329,531.338 184.21,530.222 185.444,529.118 C187.291,527.449 189.9,525.774 192.647,524.564 C195.39,523.345 198.284,522.602 200.613,522.61 C202.26,522.609 203.572,522.962 204.508,523.593 C204.982,523.912 205.382,524.302 205.734,524.824 C206.084,525.346 206.386,526.008 206.601,526.873 L206.6,526.869 L208.892,526.305 L211.182,525.736 C210.853,524.408 210.341,523.217 209.652,522.192 C208.624,520.651 207.193,519.524 205.619,518.845 C204.041,518.161 202.338,517.891 200.613,517.89 C198.118,517.893 195.549,518.449 193.051,519.328 C189.308,520.654 185.73,522.709 182.959,525.025 C181.575,526.189 180.39,527.415 179.493,528.726 C179.046,529.383 178.669,530.064 178.392,530.788 C178.117,531.511 177.94,532.285 177.94,533.104 C177.932,534.121 178.247,535.208 178.88,536.091 C179.508,536.981 180.386,537.651 181.394,538.143 C183.91,539.373 186.645,539.866 189.35,539.866 C194.609,539.852 199.815,538.058 203.864,535.715 C205.889,534.535 207.623,533.216 208.943,531.797 C209.602,531.084 210.161,530.345 210.587,529.536 C211.007,528.729 211.31,527.833 211.313,526.826 C211.313,526.471 211.273,526.104 211.183,525.74 L211.182,525.736 L208.892,526.305" fill="#F5C2A6" id="path1026"/>
    <path d="M206.369,540.383 C207.603,545.289 197.697,548.976 186.939,543.695 C176.189,538.445 202.369,524.273 206.369,540.383" fill="#F5C2A6" id="path1028"/>
    <path d="M206.369,540.383 L204.08,540.958 C204.104,541.056 204.113,541.135 204.113,541.207 C204.108,541.385 204.073,541.544 203.884,541.818 C203.608,542.218 202.901,542.79 201.768,543.21 C200.643,543.635 199.13,543.918 197.379,543.916 C194.666,543.918 191.388,543.251 187.979,541.577 L187.974,541.575 C187.307,541.25 186.977,540.941 186.849,540.77 C186.723,540.589 186.737,540.573 186.727,540.475 C186.727,540.404 186.743,540.272 186.831,540.066 C186.977,539.707 187.362,539.154 187.981,538.591 C188.902,537.739 190.311,536.872 191.897,536.259 C193.482,535.64 195.243,535.268 196.865,535.271 C198.597,535.272 200.126,535.677 201.318,536.515 C202.505,537.362 203.493,538.649 204.078,540.951 L204.08,540.958 L206.369,540.383 L208.659,539.814 C207.878,536.614 206.206,534.165 204.029,532.652 C201.857,531.129 199.319,530.55 196.865,530.551 C193.328,530.563 189.873,531.7 187.13,533.367 C185.76,534.209 184.564,535.188 183.636,536.337 C183.173,536.913 182.777,537.535 182.485,538.223 C182.194,538.91 182.007,539.671 182.007,540.475 C181.998,541.578 182.393,542.731 183.101,543.639 C183.807,544.557 184.763,545.257 185.903,545.816 L185.899,545.814 C189.938,547.795 193.904,548.635 197.379,548.636 C200.376,548.63 203.013,548.027 205.092,546.854 C206.129,546.264 207.036,545.518 207.719,544.568 C208.402,543.626 208.837,542.443 208.832,541.207 C208.833,540.739 208.773,540.267 208.657,539.807 L208.659,539.814 L206.369,540.383" fill="#F5C2A6" id="path1030"/>
    <path d="M204.392,516.469 C205.626,521.39 186.845,530.687 176.095,525.422 C165.345,520.148 200.392,500.344 204.392,516.469" fill="#F5C2A6" id="path1032"/>
    <path d="M204.392,516.469 L202.103,517.042 L202.483,516.946 L202.09,516.946 L202.103,517.042 L202.483,516.946 L202.09,516.946 L202.265,516.946 L202.09,516.931 L202.09,516.946 L202.265,516.946 L202.09,516.931 L202.086,516.951 C202.073,517.021 201.972,517.281 201.71,517.626 C201.259,518.237 200.355,519.072 199.142,519.883 C197.322,521.112 194.82,522.324 192.09,523.2 C189.359,524.081 186.395,524.629 183.642,524.627 C181.213,524.629 178.967,524.203 177.133,523.302 C176.679,523.079 176.504,522.888 176.455,522.819 C176.411,522.743 176.424,522.785 176.415,522.69 C176.411,522.592 176.458,522.301 176.689,521.87 C177.08,521.113 178.005,520.028 179.307,518.96 C181.255,517.341 184.013,515.714 186.928,514.536 C189.84,513.35 192.923,512.619 195.458,512.625 C197.295,512.623 198.796,512.999 199.848,513.672 C200.38,514.011 200.818,514.42 201.194,514.955 C201.568,515.49 201.883,516.159 202.101,517.037 L202.103,517.042 L204.392,516.469 L206.682,515.9 C206.343,514.527 205.796,513.296 205.06,512.246 C203.958,510.665 202.433,509.535 200.768,508.858 C199.099,508.175 197.296,507.907 195.458,507.905 C192.87,507.908 190.187,508.437 187.575,509.28 C183.659,510.551 179.908,512.527 177.004,514.759 C175.552,515.881 174.309,517.063 173.36,518.338 C172.887,518.977 172.486,519.642 172.188,520.361 C171.891,521.077 171.696,521.857 171.695,522.69 C171.686,523.682 172.01,524.741 172.63,525.585 C173.248,526.436 174.092,527.068 175.056,527.54 C177.722,528.842 180.678,529.346 183.642,529.347 C189.022,529.336 194.49,527.712 198.781,525.546 C200.927,524.453 202.776,523.23 204.198,521.886 C204.908,521.21 205.517,520.503 205.989,519.706 C206.455,518.913 206.805,517.998 206.81,516.946 C206.81,516.601 206.769,516.245 206.681,515.895 L206.682,515.9 L204.392,516.469" fill="#F5C2A6" id="path1034"/>
    <path d="M196.361,493.273 C196.361,493.273 191.517,484.797 185.9,489.523 C180.275,494.265 183.665,500.531 190.572,498.5 C197.462,496.469 196.431,497.789 196.361,493.273" fill="#F5C2A6" id="path1036"/>
    <path d="M196.361,493.273 L198.41,492.102 C198.349,492.003 197.539,490.575 196.089,489.051 C195.36,488.291 194.468,487.499 193.368,486.859 C192.275,486.223 190.937,485.731 189.421,485.73 C188.581,485.728 187.701,485.887 186.846,486.221 C185.99,486.555 185.163,487.058 184.38,487.718 C183.198,488.714 182.288,489.814 181.665,490.986 C181.043,492.155 180.71,493.4 180.711,494.629 C180.7,496.451 181.477,498.216 182.828,499.413 C184.174,500.622 186.017,501.257 188.018,501.253 C189.047,501.252 190.125,501.09 191.237,500.764 L191.239,500.763 C192.496,500.393 193.475,500.139 194.269,499.933 C194.865,499.778 195.355,499.652 195.816,499.51 C196.162,499.401 196.496,499.286 196.863,499.101 C197.137,498.962 197.437,498.776 197.727,498.508 C198.17,498.114 198.52,497.506 198.655,496.993 C198.8,496.473 198.811,496.061 198.815,495.698 C198.81,494.944 198.734,494.275 198.72,493.237 C198.714,492.838 198.608,492.449 198.41,492.102 L196.361,493.273 L194.001,493.309 C194.021,494.512 194.1,495.366 194.095,495.698 L194.092,495.811 L194.092,495.814 L195.135,495.942 L194.186,495.509 C194.109,495.679 194.094,495.797 194.092,495.814 L195.135,495.942 L194.186,495.509 L195.518,496.117 L194.482,495.082 C194.368,495.193 194.251,495.363 194.186,495.509 L195.518,496.117 L194.482,495.082 L195.279,495.878 L194.704,494.905 C194.666,494.927 194.581,494.983 194.482,495.082 L195.279,495.878 L194.704,494.905 L194.888,495.216 L194.729,494.891 L194.704,494.905 L194.888,495.216 L194.729,494.891 C194.723,494.907 194.221,495.076 193.404,495.281 C192.58,495.496 191.424,495.788 189.904,496.236 L189.907,496.235 C189.182,496.448 188.55,496.533 188.018,496.533 C186.975,496.528 186.344,496.225 185.978,495.899 C185.617,495.561 185.442,495.194 185.431,494.629 C185.431,494.249 185.531,493.769 185.832,493.202 C186.133,492.636 186.637,491.988 187.421,491.327 C187.861,490.957 188.24,490.744 188.561,490.619 C188.884,490.494 189.152,490.451 189.421,490.45 C189.894,490.449 190.418,490.604 190.999,490.94 C191.864,491.434 192.757,492.332 193.372,493.109 C193.682,493.496 193.929,493.848 194.091,494.095 C194.173,494.218 194.233,494.315 194.27,494.376 L194.309,494.44 L194.315,494.45 L195.131,493.976 L194.312,494.444 L194.315,494.45 L195.131,493.976 L194.312,494.444 L196.361,493.273 L194.001,493.309 L196.361,493.273" fill="#F5C2A6" id="path1038"/>
    <path d="M199.97,503.062 C201.251,507.469 187.47,515.726 177.251,510.758 C167.017,505.812 195.822,488.594 199.97,503.062" fill="#F5C2A6" id="path1040"/>
    <path d="M199.97,503.062 L197.704,503.721 L197.911,503.661 L197.693,503.661 L197.704,503.721 L197.911,503.661 L197.693,503.661 L197.678,503.743 C197.652,503.852 197.563,504.076 197.375,504.358 C197.051,504.856 196.434,505.516 195.592,506.164 C194.329,507.143 192.573,508.11 190.599,508.806 C188.624,509.506 186.43,509.939 184.272,509.938 C182.189,509.937 180.148,509.542 178.283,508.635 L178.278,508.633 C177.77,508.388 177.561,508.169 177.493,508.073 C177.428,507.97 177.435,507.985 177.426,507.869 C177.424,507.764 177.46,507.527 177.623,507.182 C177.899,506.577 178.566,505.706 179.534,504.841 C180.98,503.532 183.07,502.216 185.304,501.273 C187.537,500.323 189.922,499.749 191.912,499.755 C193.443,499.754 194.696,500.079 195.611,500.67 C196.074,500.969 196.468,501.335 196.819,501.819 C197.167,502.304 197.472,502.915 197.702,503.713 L197.704,503.721 L199.97,503.062 L202.238,502.412 C201.878,501.152 201.343,500.025 200.649,499.062 C199.611,497.612 198.212,496.562 196.694,495.928 C195.173,495.289 193.546,495.036 191.912,495.035 C189.74,495.037 187.538,495.479 185.42,496.186 C182.244,497.254 179.259,498.914 176.939,500.844 C175.78,501.814 174.784,502.851 174.024,503.991 C173.645,504.561 173.324,505.16 173.089,505.804 C172.855,506.446 172.706,507.139 172.706,507.869 C172.697,508.892 173.033,509.982 173.679,510.854 C174.321,511.733 175.204,512.389 176.224,512.882 L176.22,512.88 C178.824,514.146 181.594,514.658 184.272,514.658 C188.796,514.648 193.077,513.238 196.367,511.317 C198.014,510.349 199.416,509.253 200.491,508.031 C201.028,507.417 201.485,506.768 201.831,506.051 C202.174,505.336 202.411,504.537 202.413,503.661 C202.413,503.248 202.358,502.821 202.236,502.404 L202.238,502.412 L199.97,503.062" fill="#F5C2A6" id="path1042"/>
    <path d="M181.071,515.394 L197.15,511.909 C198.105,511.702 198.712,510.76 198.504,509.805 C198.297,508.849 197.355,508.243 196.4,508.45 L180.322,511.934 C179.366,512.141 178.76,513.083 178.967,514.039 C179.174,514.994 180.116,515.601 181.071,515.394" fill="#EC988F" id="path1044"/>
    <path d="M180.426,530.414 C180.478,530.411 183.88,530.193 188.481,529.301 C193.084,528.403 198.884,526.851 203.799,524.061 C204.648,523.578 204.945,522.497 204.461,521.648 C203.978,520.798 202.897,520.502 202.048,520.985 C197.696,523.468 192.192,524.98 187.807,525.826 C185.613,526.251 183.699,526.517 182.339,526.675 C181.659,526.754 181.118,526.806 180.751,526.838 C180.567,526.854 180.426,526.865 180.333,526.872 L180.23,526.88 L180.201,526.882 C179.225,526.944 178.485,527.786 178.547,528.761 C178.61,529.736 179.451,530.477 180.427,530.415" fill="#EC988F" id="path1046"/>
    <path d="M202.104,533.523 C199.768,535.016 197.087,535.932 194.499,536.462 C191.912,536.994 189.426,537.141 187.511,537.14 C186.391,537.14 185.466,537.091 184.829,537.042 C184.51,537.017 184.263,536.993 184.1,536.975 L183.919,536.955 L183.878,536.95 L183.871,536.949 C182.902,536.818 182.011,537.497 181.88,538.466 C181.749,539.434 182.428,540.326 183.397,540.457 C183.457,540.465 185.062,540.68 187.511,540.68 C189.605,540.68 192.315,540.523 195.211,539.93 C198.105,539.334 201.192,538.303 204.008,536.507 C204.832,535.982 205.074,534.887 204.548,534.063 C204.022,533.239 202.928,532.998 202.104,533.524" fill="#EC988F" id="path1048"/>
    <path d="M67.826,352.686 L64.779,351.561 C63.942,351.252 63.002,351.565 62.517,352.315 C62.498,352.345 53.22,366.684 43.442,385.213 C38.553,394.479 33.538,404.792 29.49,414.909 C25.445,425.031 22.356,434.941 21.356,443.514 C21.234,444.561 21.984,445.508 23.031,445.629 C24.078,445.751 25.025,445.001 25.147,443.954 C26.072,435.941 29.055,426.261 33.033,416.326 C38.997,401.415 47.178,385.904 53.862,374.145 C57.204,368.265 60.172,363.32 62.303,359.848 C63.369,358.112 64.225,356.744 64.813,355.812 C65.108,355.345 65.335,354.988 65.489,354.748 C65.643,354.508 65.72,354.388 65.72,354.388 L64.119,353.351 L63.458,355.141 L66.504,356.266 C67.493,356.631 68.59,356.126 68.955,355.137 C69.32,354.149 68.815,353.052 67.826,352.687" fill="#A5A5A1" id="path1050"/>
    <path d="M100.957,381.041 C100.957,381.042 100.854,381.314 100.653,381.842 C99.141,385.804 92.117,403.931 82.525,424.333 C77.729,434.533 72.292,445.302 66.591,455.141 C60.893,464.98 54.921,473.893 49.128,480.343 C48.424,481.127 48.489,482.333 49.274,483.037 C50.058,483.741 51.264,483.676 51.968,482.891 C58.449,475.666 64.922,465.806 71.044,455.048 C80.221,438.915 88.58,420.767 94.657,406.637 C100.733,392.508 104.522,382.401 104.53,382.38 C104.9,381.394 104.4,380.294 103.413,379.924 C102.426,379.554 101.327,380.054 100.957,381.041" fill="#A5A5A1" id="path1052"/>
    <path d="M124.847,317.29 L124.429,316.802 L124.843,317.294 L124.847,317.29 L124.429,316.802 L124.843,317.294 C124.856,317.281 125.442,316.796 126.286,316.345 C127.129,315.886 128.22,315.491 129.174,315.499 C129.783,315.503 130.332,315.629 130.905,315.982 C131.475,316.337 132.103,316.953 132.721,318.082 C133.189,318.94 134.264,319.256 135.122,318.788 C135.98,318.32 136.297,317.245 135.829,316.387 C134.987,314.839 133.947,313.702 132.773,312.975 C131.602,312.243 130.33,311.955 129.174,311.959 C127.273,311.968 125.665,312.653 124.501,313.286 C123.338,313.926 122.609,314.547 122.546,314.6 C121.803,315.235 121.716,316.352 122.351,317.095 C122.986,317.838 124.104,317.926 124.847,317.291" fill="#EC988F" id="path1054"/>
  </g>
</svg>
