<?xml version="1.0" encoding="UTF-8"?>
<!DOCTYPE svg PUBLIC "-//W3C//DTD SVG 1.1//EN" "http://www.w3.org/Graphics/SVG/1.1/DTD/svg11.dtd">
<svg version="1.1" xmlns="http://www.w3.org/2000/svg" xmlns:xlink="http://www.w3.org/1999/xlink" x="0" y="0" width="1140" height="1092" viewBox="0, 0, 1140, 1092">
  <defs>
    <clipPath id="Clip_1">
      <path d="M0,0.29 L1139.85,0.29 L1139.85,1091.94 L0,1091.94 z"/>
    </clipPath>
  </defs>
  <g id="Layer_1">
    <g clip-path="url(#Clip_1)">
      <path d="M1086.53,731.102 C1085.11,730.855 1083.96,731.496 1082.78,732.156 C1068.58,740.158 1053.02,743.604 1037.04,744.991 C998.166,748.365 960.579,741.12 923.457,730.498 C923.148,730.41 922.881,730.171 922.594,730.003 C922.877,727.385 925.177,726.696 926.953,725.628 C973.309,697.737 1004.22,657.56 1021.66,606.665 C1023.34,601.781 1025.09,596.918 1026.42,591.925 C1027.25,588.81 1029.04,587.095 1032.3,586.742 C1034.61,586.492 1036.92,586.127 1039.22,585.785 C1055.23,583.412 1067.28,575.471 1073.43,560.143 C1080,543.786 1080.24,526.981 1075.13,510.206 C1070.8,495.955 1060.39,487.875 1045.55,486.544 C1044.56,486.454 1043.55,486.5 1042.56,486.408 C1037.89,485.974 1037.09,484.639 1038.87,480.234 C1039.18,479.464 1039.64,478.752 1039.88,477.95 C1041.44,472.731 1038,467.803 1032.58,468.087 C1016.13,468.949 1000.5,464.963 985.077,460.109 C936.06,444.68 889.982,422.639 845.694,396.836 C822.319,383.218 801.186,366.485 781.234,348.16 C752.649,321.903 728.984,291.83 709.654,258.28 C705.254,250.643 700.79,243.006 697.403,234.824 C696.76,233.269 695.929,231.839 694.656,230.703 C690.076,226.615 683.195,228.512 682.382,234.53 C681.722,239.41 678.947,241.267 674.921,242.695 C654.886,249.804 636.087,259.351 618.461,271.263 C586.407,292.924 561.249,320.892 542.126,354.397 C521.699,390.186 510.339,428.988 504.027,469.463 C503.386,473.575 502.825,477.699 502.174,481.81 C501.711,484.734 500.429,486.281 497.368,486.417 C473.455,487.483 464.702,505.376 463.123,523.473 C462.634,529.076 461.609,534.677 462.927,540.352 C463.317,542.031 463.326,544.058 461.568,545.378 C459.176,544.712 458.965,542.486 458.417,540.669 C451.656,518.287 447.147,495.507 445.247,472.147 C443.974,456.492 443.876,440.82 444.648,425.241 C446.095,396.057 451.371,367.411 459.741,339.363 C462.553,329.938 465.769,320.661 469.248,311.475 C471.151,306.45 472.214,305.892 477.106,307.765 C491.048,313.105 505.416,316.647 520.303,317.474 C538.462,318.482 555.441,314.913 569.865,302.536 C559.589,303.999 549.49,304.261 539.436,301.79 C516.757,296.218 504.614,280.42 497.994,259.253 C496.992,256.049 497.744,253.01 499.525,250.185 C519.799,218.014 544.367,189.825 575.76,167.966 C577.265,166.919 578.778,165.894 580.028,164.536 C584.036,160.39 589.427,159.043 594.63,157.289 C596.736,156.579 598.431,157.116 600.227,158.327 C605.391,161.808 607.905,161.696 612.769,157.834 C628.192,145.586 644.276,134.412 662.174,125.964 C686.696,114.391 712.506,107.733 739.388,104.834 C754.304,103.225 769.268,102.194 784.239,102.941 C826.597,105.055 868.61,109.452 908.548,125.115 C942.853,138.569 973.653,157.781 1001.23,182.213 C1047.55,223.261 1080.96,273.076 1102.56,330.972 C1112.46,357.495 1119.13,384.817 1121.75,412.958 C1125.65,454.637 1122.43,495.756 1110.07,535.972 C1105.4,551.143 1099.5,565.763 1092.36,579.938 C1084.65,595.26 1076.61,610.422 1069.7,626.141 C1063.35,640.585 1058.5,655.519 1058.17,671.376 C1057.77,690.993 1065.48,707.61 1078.75,721.878 C1081.47,724.807 1085.6,726.641 1086.53,731.102" fill="#D7AA6F"/>
      <path d="M653.256,746.425 C648.475,752.449 643.883,758.234 638.868,764.554 C635.01,754.817 631.388,745.673 627.364,735.516 C636.519,739.373 644.671,742.808 653.256,746.425 z M1110.39,580.341 C1142.96,508.417 1148.02,434.133 1128.07,358.11 C1111.17,293.706 1079.03,237.623 1032.79,189.792 C994.078,149.754 948.798,119.577 895.192,103.483 C846.113,88.748 795.693,84.215 744.597,88.089 C705.363,91.064 668.327,101.71 634.732,122.439 C622.613,129.917 610.624,136.801 596.482,139.499 C592.289,140.299 588.275,142.183 584.268,143.793 C531.208,165.114 491.24,201.87 460.93,249.579 C427.616,302.014 409.806,359.601 405.622,421.486 C401.822,477.68 410.999,531.523 435.072,582.611 C443.993,601.543 454.628,619.638 462.586,639.053 C464.196,642.979 463.742,644.576 459.548,646.219 C409.298,665.905 359.128,685.794 308.953,705.671 C294.389,711.44 289.196,723.381 294.925,737.866 C339.453,850.458 383.991,963.046 428.555,1075.62 C434.449,1090.51 446.15,1095.49 461.126,1089.58 C517.504,1067.31 573.871,1045.02 630.242,1022.74 C640.063,1018.86 649.882,1014.97 660.277,1010.86 C660.277,1013.87 660.225,1016.16 660.287,1018.44 C660.437,1023.91 663.439,1027.18 668.327,1027.26 C673.527,1027.35 676.669,1024.13 676.905,1018.4 C677.062,1014.57 677.245,1010.75 677.23,1006.92 C677.222,1005.01 677.758,1003.83 679.662,1003.15 C682.945,1001.98 686.156,1000.6 689.394,999.31 C690.727,998.777 691.866,998.56 692.758,1000.161 C694.549,1003.38 697.922,1004.11 701.056,1005.2 C732.87,1016.24 765.371,1024.53 798.804,1028.78 C823.181,1031.87 847.606,1032.83 871.784,1027.02 C898.175,1020.68 918.183,1006.56 927.342,979.932 C935.921,954.988 934.748,929.432 931.162,903.868 C926.128,867.975 915.544,833.544 903.099,799.626 C897.088,783.243 890.371,767.152 883.415,751.155 C882.84,749.831 880.503,748.078 883.846,746.953 C897.257,742.438 909.897,736.154 922.594,730.003 C924.535,728.739 926.435,727.407 928.423,726.222 C940.33,719.12 951.462,710.963 961.749,701.673 C993.522,672.98 1013.95,637.287 1026.42,596.697 C1029.13,587.872 1029.2,588.121 1038.19,587.124 C1055.48,585.209 1068.13,576.632 1074.79,560.251 C1080.75,545.587 1081.05,530.39 1077.76,515.13 C1073.5,495.383 1062.29,486.066 1042.23,485.345 C1037.25,485.166 1038.48,483.056 1040.21,480.445 C1042.37,477.186 1042.41,473.802 1040.34,470.597 C1038.26,467.372 1035.16,466.286 1031.28,466.763 C1028.33,467.125 1025.28,467.154 1022.32,466.863 C1009.35,465.589 996.771,462.496 984.381,458.565 C939.127,444.209 896.316,424.289 855.16,400.852 C794.845,366.506 746.82,319.488 711.761,259.437 C706.726,250.813 702.035,242.003 697.873,232.911 C695.734,228.239 691.874,226.176 687.405,227.258 C682.95,228.336 680.44,231.37 680.841,235.963 C681.194,240.001 678.109,240.09 675.848,240.912 C604.298,266.928 554.754,315.792 525.465,385.675 C512.581,416.417 505.257,448.603 501.058,481.559 C500.73,484.131 500.231,485.24 497.307,485.37 C479.458,486.164 468.322,495.378 463.713,512.604 C460.83,523.376 461.118,534.3 461.703,545.263 C460.559,546.839 461.345,548.451 461.659,550.028 C463.233,557.918 466.252,565.191 471.048,571.688 C475.317,576.115 479.504,580.611 485.215,583.294 C491.123,586.07 497.205,588.115 503.78,588.563 C507.022,588.784 510.023,589.441 511.027,593.349 C513.052,601.236 515.768,608.909 518.742,616.482 C519.898,619.424 519.195,621.106 516.194,622.228 C510.442,624.378 504.796,626.808 499.06,628.997 C495.194,630.538 491.341,632.118 487.464,633.634 C481.915,635.805 481.524,635.619 479.263,630.302 C475.485,621.414 471.58,612.58 467.155,603.993 C461.207,592.453 455.066,581.028 449.651,569.201 C431.953,530.552 424.45,489.709 423.229,447.564 C422.82,433.45 424.263,419.335 425.924,405.283 C432.018,353.733 448.273,305.701 475.632,261.523 C490.205,237.991 508.154,217.324 528.995,199.123 C544.663,185.44 562.246,174.726 580.695,165.317 C584.721,161.629 589.966,160.496 594.815,158.51 C596.756,157.715 597.964,157.934 599.554,159.532 C603.48,163.477 608.291,163.676 612.414,159.898 C618.796,154.05 626.029,149.32 633.044,144.412 C671.782,117.312 715.639,106.172 762.252,104.389 C787.418,103.427 812.4,105.788 837.368,108.974 C870.173,113.159 901.555,121.852 931.19,136.557 C972.979,157.295 1008.65,185.924 1038,222.044 C1099.61,297.873 1130.28,383.676 1119.79,482.252 C1116.46,513.582 1108.13,543.591 1094.77,572.155 C1086.31,590.244 1076.34,607.593 1068.35,625.919 C1062.26,639.891 1057.5,654.278 1056.93,669.592 C1055.97,695.171 1067.61,714.951 1086.53,731.103 C1087.3,731.74 1088.02,732.443 1088.85,733.002 C1093.35,736.066 1098.27,735.498 1101.33,731.599 C1104.27,727.849 1103.59,722.764 1099.63,719.138 C1098.4,718.013 1097.09,716.976 1095.86,715.855 C1083.48,704.581 1074.92,691.381 1074.53,673.975 C1074.23,660.517 1078.23,648.052 1083.26,635.85 C1091.13,616.775 1101.9,599.102 1110.39,580.341" fill="#6E4100"/>
      <path d="M225.643,0.29 C278.114,1.216 331.581,18.632 376.407,58.76 C408.748,87.712 429.577,123.459 435.466,166.791 C441.698,212.638 430.221,254.339 402.767,291.461 C376.41,327.1 341.319,350.87 299.69,365.255 C295.121,366.833 293.643,368.48 294.59,373.547 C297.564,389.447 305.626,402.237 317.131,413.158 C321.889,417.674 323.063,421.723 320.504,425.881 C318.086,429.811 314.298,430.508 310.056,430.114 C288.658,428.131 269.464,420.382 252.088,407.925 C242.15,400.801 233.277,392.495 225.83,382.801 C223.522,379.798 221.062,378.989 217.435,378.931 C163.097,378.051 113.436,362.966 70.558,328.82 C34.848,300.382 10.735,264.321 2.758,218.772 C-6.254,167.316 7.025,121.346 39.576,81.099 C72.958,39.824 117.14,16.177 168.575,5.311 C185.067,1.827 201.802,0.365 225.643,0.29" fill="#6E4100"/>
    </g>
    <path d="M256.06,708.144 C254.975,707.849 253.035,707.411 251.153,706.797 C235.042,701.535 218.941,696.243 202.837,690.957 C196.408,688.846 193.772,684.737 195.49,679.52 C197.157,674.458 201.531,672.599 207.75,674.61 C224.827,680.132 241.888,685.706 258.915,691.381 C263.906,693.044 265.856,696.542 265.032,701.399 C264.361,705.35 261.085,708.08 256.06,708.144" fill="#EF6F63"/>
    <path d="M212.123,787.058 C207.33,786.712 204.212,784.704 203.145,780.523 C202.02,776.117 203.667,772.57 207.875,770.69 C214.254,767.842 220.938,765.807 227.732,764.23 C234.523,762.653 241.29,761.074 247.855,758.656 C253.745,756.486 258.525,758.395 260.275,763.276 C261.983,768.037 259.4,772.436 253.596,774.729 C242.746,779.015 231.039,780.276 220.093,784.22 C217.293,785.229 214.486,786.217 212.123,787.058" fill="#EF6F63"/>
    <path d="M253.12,596.036 C255.324,595.791 257.167,596.858 258.842,598.32 C268.615,606.85 278.447,615.315 288.12,623.957 C292.026,627.447 292.272,632.97 289.1,636.418 C285.772,640.035 280.768,640.133 276.64,636.55 C266.97,628.155 257.361,619.69 247.681,611.308 C244.334,608.41 243.576,604.787 245.082,600.936 C246.387,597.597 249.17,595.769 253.12,596.036" fill="#EF6F63"/>
    <path d="M499.746,630.04 C494.361,632.207 488.948,634.307 483.607,636.577 C481.79,637.349 480.638,637.596 479.789,635.322 C470.012,609.126 454.554,585.603 444.142,559.703 C430.996,527 423.764,493.029 422.637,457.804 C420.301,384.788 438.276,317.189 477.895,255.74 C502.506,217.567 534.475,187.064 575.588,166.819 C577.191,166.03 578.675,164.733 580.695,165.317 C576.759,169.654 571.583,172.408 567.028,175.953 C539.89,197.075 518.147,222.92 499.985,251.951 C498.625,254.125 498.544,256.204 499.178,258.592 C507.353,289.411 534.115,306.77 565.576,301.627 C567.695,301.28 569.835,301.064 572.477,300.72 C570.729,304.526 567.513,306.26 564.663,308.19 C550.794,317.583 535.171,319.826 518.894,318.804 C504.004,317.869 489.711,314.118 475.858,308.717 C473.068,307.63 471.926,308.052 470.836,310.925 C460.241,338.854 452.812,367.565 448.675,397.162 C445.669,418.667 444.844,440.256 445.844,461.895 C447.138,489.934 452.216,517.336 460.881,544.052 C461.025,544.497 461.423,544.861 461.703,545.263 C463.565,554.454 466.663,563.164 471.754,571.099 C477.177,578.754 480.159,587.693 484.757,595.809 C490.082,605.21 494.977,614.902 499.093,624.934 C499.756,626.55 501.144,628.135 499.746,630.04" fill="#FEFEFE"/>
    <path d="M1015.5,420.261 C1013.4,420.543 1011.59,419.691 1009.77,418.844 C957.171,394.488 909.217,363.407 869.219,321.019 C847.029,297.502 828.201,271.605 815.836,241.442 C814.955,239.293 814.178,237.081 813.59,234.836 C812.35,230.103 814.825,225.632 819.341,224.164 C823.768,222.725 828.513,224.848 830.202,229.585 C833.512,238.87 837.733,247.694 842.587,256.251 C860.148,287.209 883.701,313.085 910.593,336.054 C942.849,363.607 978.983,385.048 1017.29,403.006 C1023.95,406.128 1026.08,412.158 1022.37,416.987 C1020.65,419.225 1018.46,420.595 1015.5,420.261" fill="#6E4100"/>
    <path d="M1000.85,615.262 C991.704,638.421 978.475,659.004 961.505,677.177 C932.06,708.709 895.421,727.723 853.882,737.382 C791.078,751.986 728.513,751.023 666.589,732.131 C650.33,727.171 634.913,720.135 620.34,711.326 C618.648,710.304 616.959,709.415 616.141,707.318 C605.71,680.563 595.21,653.835 584.727,627.1 C583.232,623.784 585.807,623.177 587.938,622.242 C608.373,613.278 621.111,597.941 625.898,576.126 C627.845,567.255 625.092,558.971 622.078,550.831 C617.616,538.784 611.252,527.898 600.736,520.133 C582.144,506.405 557.364,507.087 539.066,521.288 C532.942,526.041 527.817,531.593 523.469,537.953 C522.585,539.245 522.099,541.113 519.975,541.066 C513.887,498.661 520.098,457.518 532.779,417.06 C545.365,376.902 565.203,340.969 595.373,311.247 C621.154,285.85 651.492,267.773 685.665,255.994 C688.143,255.14 689.398,255.26 690.758,257.768 C731.197,332.361 790.307,387.669 865.284,426.586 C904.27,446.821 944.084,465.067 986.349,477.487 C996.735,480.539 1007.28,482.899 1018.06,484.006 C1020.16,484.221 1021.48,484.608 1021.55,487.064 C1022.15,507.2 1022.4,527.317 1018.84,547.265 C1015.52,547.125 1015.29,544.089 1014.29,542.059 C1010,533.401 1004.42,525.743 996.591,520.088 C979.527,507.757 961.208,506.827 942.903,516.52 C921.861,527.663 910.756,546.32 908.318,569.499 C906.43,587.459 914.191,602.408 928.976,612.395 C946.405,624.168 965.631,628.723 986.415,621.394 C990.427,619.979 993.68,617.387 997.245,615.263 C998.27,614.652 999.677,612.581 1000.85,615.262" fill="#FEF8EA"/>
    <path d="M830.807,1013.6 C799.298,1013.09 767.434,1006.53 735.942,997.771 C728.585,995.724 721.354,993.226 714.01,991.128 C711.263,990.342 710.375,989.233 711.016,986.225 C715.45,965.41 719.826,944.581 723.888,923.692 C724.782,919.098 726.61,919.074 730.556,919.826 C771.067,927.547 811.623,935.031 852.167,942.578 C857.871,943.639 862.434,940.755 863.404,935.496 C864.29,930.697 861.008,926.344 855.413,925.291 C828.285,920.19 801.142,915.164 774.007,910.101 C757.004,906.929 740.005,903.739 723.005,900.553 C719.881,899.967 716.726,899.282 713.779,901.085 C712.588,901.814 711.646,901.664 710.629,900.895 C710.099,900.494 709.522,900.156 708.979,899.772 C701.51,894.495 692.059,891.112 686.736,883.986 C681.553,877.048 679.62,867.67 676.317,859.341 C666.887,835.565 657.564,811.745 647.986,788.028 C646.609,784.616 646.996,782.397 649.314,779.615 C656.027,771.558 662.489,763.285 668.862,754.954 C670.642,752.627 672.172,752.149 675.077,752.955 C685.894,755.959 685.888,755.799 684.546,766.991 C683.12,778.889 681.768,790.796 680.444,802.706 C679.746,808.975 681.763,812.083 687.724,813.945 C693.587,815.776 699.445,817.649 705.387,819.19 C708.98,820.122 710.167,821.166 708.344,825.127 C703.694,835.231 699.591,845.587 695.308,855.858 C692.296,863.082 693.293,866.221 699.911,870.397 C713.976,879.274 728.05,888.138 742.138,896.978 C745.722,899.226 749.429,899.416 752.846,896.758 C756.105,894.223 756.795,890.696 755.624,886.864 C754.853,884.342 752.817,882.874 750.642,881.52 C739.631,874.662 728.75,867.588 717.619,860.931 C714.248,858.915 713.57,857.271 715.209,853.617 C720.169,842.559 724.746,831.327 729.401,820.134 C732.318,813.119 730.172,808.537 722.946,806.282 C716.128,804.155 709.294,802.079 702.431,800.105 C699.771,799.339 698.304,798.367 698.757,795.057 C700.268,784.014 701.499,772.93 702.666,761.844 C702.912,759.504 703.653,759.08 705.802,759.648 C708.042,760.241 710.43,760.912 712.68,760.715 C721.906,759.909 724.571,765.31 726.971,773.122 C737.508,807.415 748.777,841.483 759.664,875.67 C761.169,880.397 763.431,883.94 768.835,883.909 C774.255,883.878 776.427,880.24 777.894,875.537 C789.069,839.69 800.45,803.907 811.508,768.025 C812.825,763.752 814.504,761.674 819.162,761.622 C823.454,761.574 827.775,760.752 832.005,759.887 C834.278,759.422 834.924,760.053 835.151,762.144 C836.391,773.558 837.611,784.976 839.06,796.364 C839.414,799.152 837.609,799.357 835.958,799.87 C828.983,802.035 821.973,804.087 814.994,806.242 C807.789,808.465 805.586,813.036 808.466,820.048 C813.198,831.573 817.929,843.101 822.922,854.514 C824.219,857.477 823.643,858.766 820.981,860.387 C809.762,867.222 798.685,874.29 787.58,881.311 C781.669,885.049 780.035,889.903 782.996,894.629 C785.845,899.175 791.223,899.799 797.013,896.167 C810.82,887.506 824.614,878.826 838.393,870.121 C844.444,866.298 845.467,862.979 842.659,856.241 C838.187,845.509 833.692,834.787 829.112,824.101 C828.091,821.72 827.928,820.477 831.073,819.684 C837.182,818.144 843.142,816.02 849.174,814.174 C856.576,811.91 858.292,809.012 857.342,801.21 C855.694,787.662 854.337,774.078 852.605,760.541 C852.156,757.03 852.9,755.615 856.581,754.895 C864.964,753.254 864.98,752.988 868.303,760.586 C886.652,802.539 902.308,845.394 911.159,890.473 C915.472,912.443 917.906,934.547 914.854,956.954 C910.604,988.149 893.967,1005.51 862.964,1011.06 C852.768,1012.89 842.495,1013.61 830.807,1013.6" fill="#FEFEFE"/>
    <path d="M459.792,699.057 C487.701,687.984 515.645,676.998 543.479,665.74 C547.461,664.129 547.658,666.758 548.503,668.893 C566.269,713.791 583.995,758.704 601.728,803.616 C605.072,812.084 608.41,820.555 612.091,829.888 C599.827,826.181 589.925,829.079 581.878,838.099 C572.145,841.934 562.433,845.823 552.739,849.754 C546.168,852.418 543.948,855.838 545.608,860.343 C547.231,864.744 551.98,865.886 558.504,863.421 C562.702,861.835 566.785,859.947 571.048,858.542 C572.865,857.944 574.719,856.718 576.733,858.074 C577.479,860.722 578.224,863.37 578.97,866.018 C575.941,869.483 571.368,869.88 567.534,871.741 C564.846,873.046 561.916,873.829 559.301,875.31 C555.44,877.496 553.984,881.667 555.691,885.5 C557.149,888.777 560.914,890.162 565.062,888.758 C572.771,886.148 580.163,882.692 587.889,880.122 C596.681,888.707 604.824,898.027 615.991,904.37 C600.532,915.261 597.647,930.131 601.252,947 C601.879,949.933 601.005,950.702 598.63,951.638 C551.649,970.139 504.689,988.696 457.757,1007.32 C455.45,1008.24 454.395,1008.3 453.355,1005.64 C435.904,961.117 418.343,916.632 400.806,872.138 C401.968,863.27 405.881,855.234 408.466,846.793 C408.889,845.819 409.471,844.993 410.519,844.609 C412.468,844.185 414.391,843.694 416.258,842.945 C445.603,831.17 475.031,819.607 504.464,808.054 C510.137,805.828 510.161,805.751 507.979,800.142 C497.845,774.086 487.537,748.099 477.169,722.135 C474.93,716.529 474.654,716.43 469.169,718.583 C465.141,720.164 461.153,721.847 457.106,723.378 C455.304,724.059 453.492,725.285 451.439,724.013 C450.68,722.777 450.861,721.473 451.259,720.208 C453.131,714.266 455.116,708.361 457.12,702.463 C457.62,700.992 458.541,699.909 459.792,699.057" fill="#CBF0FE"/>
    <path d="M553.691,990.011 C540.03,1003.58 544.388,1019.67 564.976,1029.54 C555.349,1033.41 546.191,1037.15 536.994,1040.78 C510.387,1051.3 483.758,1061.77 457.152,1072.29 C448.236,1075.81 447.302,1075.45 443.856,1066.74 C401.705,960.153 359.549,853.568 317.401,746.979 C315.383,741.876 313.432,736.746 311.448,731.629 C309.19,725.804 309.872,724.153 315.743,721.814 C333.671,714.675 351.606,707.554 369.552,700.462 C426.326,678.022 483.107,655.597 539.887,633.173 C545.457,630.973 551.049,628.828 556.621,626.634 C563.069,624.095 564.653,624.726 567.196,631.14 C579.333,661.759 591.453,692.384 603.565,723.013 C621.12,767.41 638.663,811.812 656.203,856.215 C656.738,857.57 657.178,858.962 657.236,860.653 C648.614,852.673 637.706,848.002 632.847,835.299 C609.609,774.553 585.325,714.207 561.407,653.721 C557.525,643.903 554.388,642.522 544.634,646.381 C475.489,673.733 406.348,701.094 337.209,728.461 C329.432,731.539 327.733,735.553 330.821,743.364 C367.261,835.57 403.698,927.778 440.146,1019.98 C443.548,1028.59 447.404,1030.31 456.026,1026.9 C486.814,1014.74 517.579,1002.52 548.358,990.337 C549.744,989.788 551.188,989.384 552.605,988.912 C553.665,988.588 553.917,989.064 553.691,990.011" fill="#9D9D9D"/>
    <path d="M1000.85,615.262 C1000.43,615.144 999.805,614.781 999.609,614.942 C982.177,629.253 962.924,628.305 943.19,621.343 C923.903,614.539 911.522,601.385 907.467,580.911 C905.017,568.538 908.259,557.047 913.409,546.206 C922.16,527.78 936,514.875 956.41,510.063 C975.201,505.632 996.021,513.579 1007.77,529.047 C1012.13,534.786 1014.67,541.492 1018.84,547.264 C1016.11,570.795 1010.31,593.511 1000.85,615.262" fill="#FFD5BA"/>
    <path d="M519.975,541.066 C528.575,526.83 540.058,516.171 556.293,511.109 C576.032,504.954 598.753,511.975 611.265,528.403 C619.656,539.421 625.642,551.742 627.403,565.418 C629.417,581.055 622.874,594.314 612.61,605.708 C605.484,613.619 598.015,621.309 587.064,623.926 C585.192,624.373 584.659,625.42 584.728,627.101 C584.512,626.85 584.211,626.634 584.092,626.344 C576.65,608.152 566.469,603.781 548.341,611.011 C538.228,615.045 538.231,615.043 534.469,604.546 C527.093,583.966 522.154,562.831 519.975,541.066" fill="#FFD5BA"/>
    <path d="M671.923,978.982 C660.456,978.702 649.516,976.259 639.311,970.902 C625.609,963.709 616.308,947.541 617.579,933.231 C618.428,923.669 623.891,918.115 633.476,917.138 C635.622,916.919 637.826,917.078 639.93,916.678 C644.182,915.868 646.73,913.127 647.081,908.832 C647.428,904.582 645.301,901.827 641.439,899.82 C624.593,891.065 609.96,879.525 598.365,864.38 C596.876,862.436 595.753,860.082 594.988,857.745 C593.931,854.514 593.752,851.298 596.526,848.46 C599.406,845.512 602.696,845.416 606.179,846.569 C611.438,848.31 616.114,851.192 620.432,854.625 C637.241,867.986 654.032,881.371 670.816,894.764 C681.242,903.083 692.646,909.977 703.774,917.26 C706.291,918.907 706.961,920.334 706.331,923.248 C702.998,938.685 699.796,954.152 696.751,969.648 C695.561,975.705 689.83,974.983 686.128,976.883 C681.915,979.044 676.793,979.047 671.923,978.982" fill="#FEF8EA"/>
    <path d="M563.816,984.291 C577.996,978.659 592.174,973.022 606.359,967.402 C607.933,966.779 609.287,966.374 610.603,968.289 C620.392,982.529 634.74,989.702 650.908,993.986 C651.328,994.097 651.716,994.329 652.192,994.536 C647.933,997.116 589.949,1020.01 585.129,1020.95 C590.637,1012.73 591.915,1004.29 586.862,995.737 C581.72,987.038 573.685,983.988 563.816,984.291" fill="#9D9D9D"/>
    <path d="M794.419,763.993 C790.327,777.141 786.444,789.474 782.681,801.844 C782.046,803.932 780.775,804.172 778.949,804.155 C771.962,804.091 764.971,804.024 757.988,804.189 C755.674,804.243 754.859,803.319 754.222,801.284 C750.655,789.887 746.999,778.517 743.26,767.175 C742.5,764.869 742.545,763.852 745.426,764.013 C761.52,764.911 777.627,764.889 794.419,763.993" fill="#FEF8EA"/>
    <path d="M1061.98,532.351 C1061.94,539.512 1061.47,546.608 1058.73,553.377 C1054.6,563.549 1046.64,568.345 1036.2,569.907 C1032.45,570.467 1033.46,568.026 1033.81,566.252 C1037.1,549.567 1038.64,532.695 1039.39,515.735 C1039.52,512.745 1039.74,509.725 1039.48,506.759 C1039.18,503.48 1040.61,502.945 1043.49,502.937 C1050.83,502.916 1055.85,506.133 1058.73,512.821 C1061.43,519.062 1061.97,525.661 1061.98,532.351" fill="#FEF8EA"/>
    <path d="M478.653,534.019 C479.053,525.481 479.499,518.375 482.729,511.78 C484.396,508.374 486.774,505.717 490.292,504.206 C497.77,500.994 500.145,502.577 500.274,510.511 C500.571,528.795 502.189,546.962 505.737,564.915 C506.516,568.857 506.345,570.467 501.483,569.331 C489.786,566.598 482.165,558.617 479.927,545.504 C479.204,541.264 478.967,536.941 478.653,534.019" fill="#FEF8EA"/>
    <path d="M499.746,630.04 C495.134,617.616 488.48,606.174 482.591,594.364 C478.773,586.706 474.383,579.313 471.754,571.1 C479.211,579.004 487.885,584.789 498.817,586.648 C499.306,586.731 499.809,587.03 500.266,586.962 C509.783,585.549 512.48,591.251 514.2,599.206 C515.588,605.626 518.334,611.785 520.816,617.923 C521.908,620.623 521.321,621.753 518.748,622.701 C512.377,625.047 506.075,627.581 499.746,630.04" fill="#D7AA6F"/>
    <path d="M376.695,731.962 C386.996,726.738 397.883,722.962 408.698,719.009 C411.232,719.665 410.092,721.526 409.681,722.762 C407.411,729.583 405.627,736.577 402.62,743.147 C402.2,743.825 401.677,744.416 401.075,744.937 C391.828,749.678 381.988,752.974 372.299,756.638 C371.039,757.115 369.718,757.209 368.555,756.251 C367.799,754.986 368.026,753.643 368.522,752.432 C371.308,745.633 371.848,737.935 376.695,731.962" fill="#F2FAFE"/>
    <path d="M576.733,858.074 C569.979,859.875 563.682,862.901 557.18,865.377 C549.805,868.185 543.637,864.475 543.731,857.408 C543.77,854.447 544.999,852.039 547.482,850.855 C558.259,845.712 569.465,841.587 580.651,837.435 C580.938,837.328 581.463,837.864 581.877,838.1 C577.555,844.086 576.154,850.825 576.733,858.074" fill="#FEFEFE"/>
    <path d="M459.792,699.057 C456.931,707.325 453.766,715.496 451.71,724.024 C451.516,724.518 451.214,724.933 450.81,725.275 C443.733,729.044 436.083,731.448 428.697,734.485 C427.289,735.064 425.795,735.353 424.476,734.143 C423.544,732.106 424.419,730.209 425.159,728.435 C427.728,722.269 428.174,715.243 432.655,709.854 C441.343,705.356 450.452,701.917 459.792,699.057" fill="#F2FAFE"/>
    <path d="M376.963,812.197 C372.165,799.961 367.367,787.726 362.569,775.49 C361.721,768.966 364.456,763.443 367.45,757.991 C370.675,756.848 371.076,759.611 371.831,761.415 C376.33,772.166 380.556,783.026 384.563,793.973 C384.754,794.759 384.796,795.554 384.715,796.356 C383.653,800.802 382.072,805.088 380.51,809.37 C379.963,810.87 379.638,813.149 376.963,812.197" fill="#F2FAFE"/>
    <path d="M587.889,880.122 C586.608,882.415 584.165,882.7 582.029,883.53 C576.311,885.751 570.637,888.088 564.878,890.196 C560.6,891.761 556.011,889.924 554.37,886.269 C552.258,881.566 553.722,876.416 558.245,874.415 C565.059,871.402 572.053,868.797 578.97,866.019 C581.473,871.017 584.577,875.635 587.889,880.122" fill="#FEFEFE"/>
    <path d="M367.815,758.145 C366.067,763.927 364.318,769.71 362.569,775.491 C358.567,765.484 354.641,755.447 350.507,745.497 C349.598,743.31 349.772,742.263 352.063,741.407 C360.3,738.329 368.489,735.121 376.695,731.962 C374.061,740.021 371.427,748.079 368.794,756.138 C368.884,757.01 368.388,757.596 367.815,758.145" fill="#CBF0FE"/>
    <path d="M432.655,709.854 C430.035,717.947 427.416,726.04 424.796,734.133 C425.637,735.227 425.143,735.971 424.159,736.592 C418.299,738.479 412.727,741.144 406.871,743.045 C405.18,743.594 403.482,744.711 401.762,743.099 C403.878,736.589 406.022,730.088 408.088,723.562 C408.549,722.104 409.803,720.697 408.697,719.009 C416.684,715.957 424.669,712.905 432.655,709.854" fill="#CBF0FE"/>
    <path d="M409.724,847.16 C406.455,855.38 404.628,864.115 400.806,872.138 C396.315,862.028 392.162,851.785 388.667,841.283 C388.218,835.349 390.784,830.245 393.115,825.075 C395.498,822.768 396.558,824.609 397.426,826.548 C399.516,831.217 401.399,835.981 403.133,840.786 C404.336,844.119 406.062,846.544 409.724,847.16" fill="#F2FAFE"/>
    <path d="M393.816,825.129 C392.1,830.514 390.384,835.899 388.667,841.284 C384.766,831.587 380.864,821.891 376.963,812.196 C380.153,810.299 379.714,806.646 380.965,803.818 C382.076,801.308 382.896,798.669 383.844,796.087 C386.569,796.506 386.594,799.042 387.398,800.839 C390.349,807.425 392.347,814.421 395.935,820.74 C396.683,822.903 394.431,823.62 393.816,825.129" fill="#CBF0FE"/>
    <path d="M572.555,1007.01 C571.899,1009.41 570.754,1011.37 567.881,1011.23 C565.135,1011.09 563.586,1009.49 563.639,1006.74 C563.693,1003.95 565.526,1002.31 568.099,1002.41 C570.634,1002.51 572.186,1004.35 572.555,1007.01" fill="#FAF8F6"/>
    <path d="M553.691,990.011 C553.329,989.645 552.968,989.28 552.605,988.913 C553.784,988.322 554.963,987.733 556.587,986.921 C555.91,988.917 554.864,989.534 553.691,990.011" fill="#8F8374"/>
    <path d="M289.555,407.827 C268.818,400.367 252.972,388.363 240.037,372.511 C229.185,359.212 233.31,361.596 216.52,361.303 C161.645,360.346 112.558,343.643 71.479,306.42 C44.31,281.8 26.025,251.704 19.884,215.22 C11.803,167.205 25.08,124.874 56.504,88.273 C88.481,51.029 129.872,29.877 177.684,21.513 C229.416,12.463 279.182,19.356 325.712,44.409 C363.347,64.673 392.746,93.388 408.457,133.695 C430.483,190.208 420.243,242.213 382.402,288.797 C357.35,319.638 324.515,339.283 286.847,351.138 C277.535,354.068 275.873,356.49 276.383,366.229 C276.759,373.413 277.779,380.458 279.946,387.315 C282.105,394.152 285.258,400.552 289.555,407.827" fill="#FEFEFE"/>
    <path d="M672.904,492.999 C673.258,498.916 672.101,504.866 668.968,510.373 C661.917,522.767 647.495,524.166 638.317,513.349 C628.519,501.8 628.057,485.131 637.436,470.692 C639.294,467.832 640.132,465.485 638.883,462.098 C637.632,458.707 637.254,454.991 636.514,451.413 C635.661,447.287 637.183,444.338 641.363,443.644 C645.322,442.987 647.488,445.424 648.294,449.154 C648.504,450.127 648.666,451.112 648.832,452.094 C649.581,456.517 650.093,460.267 656.449,460.701 C661.463,461.043 664.843,465.778 667.366,470.2 C671.32,477.127 673.202,484.629 672.904,492.999" fill="#6E4100"/>
    <path d="M907.887,494.565 C907.536,502.862 905.658,511.984 896.644,517.796 C889.632,522.318 881.698,521.542 875.598,515.882 C863.573,504.724 862.029,486.223 872.243,470.76 C874.315,467.622 874.771,465.106 873.579,461.666 C872.39,458.236 871.796,454.584 871.125,450.995 C870.44,447.332 872.039,444.666 875.58,443.768 C879.148,442.863 881.67,444.541 882.761,448.108 C883.149,449.377 883.489,450.679 883.667,451.991 C884.282,456.507 884.799,460.145 891.143,460.72 C896.559,461.211 899.974,466.253 902.641,471.006 C906.028,477.041 907.913,485.179 907.887,494.565" fill="#6E4100"/>
    <path d="M769.939,658.827 C753.789,658.391 740.837,652.534 733.473,637.26 C732.826,635.919 732.204,634.52 731.882,633.078 C731.018,629.202 732.13,625.913 735.986,624.506 C739.939,623.063 743.434,624.314 744.975,628.424 C749.589,640.73 759.024,644.916 771.319,644.632 C783.25,644.356 790.585,639.032 794.452,627.751 C796.109,622.919 799.207,620.97 803.41,622.115 C807.365,623.193 809.048,626.802 807.832,631.742 C807.476,633.188 807.047,634.634 806.479,636.008 C800.446,650.581 786.776,659.103 769.939,658.827" fill="#6E4100"/>
    <path d="M652.746,324.648 C660.958,324.651 666.737,326.326 671.221,331.111 C673.588,333.636 673.679,336.599 671.43,339.211 C669.336,341.641 666.588,341.903 663.774,340.335 C653.24,334.466 641.227,337.496 634.611,347.723 C634.073,348.556 633.677,349.492 633.073,350.27 C631.031,352.898 628.26,353.272 625.482,351.98 C622.757,350.713 621.91,348.22 622.535,345.277 C622.996,343.107 624.179,341.294 625.505,339.593 C632.881,330.134 642.637,325.272 652.746,324.648" fill="#6E4100"/>
    <path d="M777.556,510.317 C777.446,512.053 776.326,513.935 774.242,514.838 C771.835,515.88 769.073,515.83 767.35,513.72 C765.068,510.926 763.161,507.786 761.397,504.624 C760.125,502.343 760.956,500.035 762.7,498.274 C764.442,496.514 766.574,495.895 769.043,496.918 C771.857,498.084 777.667,506.687 777.556,510.317" fill="#6F4400"/>
    <path d="M557.728,922.462 C557.056,925.005 554.602,925.203 552.739,925.95 C537.171,932.188 521.563,938.324 505.966,944.489 C489.443,951.021 472.854,957.393 456.441,964.191 C452.283,965.914 450.755,964.931 449.255,961.056 C440.558,938.604 431.668,916.226 422.838,893.825 C420.828,888.727 418.928,883.58 416.725,878.566 C415.358,875.454 415.941,873.713 419.187,872.439 C442.22,863.405 465.21,854.259 488.222,845.169 C498.106,841.265 508.117,837.656 517.847,833.404 C521.615,831.757 522.585,832.941 523.829,836.139 C532.742,859.041 541.8,881.888 550.822,904.747 C552.773,909.69 554.775,914.613 556.735,919.552 C557.102,920.476 557.38,921.434 557.728,922.462" fill="#9CDFC5"/>
    <path d="M450.938,724.197 C451.205,724.182 451.463,724.125 451.711,724.025 C458.502,721.35 465.331,718.768 472.065,715.956 C474.624,714.887 475.867,715.233 476.944,717.974 C488.11,746.382 499.325,774.773 510.729,803.087 C512.411,807.263 509.471,807.442 507.232,808.328 C479.47,819.323 451.718,830.344 423.878,841.138 C419.604,842.795 415.765,846.274 410.613,845.139 C409.403,843.112 410.525,841.25 411.131,839.424 C423.314,802.701 435.588,766.008 448.108,729.398 C448.76,727.492 449.593,725.712 450.938,724.197" fill="#9DC6FE"/>
    <path d="M450.938,724.197 C445.538,743.037 438.451,761.315 432.357,779.925 C425.227,801.701 417.873,823.403 410.615,845.138 C410.317,845.812 410.021,846.486 409.725,847.159 C406.441,848.456 404.396,848.074 403.108,844.087 C401.175,838.101 398.387,832.394 396.082,826.522 C395.603,825.302 395.4,824.267 393.816,825.129 C393.608,823.381 395.366,822.51 395.662,820.987 C394.265,819.042 395.24,817.137 395.842,815.284 C403.952,790.324 412.724,765.587 421.024,740.691 C421.605,738.948 422.219,737.218 423.88,736.151 C424.186,735.478 424.491,734.806 424.796,734.133 C433.89,731.819 442.216,727.487 450.938,724.197" fill="#E7F0FE"/>
    <path d="M507.402,751.181 C501.938,751.342 499.465,748.453 498.376,744.262 C497.314,740.18 499.197,736.945 502.76,735.241 C508.132,732.672 513.743,730.593 519.281,728.377 C529.437,724.314 539.63,720.344 549.773,716.248 C553.326,714.813 556.595,715.045 559.544,717.469 C564.838,721.821 563.636,729.692 556.947,732.424 C541.914,738.563 526.741,744.361 511.632,750.315 C510.059,750.935 508.477,751.359 507.402,751.181" fill="#FEFEFE"/>
    <path d="M552.792,700.133 C553.236,704.167 550.845,706.667 547.435,708.047 C531.92,714.324 516.356,720.479 500.765,726.564 C495.939,728.448 491.229,726.536 489.41,722.319 C487.399,717.658 488.975,712.665 493.844,710.673 C509.793,704.148 525.799,697.748 541.926,691.683 C547.993,689.401 552.759,693.418 552.792,700.133" fill="#FEFEFE"/>
    <path d="M543.079,842.201 C538.109,842.235 535.65,839.627 534.487,835.608 C533.239,831.294 535.047,827.906 538.838,826.179 C546.217,822.818 553.799,819.893 561.335,816.884 C569.64,813.567 577.943,810.237 586.334,807.148 C591.758,805.151 596.179,807.142 598.154,812.006 C599.825,816.118 597.917,820.933 593.117,822.917 C577.505,829.37 561.788,835.571 546.087,841.808 C545.049,842.22 543.805,842.115 543.079,842.201" fill="#FEFEFE"/>
    <path d="M516.507,775.372 C511.957,775.802 509.398,773.373 508.138,769.565 C506.837,765.63 508.173,761.924 511.62,759.997 C519.018,755.86 527.037,752.931 535.18,750.725 C538.733,749.762 542.307,751.775 543.995,755.668 C545.767,759.752 544.944,763.766 541.35,765.833 C533.608,770.284 525.234,773.438 516.507,775.372" fill="#FEFEFE"/>
    <path d="M423.88,736.151 C414.996,762.519 406.105,788.885 397.242,815.26 C396.612,817.135 396.186,819.078 395.664,820.988 C393.372,820.95 393.364,818.981 392.761,817.535 C389.78,810.389 386.814,803.237 383.844,796.087 C383.858,795.445 383.871,794.804 383.885,794.162 C383.765,792.667 383.867,791.2 384.352,789.763 C389.049,775.84 393.45,761.815 398.608,748.049 C399.138,746.636 400.064,745.465 400.729,744.14 C401.074,743.793 401.418,743.447 401.762,743.099 C407.8,742.042 413.173,739.091 418.881,737.094 C420.492,736.529 421.968,735.149 423.88,736.151" fill="#9DC6FE"/>
    <path d="M400.729,744.14 C399.182,752.453 395.473,760.063 392.913,768.048 C390.103,776.815 387.589,785.699 383.884,794.162 C378.904,784.657 376.151,774.236 371.7,764.52 C370.677,762.285 370.927,759.145 367.815,758.145 C367.812,757.315 367.995,756.576 368.794,756.138 C377.989,753.932 386.393,749.578 395.223,746.382 C397.085,745.708 398.895,744.891 400.729,744.14" fill="#E7F0FE"/>
    <path d="M177.074,221.374 C165.994,221.009 153.791,214.267 146.056,200.557 C133.651,178.567 121.514,156.423 109.529,134.202 C99.05,114.773 106.175,90.343 125.12,79.575 C144.756,68.415 169.536,74.683 180.707,94.244 C193.472,116.599 205.963,139.122 218.004,161.873 C232.398,189.066 212.507,221.345 177.074,221.374" fill="#6E4100"/>
    <path d="M341.829,205.858 C341.886,215.173 339.441,222.83 334.702,229.721 C320.482,250.404 306.345,271.147 291.898,291.67 C278.842,310.218 253.759,314.62 235.329,301.959 C216.923,289.316 211.958,264.135 224.568,245.456 C238.704,224.516 253.079,203.734 267.576,183.042 C277.423,168.986 294.411,162.765 310.566,166.782 C327.102,170.895 338.991,183.906 341.544,200.784 C341.841,202.747 341.773,204.765 341.829,205.858" fill="#6E4100"/>
    <path d="M122.357,114.904 C122.439,104.44 129.153,95.476 139.085,92.573 C148.694,89.765 159.587,93.444 164.864,102.109 C170.562,111.466 175.54,121.259 180.922,130.811 C181.861,132.476 181.997,133.421 179.93,134.103 C166.438,138.549 153.46,144.017 142.583,153.493 C140.914,154.947 140.335,153.784 139.662,152.548 C134.417,142.923 129.114,133.328 123.964,123.653 C122.541,120.978 122.309,117.929 122.357,114.904" fill="#B1EBFE"/>
    <path d="M204.972,180.456 C205.011,190.942 198.434,199.97 188.559,202.991 C178.724,205.999 167.935,202.299 162.38,193.446 C158.239,186.844 154.832,179.785 150.879,173.058 C149.17,170.149 151.471,169.097 152.901,167.809 C161.848,159.741 172.704,155.175 183.877,151.23 C185.44,150.678 187.045,150.238 188.583,149.626 C190.04,149.047 191.091,149.17 191.874,150.699 C195.809,158.376 200.686,165.555 203.927,173.599 C204.818,175.809 205.028,178.108 204.972,180.456" fill="#FEFEFE"/>
    <path d="M301.176,247.224 C298.096,244.395 295.168,241.701 292.236,239.012 C284.466,231.887 276.091,225.6 266.31,221.523 C263.442,220.327 263.781,219.321 265.21,217.289 C270.949,209.127 276.415,200.768 282.303,192.716 C289.889,182.343 303.846,180.129 314.246,187.339 C324.623,194.532 327.514,208.463 320.529,219.149 C314.889,227.777 308.857,236.148 302.997,244.632 C302.447,245.427 301.886,246.214 301.176,247.224" fill="#B1EBFE"/>
    <path d="M254.967,291.347 C240.303,291.299 229.184,271.904 238.467,256.422 C242.39,249.878 247.179,243.859 251.323,237.44 C252.713,235.287 254.145,235.631 255.928,236.257 C260.813,237.974 265.322,240.418 269.574,243.353 C276.583,248.193 282.705,254.048 288.807,259.948 C290.667,261.747 290.547,262.945 289.147,264.885 C285.161,270.409 281.5,276.167 277.482,281.666 C272.775,288.108 266.398,291.53 254.967,291.347" fill="#FEFEFE"/>
  </g>
</svg>
